{"glyphs":{"0":{"ha":1102,"x_min":65,"x_max":1036,"o":"m 1036 490 q 1016 328 1036 400 q 960 199 996 256 q 877 101 924 142 q 775 33 829 60 q 663 -7 721 6 q 547 -20 604 -20 q 431 -6 490 -20 q 319 36 373 8 q 219 106 266 64 q 139 205 173 149 q 85 333 104 262 q 65 490 65 404 q 85 652 65 580 q 140 782 105 725 q 221 880 174 839 q 321 947 268 921 q 433 987 375 974 q 547 1000 490 1000 q 669 987 608 1000 q 783 947 729 974 q 884 880 838 921 q 964 782 930 839 q 1017 652 998 725 q 1036 490 1036 580 m 769 490 q 765 581 769 534 q 750 672 760 628 q 724 755 741 716 q 683 822 707 793 q 624 868 658 851 q 547 884 591 884 q 476 868 507 884 q 420 823 444 851 q 379 755 396 794 q 352 673 363 717 q 337 582 342 629 q 332 490 332 535 q 337 398 332 445 q 352 308 342 351 q 379 225 363 264 q 420 158 396 186 q 476 112 444 129 q 547 95 507 95 q 617 112 585 95 q 673 159 648 130 q 716 228 698 189 q 746 310 734 267 q 763 400 758 354 q 769 490 769 446 z "},"1":{"ha":639,"x_min":66,"x_max":595,"o":"m 595 0 l 66 0 l 66 124 l 196 124 l 196 852 l 66 852 l 66 977 l 465 977 l 465 124 l 595 124 l 595 0 z "},"2":{"ha":1039,"x_min":42,"x_max":967,"o":"m 967 683 q 951 579 967 623 q 907 504 935 535 q 841 451 879 473 q 761 414 804 430 q 672 385 718 397 q 582 357 627 372 q 496 325 537 343 q 421 280 454 307 q 364 215 388 253 q 332 125 340 178 l 967 125 l 967 0 l 42 0 q 85 162 57 94 q 149 279 113 230 q 229 360 186 328 q 317 416 272 393 q 409 454 363 439 q 498 484 455 469 q 577 514 541 498 q 642 553 614 530 q 685 611 669 577 q 701 696 701 646 q 685 777 701 743 q 642 835 669 812 q 578 869 615 858 q 499 881 541 881 q 417 865 455 881 q 350 819 380 848 q 297 748 319 789 q 264 656 275 707 l 56 771 q 135 870 83 828 q 248 940 186 912 q 378 982 311 968 q 506 996 446 996 q 621 991 564 996 q 729 974 678 987 q 824 939 781 961 q 899 881 867 916 q 949 798 931 846 q 967 683 967 749 z "},"3":{"ha":1029,"x_min":12,"x_max":971,"o":"m 483 -20 q 352 -6 422 -20 q 215 36 281 8 q 94 106 149 64 q 12 205 40 149 l 254 320 q 274 232 254 273 q 325 161 293 191 q 398 113 357 130 q 483 95 439 95 q 565 107 525 95 q 636 144 605 120 q 686 204 667 169 q 705 286 705 240 q 687 373 705 337 q 640 433 670 410 q 569 467 610 456 q 483 477 529 477 l 351 477 l 351 593 l 483 593 q 545 601 515 593 q 598 626 575 609 q 636 668 622 643 q 650 728 650 694 q 637 791 650 766 q 602 833 625 817 q 549 856 579 849 q 483 863 518 863 q 417 854 449 863 q 361 828 385 846 q 321 784 336 810 q 307 721 307 757 l 113 863 q 186 923 142 898 q 282 963 231 948 q 386 986 334 979 q 483 993 439 993 q 569 988 524 993 q 660 973 615 984 q 746 944 705 962 q 819 898 787 926 q 868 831 850 870 q 887 741 887 793 q 873 681 887 710 q 838 626 860 651 q 789 582 817 601 q 732 551 761 562 q 823 518 780 541 q 900 460 867 494 q 952 382 932 426 q 971 286 971 338 q 949 172 971 220 q 890 90 927 123 q 804 34 853 56 q 701 1 755 13 q 590 -15 646 -11 q 483 -20 534 -20 z "},"4":{"ha":976,"x_min":18,"x_max":913,"o":"m 913 222 l 845 222 l 845 0 l 576 0 l 576 222 l 18 222 q 65 382 36 300 q 131 543 94 463 q 212 698 168 622 q 302 841 255 774 l 490 841 q 393 655 432 744 q 330 497 354 566 q 287 347 302 416 l 576 347 l 576 977 l 845 977 l 845 347 l 913 347 l 913 222 z "},"5":{"ha":1035,"x_min":30,"x_max":989,"o":"m 989 300 q 967 184 989 234 q 908 100 945 135 q 822 41 871 64 q 718 5 772 18 q 608 -14 664 -9 q 500 -20 551 -20 q 370 -6 440 -20 q 233 36 299 8 q 112 106 166 64 q 30 205 58 149 l 272 320 q 291 232 272 273 q 342 161 311 191 q 415 113 374 130 q 500 95 456 95 q 583 110 543 95 q 653 151 623 124 q 703 216 684 178 q 722 300 722 254 q 705 389 722 351 q 657 453 688 428 q 587 492 627 479 q 500 505 547 505 q 315 496 393 505 q 186 477 237 488 q 87 450 127 465 l 189 977 l 908 977 l 908 852 l 410 852 l 362 614 q 426 618 392 616 q 500 620 460 620 q 662 606 591 620 q 788 567 734 591 q 880 511 842 543 q 942 444 918 479 q 978 371 966 408 q 989 300 989 334 z "},"6":{"ha":1095,"x_min":65,"x_max":1036,"o":"m 1036 320 q 997 164 1036 229 q 890 59 958 100 q 734 -1 823 18 q 547 -20 646 -20 q 438 -9 494 -20 q 328 23 382 1 q 227 82 275 46 q 143 172 179 119 q 86 295 107 224 q 65 456 65 366 q 83 613 65 540 q 134 746 101 686 q 213 853 167 806 q 317 933 260 901 q 440 983 374 966 q 578 1000 506 1000 q 706 992 647 1000 q 816 965 764 984 q 915 915 868 946 q 1008 836 962 883 l 892 699 q 853 770 878 736 q 798 829 829 804 q 727 869 766 854 q 642 884 688 884 q 523 864 578 884 q 424 801 467 843 q 353 696 380 760 q 319 547 326 633 q 383 603 348 581 q 456 638 418 625 q 530 656 493 651 q 602 661 568 661 q 772 641 693 661 q 910 579 852 621 q 1003 473 969 537 q 1036 320 1036 409 m 769 320 q 751 420 769 378 q 703 490 733 463 q 632 532 672 518 q 547 545 591 545 q 466 531 505 545 q 397 489 427 517 q 350 418 368 460 q 332 320 332 376 q 350 229 332 271 q 398 158 368 188 q 467 112 429 128 q 547 95 506 95 q 629 110 589 95 q 700 154 669 125 q 750 225 731 183 q 769 320 769 267 z "},"7":{"ha":836,"x_min":18,"x_max":819,"o":"m 410 0 l 127 0 l 549 852 l 18 852 l 18 977 l 819 977 l 819 852 l 410 0 z "},"8":{"ha":1087,"x_min":58,"x_max":1029,"o":"m 762 286 q 744 373 762 337 q 697 433 727 410 q 626 467 667 456 q 540 477 586 477 q 456 466 495 477 q 388 430 416 454 q 342 370 359 406 q 325 286 325 334 q 342 204 325 239 q 389 144 359 168 q 457 107 418 119 q 540 95 496 95 q 622 107 582 95 q 693 144 662 120 q 743 204 724 169 q 762 286 762 240 m 303 552 q 242 583 271 564 q 190 627 213 602 q 154 680 168 651 q 140 741 140 709 q 159 829 140 791 q 208 895 177 867 q 280 942 239 923 q 365 972 321 960 q 455 988 410 983 q 540 993 500 993 q 626 988 581 993 q 717 973 672 984 q 803 944 762 962 q 876 898 844 926 q 925 831 907 870 q 944 741 944 793 q 930 681 944 710 q 895 626 917 651 q 846 582 873 601 q 789 551 818 562 q 880 518 837 541 q 957 460 924 494 q 1009 382 990 426 q 1029 286 1029 338 q 1007 172 1029 220 q 947 90 985 123 q 861 34 910 56 q 758 1 812 13 q 647 -15 703 -11 q 540 -20 591 -20 q 436 -14 491 -20 q 328 5 382 -9 q 225 41 275 18 q 139 97 176 63 q 80 178 102 131 q 58 286 58 224 q 78 383 58 338 q 132 463 98 428 q 211 520 166 497 q 303 552 255 543 m 540 863 q 476 856 506 863 q 425 831 447 848 q 390 789 403 815 q 378 728 378 764 q 391 668 378 693 q 426 626 404 642 q 477 601 448 609 q 540 593 507 593 q 602 601 572 593 q 655 626 632 609 q 693 668 679 643 q 707 728 707 694 q 694 791 707 766 q 659 833 682 817 q 606 856 636 849 q 540 863 575 863 z "},"9":{"ha":1096,"x_min":60,"x_max":1031,"o":"m 1031 524 q 991 297 1031 397 q 882 126 951 197 q 720 18 813 56 q 518 -20 626 -20 q 390 -12 449 -20 q 280 15 332 -4 q 181 65 228 34 q 87 143 134 96 l 204 281 q 242 210 218 243 q 298 151 267 176 q 369 110 330 125 q 454 95 408 95 q 573 116 517 95 q 672 178 629 136 q 743 284 715 220 q 777 433 770 347 q 713 376 748 399 q 640 341 677 354 q 565 324 603 329 q 494 319 528 319 q 323 339 403 319 q 185 400 243 359 q 93 506 127 442 q 60 659 60 570 q 99 815 60 751 q 205 921 138 880 q 361 981 273 962 q 549 1000 450 1000 q 658 989 602 1000 q 768 957 714 979 q 869 897 821 934 q 953 808 917 861 q 1010 684 989 755 q 1031 524 1031 614 m 764 659 q 745 750 764 709 q 697 821 727 791 q 628 868 667 851 q 549 884 589 884 q 467 869 507 884 q 396 825 427 854 q 346 754 365 796 q 327 659 327 713 q 345 560 327 602 q 393 489 363 517 q 464 448 424 461 q 549 434 505 434 q 630 448 591 434 q 699 491 669 463 q 746 561 728 519 q 764 659 764 603 z "}," ":{"ha":393,"x_min":0,"x_max":0,"o":""},"Þ":{"ha":1019,"x_min":111,"x_max":986,"o":"m 380 698 l 380 274 l 522 274 q 609 291 573 274 q 669 337 646 307 q 703 407 692 367 q 713 496 713 448 q 666 644 713 590 q 522 698 618 698 l 380 698 m 380 0 l 111 0 l 111 977 l 380 977 l 380 793 l 638 793 q 769 775 707 793 q 880 720 832 757 q 957 627 928 683 q 986 496 986 571 q 972 407 986 448 q 935 330 959 365 q 878 268 911 296 q 807 221 846 240 q 725 192 768 202 q 638 182 682 182 l 380 182 l 380 0 z "},"þ":{"ha":980,"x_min":96,"x_max":928,"o":"m 696 393 q 693 457 696 423 q 682 524 690 490 q 662 587 675 557 q 628 641 648 618 q 579 679 608 665 q 512 692 550 692 q 444 679 473 692 q 394 642 415 665 q 360 588 374 618 q 340 525 347 558 q 329 458 332 492 q 326 393 326 424 q 330 333 326 366 q 343 267 334 300 q 366 203 352 234 q 401 147 380 172 q 449 108 422 123 q 512 94 477 94 q 579 107 551 94 q 628 145 608 121 q 662 199 648 168 q 682 262 675 229 q 693 330 690 296 q 696 393 696 363 m 96 1112 l 325 1112 l 325 688 q 421 772 363 741 q 549 802 479 802 q 709 770 638 802 q 828 683 779 739 q 903 553 877 628 q 928 393 928 479 q 903 233 928 308 q 828 103 877 159 q 709 16 779 48 q 549 -16 638 -16 q 423 11 480 -16 q 325 94 366 38 l 325 -361 l 96 -361 l 96 1112 z "},"½":{"ha":983,"x_min":68,"x_max":933,"o":"m 785 943 l 250 34 l 109 34 l 637 943 l 785 943 m 68 501 l 68 569 l 123 569 l 123 873 l 68 873 l 68 941 l 251 941 l 251 569 l 307 569 l 307 501 l 68 501 m 515 31 q 542 122 524 85 q 582 182 559 159 q 630 219 604 205 q 681 242 655 233 q 722 255 701 249 q 762 272 744 262 q 791 298 780 282 q 803 342 803 315 q 780 397 803 378 q 722 416 757 416 q 661 390 687 416 q 624 314 635 363 l 520 371 q 557 420 534 399 q 610 453 581 440 q 668 473 638 467 q 725 479 699 479 q 800 474 763 479 q 867 453 838 469 q 915 409 897 437 q 933 336 933 381 q 917 268 933 293 q 873 228 900 243 q 814 204 847 213 q 751 184 782 195 q 691 154 717 172 q 657 98 666 135 l 933 98 l 933 31 l 515 31 z "},"¼":{"ha":900,"x_min":68,"x_max":842,"o":"m 785 943 l 250 34 l 109 34 l 637 943 l 785 943 m 68 501 l 68 569 l 123 569 l 123 873 l 68 873 l 68 941 l 251 941 l 251 569 l 307 569 l 307 501 l 68 501 m 812 128 l 812 31 l 682 31 l 682 128 l 437 128 q 489 277 455 204 q 566 411 523 349 l 663 411 q 624 338 640 373 q 597 275 608 303 q 580 226 586 247 q 571 196 574 205 l 682 196 l 682 471 l 812 471 l 812 196 l 842 196 l 842 128 l 812 128 z "},"¹":{"ha":407,"x_min":92,"x_max":331,"o":"m 92 501 l 92 569 l 148 569 l 148 873 l 92 873 l 92 941 l 275 941 l 275 569 l 331 569 l 331 501 l 92 501 z "},"¾":{"ha":1027,"x_min":43,"x_max":960,"o":"m 903 943 l 368 34 l 227 34 l 755 943 l 903 943 m 931 128 l 931 31 l 800 31 l 800 128 l 556 128 q 608 277 574 204 q 685 411 642 349 l 782 411 q 742 338 759 373 q 715 275 726 303 q 698 226 704 247 q 690 196 692 205 l 800 196 l 800 471 l 931 471 l 931 196 l 960 196 l 960 128 l 931 128 m 257 492 q 199 498 231 492 q 137 517 167 504 q 82 551 107 530 q 43 600 57 572 l 163 658 q 171 616 163 635 q 192 584 179 597 q 222 563 205 570 q 257 555 239 555 q 291 561 275 555 q 320 575 307 566 q 340 600 332 585 q 347 632 347 614 q 321 691 347 673 q 257 709 296 709 l 193 709 l 193 772 l 257 772 q 303 786 283 772 q 323 825 323 800 q 305 866 323 854 q 257 878 287 878 q 230 874 243 878 q 208 862 217 870 q 192 841 198 854 q 186 809 186 827 l 86 883 q 122 914 101 901 q 167 934 144 926 q 214 944 191 941 q 257 947 237 947 q 315 943 283 947 q 374 926 347 939 q 421 890 402 913 q 440 831 440 867 q 423 784 440 806 q 385 749 406 762 q 420 732 404 743 q 449 706 437 721 q 469 672 462 691 q 477 632 477 654 q 455 558 477 586 q 400 516 433 531 q 328 496 367 501 q 257 492 290 492 z "},"³":{"ha":557,"x_min":57,"x_max":491,"o":"m 271 492 q 213 498 245 492 q 151 517 181 504 q 96 551 121 530 q 57 600 71 572 l 178 658 q 185 616 178 635 q 207 584 193 597 q 237 563 220 570 q 271 555 254 555 q 305 561 289 555 q 334 575 321 566 q 354 600 347 585 q 361 632 361 614 q 336 691 361 673 q 271 709 310 709 l 207 709 l 207 772 l 271 772 q 318 786 298 772 q 338 825 338 800 q 319 866 338 854 q 271 878 301 878 q 244 874 257 878 q 222 862 231 870 q 207 841 212 854 q 201 809 201 827 l 100 883 q 137 914 115 901 q 181 934 158 926 q 228 944 205 941 q 271 947 252 947 q 329 943 297 947 q 389 926 361 939 q 435 890 416 913 q 454 831 454 867 q 437 784 454 806 q 399 749 420 762 q 434 732 418 743 q 464 706 451 721 q 484 672 476 691 q 491 632 491 654 q 469 558 491 586 q 414 516 447 531 q 342 496 381 501 q 271 492 304 492 z "},"²":{"ha":595,"x_min":83,"x_max":500,"o":"m 83 499 q 109 591 92 554 q 149 651 127 627 q 197 688 172 675 q 248 711 222 701 q 290 724 269 718 q 330 741 312 730 q 359 767 348 751 q 371 810 371 783 q 348 866 371 847 q 290 884 325 884 q 229 858 254 884 q 191 783 203 832 l 87 840 q 125 888 101 868 q 177 922 149 909 q 236 941 205 935 q 292 947 266 947 q 368 942 330 947 q 434 922 405 937 q 482 878 464 906 q 500 804 500 850 q 484 736 500 762 q 440 696 467 711 q 381 672 414 682 q 318 652 349 663 q 259 622 284 641 q 225 567 234 604 l 500 567 l 500 499 l 83 499 z "},"¦":{"ha":424,"x_min":111,"x_max":313,"o":"m 313 545 l 111 545 l 111 1111 l 313 1111 l 313 545 m 313 -139 l 111 -139 l 111 428 l 313 428 l 313 -139 z "},"−":{"ha":756,"x_min":95,"x_max":661,"o":"m 661 427 l 95 427 l 95 551 l 661 551 l 661 427 z "},"×":{"ha":755,"x_min":72,"x_max":686,"o":"m 471 506 l 677 212 l 459 212 l 357 357 l 253 212 l 72 212 l 281 466 l 78 755 l 296 755 l 395 614 l 503 755 l 686 755 l 471 506 z "},"!":{"ha":452,"x_min":81,"x_max":372,"o":"m 372 1044 l 296 268 l 157 268 l 81 1044 l 372 1044 m 350 102 q 340 53 350 76 q 314 14 330 31 q 274 -13 297 -3 q 227 -22 252 -22 q 178 -13 201 -22 q 139 14 155 -3 q 112 53 122 31 q 102 102 102 76 q 112 150 102 127 q 139 189 122 172 q 178 215 155 205 q 227 225 201 225 q 274 215 252 225 q 314 189 297 205 q 340 150 330 172 q 350 102 350 127 z "},"\"":{"ha":698,"x_min":73,"x_max":627,"o":"m 627 977 l 585 636 l 420 636 l 378 977 l 627 977 m 321 977 l 279 636 l 114 636 l 73 977 l 321 977 z "},"#":{"ha":781,"x_min":47,"x_max":734,"o":"m 734 669 l 700 543 l 613 543 l 574 410 l 664 410 l 627 285 l 536 285 l 478 89 l 319 89 l 377 285 l 291 285 l 233 89 l 73 89 l 132 285 l 47 285 l 83 410 l 169 410 l 210 543 l 119 543 l 154 669 l 247 669 l 306 869 l 465 869 l 405 669 l 492 669 l 552 869 l 710 869 l 651 669 l 734 669 m 454 543 l 368 543 l 328 410 l 414 410 l 454 543 z "},"$":{"ha":648,"x_min":49,"x_max":598,"o":"m 366 397 l 366 238 q 400 245 383 240 q 430 258 417 250 q 452 281 444 267 q 460 315 460 294 q 452 346 460 332 q 430 369 444 359 q 400 385 417 378 q 366 397 384 392 m 285 581 l 285 739 q 253 731 269 736 q 225 718 237 726 q 205 696 213 709 q 198 663 198 682 q 205 632 198 645 q 225 609 213 618 q 253 592 237 599 q 285 581 269 586 m 366 -22 l 285 -22 l 285 165 q 229 173 256 167 q 175 190 202 178 q 117 218 147 201 q 49 260 86 235 l 134 374 q 159 326 144 349 q 193 285 174 303 q 235 255 212 267 q 285 239 258 243 l 285 419 q 207 444 247 430 q 134 479 168 458 q 80 532 101 500 q 59 612 59 564 q 77 703 59 666 q 126 764 95 741 q 198 800 157 788 q 285 814 239 811 l 285 997 l 366 997 l 366 813 q 416 807 391 812 q 468 791 441 802 q 525 763 495 781 q 588 718 554 745 l 503 604 q 452 695 485 658 q 366 739 419 732 l 366 560 q 445 535 404 549 q 520 500 486 522 q 576 446 554 478 q 598 366 598 414 q 579 273 598 311 q 528 212 560 235 q 454 177 496 189 q 366 163 412 166 l 366 -22 z "},"%":{"ha":1065,"x_min":46,"x_max":1019,"o":"m 1019 250 q 999 146 1019 189 q 947 75 979 103 q 876 34 916 47 q 799 20 837 20 q 721 35 760 20 q 651 77 682 49 q 601 149 621 106 q 582 250 582 192 q 602 353 582 310 q 652 425 621 397 q 722 466 683 452 q 799 479 760 479 q 880 466 840 479 q 950 425 919 452 q 1000 353 981 397 q 1019 250 1019 310 m 871 943 l 337 34 l 196 34 l 724 943 l 871 943 m 483 720 q 463 616 483 660 q 411 545 443 573 q 340 504 380 517 q 263 491 301 491 q 185 505 224 491 q 116 548 146 519 q 65 620 85 576 q 46 720 46 663 q 66 824 46 781 q 116 895 85 867 q 186 936 147 923 q 263 949 224 949 q 344 936 304 949 q 414 895 383 923 q 464 824 445 867 q 483 720 483 781 m 889 250 q 885 310 889 280 q 870 363 880 339 q 842 401 859 387 q 799 416 825 416 q 759 401 775 416 q 731 363 742 387 q 716 310 721 340 q 711 250 711 280 q 716 190 711 220 q 731 137 721 160 q 759 99 742 113 q 799 84 775 84 q 838 99 821 84 q 866 138 855 114 q 883 192 878 162 q 889 250 889 221 m 353 720 q 349 780 353 751 q 334 833 345 810 q 306 871 323 857 q 263 886 289 886 q 223 871 239 886 q 196 833 206 857 q 180 780 185 810 q 176 720 176 751 q 180 661 176 690 q 196 607 185 631 q 223 569 206 583 q 263 554 239 554 q 302 569 286 554 q 331 608 319 585 q 348 662 342 632 q 353 720 353 692 z "},"&":{"ha":1093,"x_min":49,"x_max":1076,"o":"m 1076 341 q 1019 243 1051 290 q 947 156 987 197 l 1035 73 l 881 -38 l 802 45 q 674 -4 741 12 q 538 -20 608 -20 q 430 -15 486 -20 q 320 1 374 -11 q 216 35 265 13 q 130 90 167 56 q 71 172 93 124 q 49 286 49 220 q 68 382 49 338 q 120 460 87 426 q 196 518 153 494 q 288 551 239 541 q 241 591 264 568 q 200 642 218 614 q 171 699 182 669 q 160 759 160 729 q 188 869 160 824 q 259 941 215 913 q 358 981 303 968 q 469 993 414 993 q 581 981 524 993 q 682 941 637 968 q 755 868 727 913 q 784 759 784 824 q 766 674 784 712 q 718 607 747 637 q 650 553 688 576 q 576 510 613 529 l 803 294 q 826 373 818 332 q 834 456 834 414 l 1076 341 m 572 744 q 565 789 572 768 q 546 827 559 811 q 514 853 534 844 q 469 863 495 863 q 423 854 441 863 q 392 829 404 845 q 375 791 380 812 q 370 744 370 769 q 380 705 370 725 q 405 665 390 684 q 435 629 419 646 q 465 600 452 612 q 505 626 486 611 q 539 659 524 641 q 563 698 553 677 q 572 744 572 720 m 701 148 l 403 448 q 336 380 356 422 q 316 286 316 338 q 335 204 316 240 q 385 144 353 169 q 455 107 416 120 q 538 95 495 95 q 624 107 583 95 q 701 148 665 120 z "},"'":{"ha":393,"x_min":73,"x_max":321,"o":"m 321 977 l 279 636 l 114 636 l 73 977 l 321 977 z "},"(":{"ha":487,"x_min":60,"x_max":446,"o":"m 446 -121 l 320 -121 q 211 16 259 -55 q 129 162 162 86 q 78 322 96 239 q 60 496 60 405 q 78 675 60 593 q 129 832 96 758 q 211 977 163 907 q 320 1121 259 1047 l 446 1121 q 403 1030 422 1080 q 366 927 383 981 q 336 817 349 873 q 314 705 323 760 q 300 596 304 649 q 295 496 295 543 q 329 177 295 331 q 446 -121 363 22 z "},")":{"ha":486,"x_min":41,"x_max":426,"o":"m 426 496 q 408 322 426 405 q 357 162 391 239 q 276 16 324 86 q 166 -121 228 -55 l 41 -121 q 157 177 123 22 q 191 496 191 332 q 186 596 191 543 q 173 705 182 649 q 150 817 163 760 q 120 927 137 873 q 84 1030 104 981 q 41 1121 64 1080 l 166 1121 q 275 977 227 1047 q 357 832 323 907 q 408 675 391 758 q 426 496 426 593 z "},"*":{"ha":549,"x_min":57,"x_max":493,"o":"m 493 766 l 359 735 l 450 636 l 345 555 l 274 673 l 204 555 l 98 636 l 191 735 l 57 766 l 97 890 l 222 834 l 208 972 l 340 972 l 327 836 l 450 890 l 493 766 z "},"+":{"ha":682,"x_min":58,"x_max":624,"o":"m 624 427 l 441 427 l 441 218 l 240 218 l 240 427 l 58 427 l 58 551 l 240 551 l 240 750 l 441 750 l 441 551 l 624 551 l 624 427 z "},",":{"ha":392,"x_min":71,"x_max":318,"o":"m 318 102 q 310 38 318 71 q 287 -25 302 5 q 253 -84 273 -56 q 210 -132 233 -111 l 113 -81 q 141 -52 127 -70 q 159 -17 156 -35 q 123 1 139 -11 q 96 28 107 12 q 78 63 84 44 q 71 102 71 81 q 81 150 71 127 q 107 189 91 172 q 146 215 124 205 q 195 225 169 225 q 243 215 220 225 q 282 189 265 205 q 309 150 299 172 q 318 102 318 127 z "},"-":{"ha":647,"x_min":96,"x_max":551,"o":"m 551 427 l 96 427 l 96 551 l 551 551 l 551 427 z "},".":{"ha":389,"x_min":71,"x_max":318,"o":"m 318 102 q 309 53 318 76 q 282 14 299 31 q 243 -13 265 -3 q 195 -22 220 -22 q 146 -13 169 -22 q 107 14 124 -3 q 81 53 90 31 q 71 102 71 76 q 81 150 71 127 q 107 189 90 172 q 146 215 124 205 q 195 225 169 225 q 243 215 220 225 q 282 189 265 205 q 309 150 299 172 q 318 102 318 127 z "},"/":{"ha":664,"x_min":36,"x_max":630,"o":"m 630 977 l 265 0 l 36 0 l 401 977 l 630 977 z "},":":{"ha":438,"x_min":96,"x_max":342,"o":"m 342 572 q 333 524 342 547 q 306 485 323 502 q 267 458 290 468 q 219 449 244 449 q 171 458 193 449 q 132 485 149 468 q 105 524 115 502 q 96 572 96 547 q 105 620 96 597 q 132 660 115 643 q 171 686 149 676 q 219 696 193 696 q 267 686 244 696 q 306 660 290 676 q 333 620 323 643 q 342 572 342 597 m 342 102 q 333 53 342 76 q 306 14 323 31 q 267 -13 290 -3 q 219 -22 244 -22 q 171 -13 193 -22 q 132 14 149 -3 q 105 53 115 31 q 96 102 96 76 q 105 150 96 127 q 132 189 115 172 q 171 215 149 205 q 219 225 193 225 q 267 215 244 225 q 306 189 290 205 q 333 150 323 172 q 342 102 342 127 z "},";":{"ha":438,"x_min":96,"x_max":342,"o":"m 342 572 q 333 524 342 547 q 306 485 323 502 q 267 458 290 468 q 219 449 244 449 q 171 458 193 449 q 132 485 149 468 q 105 524 115 502 q 96 572 96 547 q 105 620 96 597 q 132 660 115 643 q 171 686 149 676 q 219 696 193 696 q 267 686 244 696 q 306 660 290 676 q 333 620 323 643 q 342 572 342 597 m 342 102 q 334 38 342 71 q 312 -25 326 5 q 277 -84 297 -56 q 235 -132 258 -111 l 137 -81 q 166 -52 151 -70 q 183 -17 180 -35 q 148 1 163 -11 q 120 28 132 12 q 102 63 109 44 q 96 102 96 81 q 105 150 96 127 q 132 189 115 172 q 171 215 149 205 q 219 225 193 225 q 267 215 245 225 q 307 189 290 205 q 333 150 323 172 q 342 102 342 127 z "},"<":{"ha":621,"x_min":45,"x_max":529,"o":"m 529 795 l 529 653 l 205 477 l 205 468 l 529 282 l 529 149 l 45 425 l 45 520 l 529 795 z "},"=":{"ha":756,"x_min":95,"x_max":661,"o":"m 661 542 l 95 542 l 95 667 l 661 667 l 661 542 m 661 318 l 95 318 l 95 443 l 661 443 l 661 318 z "},">":{"ha":621,"x_min":92,"x_max":576,"o":"m 576 425 l 92 149 l 92 282 l 416 468 l 416 477 l 92 653 l 92 795 l 576 520 l 576 425 z "},"?":{"ha":846,"x_min":36,"x_max":791,"o":"m 444 269 l 304 269 q 320 369 304 328 q 359 444 336 411 q 410 507 382 477 q 461 568 437 536 q 500 640 485 600 q 516 736 516 680 q 508 815 516 781 q 484 874 500 850 q 440 910 467 898 q 376 923 414 923 q 312 905 340 923 q 263 861 283 888 q 233 801 243 834 q 222 738 222 768 l 36 873 q 101 956 62 923 q 186 1010 140 989 q 284 1039 232 1030 q 389 1047 336 1047 q 484 1037 436 1047 q 577 1007 532 1027 q 661 958 622 987 q 729 890 700 928 q 774 805 758 852 q 791 703 791 758 q 776 613 791 651 q 736 548 761 576 q 681 498 712 519 q 617 458 650 477 q 553 422 585 440 q 498 384 522 405 q 458 335 473 362 q 444 269 444 307 m 500 102 q 490 54 500 77 q 463 14 480 31 q 424 -13 446 -3 q 376 -22 401 -22 q 328 -13 351 -22 q 289 14 306 -3 q 262 54 272 31 q 252 102 252 77 q 262 149 252 127 q 289 189 272 172 q 328 215 306 205 q 376 225 351 225 q 424 215 401 225 q 463 189 446 205 q 490 149 480 172 q 500 102 500 127 z "},"@":{"ha":1223,"x_min":53,"x_max":1176,"o":"m 746 355 q 741 425 746 387 q 721 495 736 463 q 681 549 707 528 q 612 570 654 570 q 545 549 571 570 q 505 494 519 527 q 485 424 490 462 q 480 355 480 387 q 482 309 480 333 q 490 261 484 285 q 505 215 495 237 q 529 176 514 193 q 564 150 544 159 q 612 140 585 140 q 676 162 650 140 q 718 218 702 185 q 740 288 733 251 q 746 355 746 326 m 1101 394 q 1063 584 1101 495 q 959 738 1025 672 q 804 843 892 804 q 614 881 715 881 q 425 843 513 881 q 270 738 336 804 q 166 584 204 672 q 127 394 127 495 q 166 204 127 293 q 270 50 204 116 q 425 -55 336 -16 q 614 -93 513 -93 q 659 -90 635 -93 q 705 -81 683 -86 q 745 -69 727 -75 q 775 -56 764 -62 l 806 -133 q 713 -161 759 -151 q 614 -170 667 -170 q 465 -150 537 -170 q 331 -94 393 -130 q 217 -6 269 -57 q 130 108 166 45 q 73 242 93 170 q 53 391 53 314 q 73 541 53 469 q 130 675 93 612 q 217 788 166 737 q 331 876 269 840 q 465 933 393 913 q 614 953 537 953 q 764 933 692 953 q 898 876 836 913 q 1011 788 960 840 q 1099 675 1063 737 q 1156 541 1136 612 q 1176 391 1176 469 q 1161 270 1176 329 q 1114 165 1146 211 q 1033 91 1082 119 q 912 62 983 62 q 869 70 892 62 q 826 91 846 77 q 789 124 806 104 q 766 169 773 144 q 732 120 753 140 q 687 86 711 99 q 637 66 663 73 q 586 60 610 60 q 471 83 522 60 q 385 146 420 106 q 331 240 350 186 q 313 355 313 294 q 331 470 313 416 q 385 564 350 524 q 471 627 420 604 q 586 650 522 650 q 648 640 618 650 q 703 612 678 630 q 746 569 727 595 q 775 513 764 544 l 849 636 l 912 636 l 912 254 q 926 198 912 219 q 959 169 939 177 q 1001 165 979 161 q 1040 188 1023 170 q 1085 271 1068 218 q 1101 394 1101 323 z "},"A":{"ha":1105,"x_min":99,"x_max":1042,"o":"m 1040 467 l 1040 454 q 1028 336 1039 397 q 999 214 1018 275 q 954 94 980 153 q 894 -21 927 34 q 823 -123 861 -75 q 743 -208 785 -171 l 642 -149 q 685 -62 666 -109 q 720 37 705 -15 q 747 142 736 88 q 766 250 758 197 q 777 356 773 304 q 781 454 781 408 q 780 537 781 491 q 775 632 780 584 q 758 726 770 680 q 724 808 747 772 q 666 865 701 844 q 577 887 630 887 q 497 871 530 887 q 440 828 463 855 q 402 766 416 802 q 381 692 389 731 q 371 613 373 653 q 368 538 368 574 l 368 349 l 661 349 l 661 237 l 368 237 l 368 0 l 99 0 l 99 496 q 133 694 99 603 q 229 853 167 786 q 378 959 291 921 q 572 998 465 998 q 708 977 645 998 q 824 920 772 956 q 917 834 876 884 q 986 725 958 784 q 1027 600 1013 666 q 1040 467 1042 534 z "},"B":{"ha":1060,"x_min":111,"x_max":1010,"o":"m 1010 265 q 996 188 1010 224 q 959 122 983 152 q 904 70 935 93 q 836 31 872 47 q 761 8 800 16 q 685 0 722 0 l 111 0 l 111 977 l 635 977 q 708 971 670 977 q 782 956 746 966 q 851 927 819 945 q 909 884 884 909 q 948 825 934 859 q 963 749 963 792 q 947 675 963 709 q 903 616 930 642 q 840 570 876 590 q 765 535 804 550 q 859 499 814 522 q 937 444 903 477 q 990 367 970 412 q 1010 265 1010 323 m 690 726 q 646 846 690 808 q 522 884 602 884 l 380 884 l 380 568 l 498 568 q 570 577 535 568 q 631 605 604 586 q 674 654 658 625 q 690 726 690 684 m 737 282 q 727 357 737 322 q 696 417 717 392 q 643 457 675 443 q 569 472 612 472 l 380 472 l 380 95 l 545 95 q 622 109 587 95 q 683 146 657 122 q 723 205 709 171 q 737 282 737 240 z "},"C":{"ha":1044,"x_min":55,"x_max":998,"o":"m 998 734 l 882 686 q 845 766 868 730 q 791 829 823 803 q 720 870 760 855 q 632 884 680 884 q 539 868 581 884 q 463 822 496 851 q 404 754 429 793 q 362 672 379 715 q 337 581 345 628 q 329 490 329 534 q 346 348 329 418 q 398 221 362 277 q 492 130 435 165 q 632 95 550 95 q 714 110 675 95 q 784 150 753 124 q 840 210 816 175 q 878 284 863 244 l 995 237 q 924 124 969 173 q 822 44 880 76 q 700 -4 765 12 q 568 -20 634 -20 q 430 -2 496 -20 q 307 48 363 16 q 203 127 250 81 q 124 229 157 173 q 73 352 91 286 q 55 490 55 418 q 73 628 55 562 q 124 750 91 694 q 203 853 157 807 q 307 932 250 899 q 430 982 363 964 q 568 1000 496 1000 q 703 983 637 1000 q 826 934 769 967 q 927 851 883 901 q 998 734 972 802 z "},"D":{"ha":1112,"x_min":111,"x_max":1057,"o":"m 1057 490 q 1038 354 1057 418 q 985 236 1019 290 q 903 138 951 182 q 799 64 856 94 q 676 17 741 33 q 541 0 610 0 l 111 0 l 111 977 l 541 977 q 675 960 610 977 q 798 914 741 944 q 903 840 855 884 q 985 743 951 797 q 1038 625 1019 689 q 1057 490 1057 561 m 784 490 q 765 641 784 569 q 705 766 745 712 q 601 852 664 821 q 451 884 538 884 l 380 884 l 380 95 l 451 95 q 600 127 537 95 q 704 214 663 159 q 764 340 745 269 q 784 490 784 411 z "},"E":{"ha":868,"x_min":111,"x_max":812,"o":"m 812 0 l 111 0 l 111 977 l 812 977 l 812 852 l 380 852 l 380 550 l 713 550 l 713 426 l 380 426 l 380 125 l 812 125 l 812 0 z "},"F":{"ha":842,"x_min":111,"x_max":812,"o":"m 380 0 l 111 0 l 111 977 l 812 977 l 812 852 l 380 852 l 380 550 l 713 550 l 713 426 l 380 426 l 380 0 z "},"G":{"ha":1076,"x_min":55,"x_max":998,"o":"m 998 734 l 882 686 q 845 766 868 730 q 791 829 823 803 q 720 870 760 855 q 632 884 680 884 q 539 867 581 884 q 463 822 496 850 q 404 754 429 793 q 362 672 379 715 q 337 581 346 628 q 329 490 329 534 q 346 348 329 418 q 398 221 362 277 q 492 130 435 165 q 632 95 550 95 q 702 115 677 95 q 727 185 727 135 l 727 485 l 996 485 l 996 0 l 918 0 l 871 77 q 727 4 806 27 q 568 -20 649 -20 q 430 -2 496 -20 q 307 48 363 16 q 203 127 250 81 q 124 229 157 173 q 73 352 91 286 q 55 490 55 418 q 73 628 55 562 q 124 750 91 694 q 203 853 157 807 q 307 932 250 899 q 430 982 363 964 q 568 1000 496 1000 q 703 983 637 1000 q 826 934 769 967 q 927 851 883 901 q 998 734 972 802 z "},"H":{"ha":1116,"x_min":111,"x_max":1006,"o":"m 380 0 l 111 0 l 111 977 l 380 977 l 380 550 l 736 550 l 736 977 l 1006 977 l 1006 0 l 736 0 l 736 426 l 380 426 l 380 0 z "},"I":{"ha":490,"x_min":111,"x_max":380,"o":"m 380 0 l 111 0 l 111 977 l 380 977 l 380 0 z "},"J":{"ha":489,"x_min":-49,"x_max":383,"o":"m 383 307 q 359 115 383 212 q 292 -74 335 18 q 189 -244 249 -165 q 56 -382 128 -323 l -49 -319 q 22 -193 -8 -264 q 73 -47 53 -123 q 104 106 94 29 q 114 252 114 182 l 114 977 l 383 977 l 383 307 z "},"K":{"ha":1004,"x_min":111,"x_max":1006,"o":"m 380 0 l 111 0 l 111 977 l 380 977 l 380 511 q 613 724 505 607 q 799 977 721 840 l 983 977 q 818 748 911 854 q 616 551 725 642 l 1006 0 l 725 0 l 431 415 q 406 398 418 406 q 380 382 393 390 l 380 0 z "},"L":{"ha":828,"x_min":111,"x_max":812,"o":"m 812 0 l 111 0 l 111 977 l 380 977 l 380 124 l 812 124 l 812 0 z "},"M":{"ha":1387,"x_min":63,"x_max":1320,"o":"m 305 728 l 229 0 l 63 0 l 229 977 l 475 977 l 704 231 l 935 977 l 1181 977 l 1320 0 l 1046 0 l 965 709 l 774 0 l 528 0 l 305 728 z "},"N":{"ha":1114,"x_min":111,"x_max":1003,"o":"m 235 0 l 111 0 l 111 977 l 286 977 l 879 306 l 879 977 l 1003 977 l 1003 0 l 828 0 l 235 670 l 235 0 z "},"O":{"ha":1187,"x_min":57,"x_max":1130,"o":"m 1130 490 q 1089 277 1130 372 q 977 117 1048 182 q 806 16 905 51 q 593 -20 708 -20 q 380 16 479 -20 q 210 117 282 51 q 98 277 138 182 q 57 490 57 372 q 97 704 57 610 q 209 864 138 799 q 379 965 281 930 q 593 1000 477 1000 q 808 965 709 1000 q 978 864 906 930 q 1089 704 1049 799 q 1130 490 1130 610 m 856 490 q 852 581 856 534 q 837 672 848 628 q 807 755 826 716 q 760 822 789 793 q 689 868 730 851 q 593 884 648 884 q 496 868 538 884 q 426 823 455 851 q 378 755 397 794 q 350 673 360 717 q 335 582 339 629 q 331 490 331 535 q 335 398 331 445 q 350 308 339 351 q 379 225 361 264 q 427 158 398 186 q 497 112 456 129 q 593 95 538 95 q 687 112 647 95 q 756 159 727 130 q 805 228 785 189 q 835 310 824 267 q 851 400 846 354 q 856 490 856 446 z "},"P":{"ha":1016,"x_min":111,"x_max":986,"o":"m 380 0 l 111 0 l 111 977 l 638 977 q 769 958 707 977 q 880 903 832 940 q 957 810 928 866 q 986 679 986 754 q 972 590 986 631 q 935 513 959 548 q 878 451 911 479 q 807 404 846 423 q 725 375 768 385 q 638 365 682 365 l 380 365 l 380 0 m 713 679 q 666 827 713 773 q 522 881 618 881 l 380 881 l 380 457 l 522 457 q 609 474 573 457 q 669 520 646 490 q 703 590 692 550 q 713 679 713 631 z "},"Q":{"ha":1190,"x_min":58,"x_max":1131,"o":"m 1093 -260 l 838 -400 q 756 -320 797 -365 q 680 -227 716 -276 q 614 -124 644 -177 q 565 -19 585 -71 q 363 23 456 -14 q 202 125 270 60 q 97 283 135 191 q 58 490 58 375 q 99 704 58 610 q 211 864 139 799 q 380 965 282 930 q 595 1000 479 1000 q 809 965 711 1000 q 979 864 907 930 q 1091 704 1050 799 q 1131 490 1131 610 q 1101 305 1131 389 q 1018 158 1072 222 q 889 52 964 94 q 725 -7 814 10 q 808 -85 763 -47 q 900 -155 852 -122 q 997 -214 948 -187 q 1093 -260 1046 -241 m 857 490 q 853 581 857 534 q 838 672 849 628 q 809 755 827 716 q 761 822 790 793 q 691 868 732 851 q 595 884 650 884 q 498 868 539 884 q 427 823 456 851 q 380 755 398 794 q 351 673 361 717 q 336 582 340 629 q 332 490 332 535 q 336 398 332 445 q 351 308 340 351 q 381 225 362 264 q 429 158 399 186 q 499 112 458 129 q 595 95 540 95 q 688 112 648 95 q 758 159 728 130 q 806 228 787 189 q 837 310 825 267 q 852 400 848 354 q 857 490 857 446 z "},"R":{"ha":1002,"x_min":111,"x_max":986,"o":"m 380 0 l 111 0 l 111 977 l 591 977 q 722 961 659 977 q 833 910 785 945 q 910 822 882 876 q 939 690 939 768 q 914 577 939 630 q 846 482 888 524 q 749 413 804 440 q 635 376 694 385 q 690 292 661 332 q 748 217 719 252 q 807 152 778 182 q 863 98 836 123 q 986 0 925 41 l 650 0 q 573 93 610 39 q 510 207 542 139 q 462 365 479 275 l 380 365 l 380 0 m 666 690 q 618 835 666 789 q 475 881 570 881 l 380 881 l 380 457 l 475 457 q 562 476 526 457 q 621 528 598 496 q 655 602 644 560 q 666 690 666 644 z "},"S":{"ha":968,"x_min":52,"x_max":911,"o":"m 911 298 q 895 187 911 235 q 850 104 879 139 q 782 45 821 68 q 696 7 743 21 q 598 -14 650 -7 q 492 -20 546 -20 q 362 -9 422 -20 q 250 24 302 1 q 149 83 197 47 q 52 170 100 119 l 191 311 q 243 224 210 264 q 316 156 276 184 q 398 111 355 127 q 479 95 441 95 q 563 101 524 95 q 631 123 602 108 q 677 162 661 138 q 694 224 694 187 q 681 273 694 253 q 647 308 668 294 q 600 333 627 323 q 546 350 574 343 q 492 363 519 357 q 446 375 466 369 q 362 400 406 387 q 277 430 319 413 q 197 469 235 447 q 131 521 159 491 q 85 591 102 551 q 68 682 68 631 q 84 792 68 744 q 127 875 99 840 q 193 934 155 910 q 276 973 231 958 q 373 994 321 987 q 477 1000 424 1000 q 611 987 551 1000 q 722 948 671 973 q 815 888 772 923 q 895 810 857 853 l 756 670 q 711 758 740 719 q 647 826 682 798 q 573 869 612 854 q 498 884 534 884 q 412 878 452 884 q 345 857 373 871 q 301 818 317 842 q 286 756 286 793 q 297 707 286 727 q 328 672 309 686 q 372 649 347 658 q 422 633 396 640 q 474 621 448 626 q 520 610 499 616 q 606 585 561 598 q 694 555 650 572 q 777 515 737 538 q 846 462 816 493 q 893 391 876 431 q 911 298 911 351 z "},"T":{"ha":855,"x_min":27,"x_max":828,"o":"m 562 0 l 293 0 l 293 852 l 27 852 l 27 977 l 828 977 l 828 852 l 562 852 l 562 0 z "},"U":{"ha":1105,"x_min":64,"x_max":1006,"o":"m 397 977 q 365 863 378 922 q 342 746 351 804 q 329 630 334 687 q 325 522 325 573 q 325 438 325 485 q 331 344 326 392 q 347 250 336 296 q 381 168 359 204 q 440 111 404 132 q 528 89 475 89 q 609 105 575 89 q 666 148 642 121 q 703 210 689 175 q 725 284 717 245 q 735 362 732 323 q 737 438 737 402 l 737 977 l 1006 977 l 1006 480 q 972 282 1006 374 q 877 123 939 191 q 728 17 815 56 q 534 -21 640 -21 q 397 0 460 -21 q 282 57 334 20 q 188 143 229 93 q 120 252 147 193 q 78 376 92 311 q 65 509 64 441 l 65 522 q 76 634 66 576 q 103 751 86 692 q 145 866 121 809 q 199 977 170 924 l 397 977 z "},"V":{"ha":969,"x_min":5,"x_max":962,"o":"m 616 0 l 370 0 l 5 977 l 280 977 l 551 191 l 795 977 l 962 977 l 616 0 z "},"W":{"ha":1395,"x_min":39,"x_max":1367,"o":"m 542 0 l 296 0 l 39 977 l 314 977 l 476 283 l 620 977 l 867 977 l 1024 266 l 1201 977 l 1367 977 l 1083 0 l 836 0 l 699 624 l 542 0 z "},"X":{"ha":943,"x_min":8,"x_max":937,"o":"m 937 0 l 662 0 l 433 342 l 198 0 l 8 0 l 361 449 l 8 977 l 283 977 l 505 645 l 747 977 l 937 977 l 576 538 l 937 0 z "},"Y":{"ha":901,"x_min":-1,"x_max":903,"o":"m 903 977 l 587 410 l 587 0 l 318 0 l 318 395 l -1 977 l 273 977 l 486 486 l 713 977 l 903 977 z "},"Z":{"ha":941,"x_min":61,"x_max":880,"o":"m 880 0 l 62 0 l 62 125 l 61 125 l 572 852 l 62 852 l 62 977 l 880 977 l 880 852 l 370 125 l 880 125 l 880 0 z "},"[":{"ha":519,"x_min":109,"x_max":458,"o":"m 458 -139 l 109 -139 l 109 1111 l 458 1111 l 458 977 l 344 977 l 344 -5 l 458 -5 l 458 -139 z "},"\\":{"ha":659,"x_min":35,"x_max":624,"o":"m 624 0 l 395 0 l 35 978 l 264 978 l 624 0 z "},"]":{"ha":518,"x_min":61,"x_max":410,"o":"m 410 -139 l 61 -139 l 61 -5 l 174 -5 l 174 977 l 61 977 l 61 1111 l 410 1111 l 410 -139 z "},"^":{"ha":483,"x_min":0,"x_max":483,"o":"m 483 555 l 273 555 l 205 791 l 197 791 l 119 555 l 0 555 l 147 972 l 337 972 l 483 555 z "},"_":{"ha":979,"x_min":206,"x_max":772,"o":"m 772 -229 l 206 -229 l 206 -111 l 772 -111 l 772 -229 z "},"`":{"ha":350,"x_min":0,"x_max":350,"o":"m 350 736 l 214 736 l 0 977 l 215 977 l 350 736 z "},"a":{"ha":980,"x_min":52,"x_max":884,"o":"m 884 0 l 655 0 l 655 94 q 557 11 614 38 q 431 -16 500 -16 q 271 16 342 -16 q 152 103 201 48 q 77 233 103 159 q 52 393 52 308 q 77 553 52 479 q 152 683 103 628 q 271 770 201 739 q 431 802 342 802 q 518 789 477 802 q 593 750 559 775 q 653 691 627 726 q 694 613 680 656 l 796 783 l 884 783 l 884 0 m 654 393 q 651 458 654 424 q 640 525 648 492 q 620 588 633 558 q 586 642 606 618 q 536 679 565 665 q 468 692 507 692 q 401 679 429 692 q 352 641 372 665 q 318 587 332 618 q 298 524 305 557 q 287 457 290 490 q 284 393 284 423 q 287 330 284 363 q 298 262 290 296 q 318 199 305 229 q 352 145 332 168 q 401 107 372 121 q 468 94 429 94 q 531 108 503 94 q 579 147 558 123 q 614 203 600 172 q 637 267 628 234 q 650 333 646 300 q 654 393 654 366 z "},"b":{"ha":981,"x_min":96,"x_max":928,"o":"m 928 391 q 903 231 928 305 q 828 101 877 156 q 709 14 779 45 q 549 -18 638 -18 q 462 -5 503 -18 q 387 34 421 9 q 327 93 353 58 q 286 170 300 127 l 184 0 l 96 0 l 96 1072 l 325 1072 l 325 690 q 423 772 366 746 q 549 799 480 799 q 709 767 638 799 q 828 680 779 735 q 903 551 877 625 q 928 391 928 476 m 696 391 q 693 454 696 420 q 682 521 690 488 q 662 585 675 554 q 628 638 648 615 q 579 676 608 662 q 512 690 551 690 q 449 675 477 690 q 401 636 422 661 q 366 581 380 612 q 343 516 352 549 q 330 450 334 483 q 326 391 326 418 q 329 326 326 360 q 340 259 332 292 q 360 195 347 225 q 394 141 374 165 q 444 104 415 118 q 512 91 473 91 q 579 105 550 91 q 628 142 608 119 q 662 196 648 165 q 682 260 675 227 q 693 327 690 294 q 696 391 696 361 z "},"c":{"ha":859,"x_min":50,"x_max":819,"o":"m 819 589 l 720 550 q 640 665 696 625 q 507 705 585 705 q 432 691 465 705 q 374 655 399 678 q 332 602 349 632 q 304 536 315 571 q 288 465 293 502 q 283 393 283 428 q 288 318 283 356 q 301 245 292 280 q 328 180 311 210 q 369 127 344 150 q 428 92 393 105 q 507 79 462 79 q 575 90 543 79 q 635 121 608 101 q 683 168 662 140 q 716 228 704 195 l 816 191 q 756 99 793 138 q 673 34 720 60 q 572 -3 626 9 q 464 -16 519 -16 q 299 15 375 -16 q 168 99 223 45 q 81 229 113 154 q 50 393 50 304 q 81 559 50 484 q 167 688 112 634 q 298 772 222 743 q 464 802 374 802 q 575 790 521 802 q 676 751 629 777 q 759 685 722 725 q 819 589 796 645 z "},"d":{"ha":981,"x_min":52,"x_max":885,"o":"m 885 0 l 797 0 l 695 170 q 654 93 680 127 q 594 34 628 58 q 518 -5 559 9 q 432 -18 477 -18 q 272 14 342 -18 q 153 101 201 45 q 78 231 104 156 q 52 391 52 305 q 78 551 52 476 q 153 680 104 625 q 272 767 201 735 q 432 799 342 799 q 558 772 500 799 q 656 690 615 746 l 656 1072 l 885 1072 l 885 0 m 654 391 q 650 450 654 418 q 637 516 646 483 q 614 581 629 549 q 579 636 600 612 q 531 675 559 661 q 469 690 504 690 q 401 676 430 690 q 353 638 373 662 q 319 585 332 615 q 298 521 306 554 q 288 454 291 488 q 285 391 285 420 q 288 327 285 361 q 298 260 291 294 q 319 196 306 227 q 353 142 332 165 q 401 105 373 119 q 469 91 430 91 q 536 104 507 91 q 586 141 566 118 q 620 195 607 165 q 641 259 633 225 q 651 326 648 292 q 654 391 654 360 z "},"e":{"ha":897,"x_min":50,"x_max":849,"o":"m 284 372 q 368 357 326 362 q 453 351 410 351 q 536 360 498 351 q 603 388 574 368 q 647 441 631 408 q 663 524 663 475 q 652 597 663 564 q 620 654 642 631 q 568 691 599 678 q 495 705 536 705 q 426 690 456 705 q 371 652 395 676 q 331 596 348 628 q 304 530 315 564 q 288 460 293 495 q 283 393 283 425 q 283 382 283 388 q 284 372 283 377 m 849 526 q 833 440 849 478 q 791 374 818 403 q 729 326 764 346 q 654 294 694 307 q 571 276 614 281 q 489 271 529 271 q 389 278 438 271 q 291 300 339 285 q 315 215 298 256 q 358 145 331 175 q 425 97 385 115 q 519 79 465 79 q 587 90 555 79 q 647 121 620 101 q 695 168 674 140 q 728 228 715 195 l 827 191 q 766 99 805 138 q 678 34 727 60 q 573 -3 629 9 q 464 -16 518 -16 q 298 15 374 -16 q 168 99 222 45 q 81 229 113 153 q 50 393 50 304 q 81 558 50 483 q 168 688 113 633 q 298 772 222 742 q 464 802 374 802 q 553 796 507 802 q 641 777 598 790 q 722 743 684 764 q 788 691 760 722 q 832 619 816 660 q 849 526 849 578 z "},"f":{"ha":677,"x_min":18,"x_max":827,"o":"m 827 1105 l 698 891 q 688 950 696 917 q 664 1014 681 984 q 616 1064 646 1044 q 539 1085 586 1085 q 462 1066 491 1085 q 417 1009 433 1047 q 396 915 401 971 q 391 784 391 859 l 628 784 l 628 693 l 391 693 l 391 0 l 161 0 l 161 693 l 18 693 l 18 784 l 161 784 q 184 969 161 892 q 254 1096 207 1046 q 371 1170 300 1146 q 537 1193 442 1193 q 639 1185 594 1193 q 719 1165 684 1177 q 781 1137 754 1152 q 827 1105 807 1121 z "},"g":{"ha":980,"x_min":52,"x_max":884,"o":"m 884 94 q 857 -82 884 1 q 776 -227 829 -165 q 646 -325 723 -289 q 471 -361 569 -361 q 361 -349 416 -361 q 257 -312 306 -337 q 169 -247 208 -286 q 107 -155 130 -208 l 206 -118 q 240 -179 219 -151 q 288 -227 260 -207 q 347 -258 315 -247 q 416 -269 380 -269 q 529 -241 484 -269 q 603 -169 575 -214 q 643 -67 631 -124 q 655 47 655 -11 l 655 94 q 557 11 614 38 q 431 -16 500 -16 q 271 16 342 -16 q 152 103 201 48 q 77 233 103 159 q 52 393 52 308 q 77 553 52 479 q 152 683 103 628 q 271 770 201 739 q 431 802 342 802 q 518 789 477 802 q 593 750 559 775 q 653 691 627 726 q 694 613 680 656 l 796 783 l 884 783 l 884 94 m 654 393 q 651 458 654 424 q 640 525 648 492 q 620 588 633 558 q 586 642 606 618 q 536 679 565 665 q 468 692 507 692 q 401 679 429 692 q 352 641 372 665 q 318 587 332 618 q 298 524 305 557 q 287 457 290 490 q 284 393 284 423 q 287 330 284 363 q 298 262 290 296 q 318 199 305 229 q 352 145 332 168 q 401 107 372 121 q 468 94 429 94 q 531 108 503 94 q 579 147 558 123 q 614 203 600 172 q 637 267 628 234 q 650 333 646 300 q 654 393 654 366 z "},"h":{"ha":952,"x_min":96,"x_max":897,"o":"m 897 449 q 877 283 897 370 q 823 115 858 197 q 741 -41 789 32 q 635 -167 692 -114 l 549 -120 q 583 -44 567 -86 q 613 45 600 -2 q 636 142 626 92 q 654 242 647 193 q 665 337 661 291 q 669 424 669 384 q 667 480 669 450 q 658 541 665 511 q 641 599 652 571 q 612 648 630 627 q 569 682 594 669 q 509 694 543 694 q 448 679 475 694 q 401 639 422 664 q 367 583 381 614 q 343 517 352 551 q 330 451 334 484 q 326 393 326 418 l 326 0 l 96 0 l 96 1072 l 325 1072 l 325 668 q 433 767 369 732 q 575 802 497 802 q 717 776 656 802 q 817 702 777 749 q 877 590 857 655 q 897 449 897 526 z "},"i":{"ha":422,"x_min":86,"x_max":336,"o":"m 336 972 q 327 924 336 947 q 300 884 317 901 q 260 857 283 867 q 211 847 237 847 q 162 857 185 847 q 123 884 140 867 q 96 924 106 901 q 86 972 86 947 q 96 1021 86 998 q 123 1061 106 1044 q 162 1087 140 1078 q 211 1097 185 1097 q 260 1087 237 1097 q 300 1061 283 1078 q 327 1021 317 1044 q 336 972 336 998 m 326 0 l 96 0 l 96 783 l 326 783 l 326 0 z "},"j":{"ha":420,"x_min":-41,"x_max":338,"o":"m 338 972 q 328 924 338 947 q 301 884 318 901 q 261 857 284 867 q 213 847 239 847 q 164 857 187 847 q 124 884 141 867 q 97 924 107 901 q 87 972 87 947 q 97 1021 87 998 q 124 1061 107 1044 q 164 1087 141 1078 q 213 1097 187 1097 q 261 1087 239 1097 q 301 1061 284 1078 q 328 1021 318 1044 q 338 972 338 998 m 328 227 q 307 63 328 146 q 250 -98 287 -20 q 162 -244 213 -176 q 49 -361 111 -312 l -41 -307 q 20 -200 -6 -260 q 63 -75 45 -140 q 89 55 80 -11 q 98 179 98 120 l 98 783 l 328 783 l 328 227 z "},"k":{"ha":888,"x_min":96,"x_max":865,"o":"m 325 0 l 96 0 l 96 1072 l 325 1072 l 325 368 q 436 458 381 409 q 540 561 490 507 q 632 671 589 614 q 706 783 674 727 l 862 783 q 749 624 814 703 q 608 471 684 544 l 865 0 l 612 0 l 429 327 q 325 263 378 292 l 325 0 z "},"l":{"ha":420,"x_min":96,"x_max":325,"o":"m 325 0 l 96 0 l 96 1144 l 184 1144 l 325 906 l 325 0 z "},"m":{"ha":1364,"x_min":96,"x_max":1308,"o":"m 1308 457 q 1289 289 1308 376 q 1235 118 1270 201 q 1153 -39 1201 35 q 1046 -167 1105 -113 l 960 -120 q 996 -41 979 -85 q 1025 52 1012 3 q 1049 153 1039 101 q 1066 255 1059 204 q 1077 355 1074 307 q 1080 445 1080 403 q 1079 496 1080 469 q 1073 552 1078 524 q 1060 605 1069 580 q 1036 651 1051 631 q 998 683 1021 671 q 943 694 975 694 q 890 678 912 694 q 852 635 868 661 q 828 575 837 608 q 814 508 819 542 q 807 444 809 475 q 806 393 806 414 l 806 0 l 577 0 l 577 365 q 578 422 577 389 q 576 492 578 456 q 567 565 574 529 q 547 630 561 602 q 509 676 533 659 q 450 694 486 694 q 398 677 419 694 q 364 634 378 661 q 342 573 350 607 q 331 506 334 540 q 326 443 327 473 q 326 393 326 412 l 326 0 l 96 0 l 96 783 l 184 783 l 268 601 q 358 749 296 696 q 521 802 419 802 q 673 764 612 802 q 768 641 733 726 q 811 708 787 678 q 865 759 836 738 q 930 791 895 780 q 1010 802 966 802 q 1146 776 1090 802 q 1239 704 1203 750 q 1291 594 1275 658 q 1308 457 1308 531 z "},"n":{"ha":952,"x_min":96,"x_max":897,"o":"m 897 449 q 877 283 897 370 q 823 115 858 197 q 741 -41 789 32 q 635 -167 692 -114 l 549 -120 q 583 -44 567 -86 q 613 45 600 -2 q 636 142 626 92 q 654 242 647 193 q 665 337 661 291 q 669 424 669 384 q 667 480 669 450 q 658 541 665 511 q 641 599 652 571 q 612 648 630 627 q 569 682 594 669 q 509 694 543 694 q 448 679 475 694 q 401 639 422 664 q 367 583 381 614 q 343 517 352 551 q 330 451 334 484 q 326 393 326 418 l 326 0 l 96 0 l 96 783 l 184 783 l 289 601 q 336 684 308 646 q 401 747 365 721 q 480 788 437 774 q 575 802 524 802 q 717 776 656 802 q 817 702 777 749 q 877 590 857 655 q 897 449 897 526 z "},"o":{"ha":972,"x_min":49,"x_max":923,"o":"m 923 393 q 907 279 923 332 q 862 180 890 225 q 792 98 833 134 q 703 37 751 62 q 599 -2 654 12 q 486 -16 544 -16 q 372 -2 427 -16 q 269 37 317 12 q 180 98 220 62 q 110 180 139 134 q 65 279 81 225 q 49 393 49 333 q 65 508 49 454 q 110 607 81 562 q 180 689 139 652 q 269 750 220 725 q 372 789 317 775 q 486 802 427 802 q 599 789 544 802 q 703 750 654 775 q 792 689 751 725 q 862 607 833 652 q 907 508 890 562 q 923 393 923 454 m 690 393 q 686 462 690 426 q 673 533 682 498 q 649 601 665 568 q 612 657 634 633 q 558 695 589 681 q 486 710 527 710 q 416 695 446 710 q 362 655 385 680 q 325 598 340 631 q 300 531 309 566 q 286 460 290 496 q 282 393 282 425 q 286 327 282 362 q 300 256 290 291 q 325 188 309 220 q 362 131 340 156 q 416 92 385 106 q 486 77 446 77 q 557 91 526 77 q 611 130 589 106 q 649 186 634 155 q 673 254 664 218 q 686 325 682 289 q 690 393 690 361 z "},"p":{"ha":980,"x_min":96,"x_max":928,"o":"m 928 393 q 903 233 928 308 q 828 103 877 159 q 709 16 779 48 q 549 -16 638 -16 q 423 11 480 -16 q 325 94 366 38 l 325 -361 l 96 -361 l 96 783 l 184 783 l 286 613 q 327 691 300 656 q 387 750 353 726 q 462 789 421 775 q 549 802 503 802 q 709 770 638 802 q 828 683 779 739 q 903 553 877 628 q 928 393 928 479 m 696 393 q 693 457 696 423 q 682 524 690 490 q 662 587 675 557 q 628 641 648 618 q 579 679 608 665 q 512 692 550 692 q 444 679 473 692 q 394 642 415 665 q 360 588 374 618 q 340 525 347 558 q 329 458 332 492 q 326 393 326 424 q 330 333 326 366 q 343 267 334 300 q 366 203 352 234 q 401 147 380 172 q 449 108 422 123 q 512 94 477 94 q 579 107 551 94 q 628 145 608 121 q 662 199 648 168 q 682 262 675 229 q 693 330 690 296 q 696 393 696 363 z "},"q":{"ha":980,"x_min":52,"x_max":884,"o":"m 884 -361 l 655 -361 l 655 94 q 557 11 614 38 q 431 -16 500 -16 q 271 16 342 -16 q 152 103 201 48 q 77 233 103 159 q 52 393 52 308 q 77 553 52 479 q 152 683 103 628 q 271 770 201 739 q 431 802 342 802 q 518 789 477 802 q 593 750 559 775 q 653 691 627 726 q 694 613 680 656 l 796 783 l 884 783 l 884 -361 m 654 393 q 651 458 654 424 q 640 525 648 492 q 620 588 633 558 q 586 642 606 618 q 536 679 565 665 q 468 692 507 692 q 401 679 429 692 q 352 641 372 665 q 318 587 332 618 q 298 524 305 557 q 287 457 290 490 q 284 393 284 423 q 287 330 284 363 q 298 262 290 296 q 318 199 305 229 q 352 145 332 168 q 401 107 372 121 q 468 94 429 94 q 531 108 503 94 q 579 147 558 123 q 614 203 600 172 q 637 267 628 234 q 650 333 646 300 q 654 393 654 366 z "},"r":{"ha":762,"x_min":96,"x_max":762,"o":"m 762 714 l 633 500 q 612 562 625 528 q 580 625 599 595 q 534 674 561 654 q 473 694 508 694 q 418 678 441 694 q 378 636 395 662 q 352 577 362 610 q 335 510 341 544 q 328 446 330 477 q 326 393 326 415 l 326 0 l 96 0 l 96 783 l 184 783 l 277 601 q 320 682 296 645 q 376 746 345 719 q 449 787 408 772 q 540 802 489 802 q 599 798 566 802 q 663 783 631 793 q 720 755 694 772 q 762 714 747 739 z "},"s":{"ha":819,"x_min":46,"x_max":770,"o":"m 770 250 q 755 159 770 199 q 714 89 740 119 q 653 40 688 60 q 577 7 618 20 q 493 -10 537 -5 q 406 -16 449 -16 q 302 -8 347 -16 q 217 16 258 -1 q 136 59 176 33 q 46 123 96 85 l 180 233 q 228 170 198 198 q 291 121 258 142 q 354 90 323 101 q 404 79 385 79 q 439 80 419 79 q 479 84 458 81 q 519 94 499 87 q 554 110 538 100 q 578 137 569 121 q 587 175 587 153 q 575 215 587 198 q 545 245 564 233 q 501 267 526 258 q 452 283 477 276 q 404 295 427 290 q 364 304 381 300 q 298 322 333 313 q 230 343 264 332 q 165 372 196 355 q 111 411 134 388 q 74 464 87 433 q 60 536 60 495 q 90 664 60 612 q 170 746 120 715 q 282 789 219 777 q 410 802 345 802 q 505 793 455 802 q 601 766 554 784 q 688 722 648 748 q 756 663 729 696 l 623 553 q 584 623 608 594 q 531 671 559 652 q 474 699 503 690 q 419 707 444 707 q 364 705 395 707 q 307 694 334 703 q 261 665 280 684 q 243 612 243 646 q 254 570 243 587 q 283 540 265 553 q 325 519 302 528 q 373 504 349 511 q 420 493 397 498 q 462 483 444 488 q 528 465 493 474 q 597 444 563 456 q 662 416 631 432 q 718 377 694 400 q 755 323 741 354 q 770 250 770 292 z "},"t":{"ha":639,"x_min":18,"x_max":628,"o":"m 391 0 l 161 0 l 161 692 l 18 692 l 18 783 l 161 783 l 161 1072 l 391 1072 l 391 783 l 628 783 l 628 692 l 391 692 l 391 0 z "},"u":{"ha":952,"x_min":56,"x_max":857,"o":"m 56 335 q 65 446 56 389 q 91 562 74 504 q 133 675 109 619 q 188 783 157 732 l 355 783 q 325 677 338 732 q 303 567 312 622 q 289 458 294 511 q 283 360 283 406 q 286 303 283 334 q 294 243 288 273 q 312 185 300 213 q 340 136 323 157 q 384 102 358 115 q 444 90 409 90 q 504 105 477 90 q 551 145 531 120 q 586 201 572 170 q 609 267 600 233 q 623 333 618 300 q 627 391 627 365 l 627 783 l 857 783 l 857 0 l 768 0 l 663 182 q 615 100 644 137 q 551 37 587 63 q 472 -4 515 10 q 377 -18 428 -18 q 235 8 296 -18 q 135 81 175 35 q 75 193 95 128 q 56 335 56 258 z "},"v":{"ha":808,"x_min":7,"x_max":807,"o":"m 498 0 l 292 0 l 7 783 l 237 783 l 446 159 l 648 783 l 807 783 l 498 0 z "},"w":{"ha":1173,"x_min":35,"x_max":1144,"o":"m 455 0 l 249 0 l 35 783 l 264 783 l 398 234 l 510 783 l 716 783 l 853 219 l 985 783 l 1144 783 l 907 0 l 701 0 l 585 476 l 455 0 z "},"x":{"ha":798,"x_min":12,"x_max":788,"o":"m 788 0 l 559 0 l 367 275 l 171 0 l 12 0 l 307 361 l 12 783 l 241 783 l 427 517 l 629 783 l 788 783 l 487 432 l 788 0 z "},"y":{"ha":797,"x_min":-3,"x_max":797,"o":"m 797 783 l 512 94 q 403 -139 463 -24 q 273 -361 343 -255 l 184 -307 q 224 -237 201 -277 q 269 -154 247 -197 q 311 -70 292 -111 q 340 7 330 -28 l -3 783 l 227 783 l 459 254 l 638 783 l 797 783 z "},"z":{"ha":768,"x_min":53,"x_max":716,"o":"m 716 0 l 53 0 l 53 91 l 53 91 l 463 692 l 53 692 l 53 783 l 716 783 l 716 692 l 306 91 l 716 91 l 716 0 z "},"{":{"ha":601,"x_min":44,"x_max":554,"o":"m 554 -140 l 439 -140 q 306 -129 357 -140 q 226 -86 255 -117 q 187 -4 197 -56 q 176 129 176 48 l 176 241 q 166 304 176 276 q 139 354 157 332 q 98 395 122 377 q 44 427 73 412 l 44 534 q 98 566 73 549 q 139 606 122 584 q 166 656 157 629 q 176 718 176 684 l 176 840 q 187 972 176 920 q 226 1055 197 1025 q 306 1096 255 1084 q 439 1108 357 1108 l 554 1108 l 554 991 q 488 976 515 983 q 444 955 461 969 q 418 916 426 941 q 410 846 410 890 l 410 747 q 398 644 410 694 q 359 558 386 595 q 290 499 333 521 q 186 481 248 478 q 293 459 250 479 q 362 403 336 439 q 399 319 388 368 q 410 214 410 271 l 410 122 q 416 43 410 71 q 438 1 422 15 q 483 -18 454 -13 q 554 -29 511 -23 l 554 -140 z "},"|":{"ha":419,"x_min":109,"x_max":311,"o":"m 311 -139 l 109 -139 l 109 1111 l 311 1111 l 311 -139 z "},"}":{"ha":600,"x_min":47,"x_max":556,"o":"m 556 427 q 503 395 527 412 q 461 354 478 377 q 434 304 444 332 q 425 241 425 276 l 425 129 q 414 -4 425 48 q 374 -86 404 -56 q 294 -129 345 -117 q 162 -140 243 -140 l 47 -140 l 47 -29 q 118 -18 90 -23 q 163 1 146 -13 q 185 43 179 15 q 191 122 191 71 l 191 214 q 202 319 191 271 q 238 403 212 368 q 307 459 264 439 q 414 481 350 479 q 310 499 353 478 q 241 558 267 521 q 203 644 214 595 q 191 747 191 694 l 191 846 q 183 916 191 890 q 157 955 175 941 q 113 976 140 969 q 47 991 85 983 l 47 1108 l 162 1108 q 294 1096 243 1108 q 374 1055 345 1084 q 414 972 404 1025 q 425 840 425 920 l 425 718 q 434 656 425 684 q 461 606 444 629 q 503 566 479 584 q 556 534 527 549 l 556 427 z "},"~":{"ha":746,"x_min":85,"x_max":665,"o":"m 665 589 q 654 511 665 552 q 622 435 644 470 q 567 378 600 401 q 490 355 534 355 q 411 367 446 355 q 348 392 376 378 q 297 417 320 406 q 254 428 274 428 q 231 421 240 428 q 216 403 222 414 q 208 379 211 392 q 205 355 205 366 l 85 355 q 96 435 85 394 q 129 511 106 477 q 185 567 151 545 q 264 589 218 589 q 339 578 304 589 q 401 554 373 567 q 453 530 430 541 q 493 519 475 519 q 515 526 506 519 q 530 544 524 533 q 538 566 536 554 q 542 589 541 578 l 665 589 z "},"†":{"ha":606,"x_min":45,"x_max":559,"o":"m 390 -102 l 221 -102 l 221 692 l 45 692 l 45 783 l 221 783 l 221 1072 l 390 1072 l 390 783 l 559 783 l 559 692 l 390 692 l 390 -102 z "},"°":{"ha":433,"x_min":63,"x_max":370,"o":"m 370 840 q 357 780 370 808 q 325 731 345 752 q 276 699 304 711 q 216 686 248 686 q 156 699 184 686 q 107 731 128 711 q 75 780 87 752 q 63 840 63 808 q 75 900 63 871 q 107 949 87 928 q 156 982 128 970 q 216 994 184 994 q 276 982 248 994 q 325 949 304 970 q 357 900 345 928 q 370 840 370 872 m 273 840 q 256 880 273 863 q 216 897 239 897 q 176 880 193 897 q 160 840 160 863 q 176 800 160 817 q 216 783 192 783 q 256 800 239 783 q 273 840 273 817 z "},"¢":{"ha":703,"x_min":46,"x_max":650,"o":"m 273 286 l 391 718 q 317 687 349 712 q 263 627 285 663 q 232 550 242 592 q 221 467 221 508 q 233 370 221 418 q 273 286 245 322 m 557 996 l 496 772 q 588 716 547 753 q 650 624 629 680 l 575 593 q 538 663 563 633 q 479 708 514 693 l 347 227 q 416 215 378 215 q 468 224 444 215 q 513 250 493 233 q 549 288 534 266 q 573 336 564 310 l 648 306 q 603 234 631 264 q 537 182 574 203 q 459 152 500 162 q 374 142 417 142 q 349 142 361 142 q 325 145 337 143 l 280 -20 l 190 -20 l 241 168 q 161 216 197 186 q 100 285 125 246 q 60 370 75 323 q 46 467 46 416 q 72 596 46 536 q 141 700 97 656 q 245 768 185 743 q 374 793 305 793 q 393 793 384 793 q 411 792 401 793 l 467 996 l 557 996 z "},"£":{"ha":791,"x_min":50,"x_max":719,"o":"m 611 404 l 368 404 l 368 201 l 713 201 l 713 101 l 152 101 l 152 404 l 50 404 l 50 504 l 152 504 l 152 544 q 176 698 152 630 q 243 813 199 766 q 349 885 287 860 q 487 909 411 909 q 521 907 501 909 q 564 899 541 904 q 610 888 587 895 q 654 874 633 882 q 692 857 675 866 q 719 840 709 848 l 615 668 q 598 717 609 690 q 573 768 588 744 q 537 807 557 791 q 488 823 516 823 q 427 802 450 823 q 390 743 403 781 q 372 654 376 705 q 368 544 368 604 l 368 504 l 611 504 l 611 404 z "},"§":{"ha":861,"x_min":65,"x_max":789,"o":"m 789 182 q 774 91 789 131 q 733 21 759 51 q 672 -28 707 -8 q 596 -60 637 -48 q 512 -78 555 -73 q 425 -83 468 -83 q 318 -75 364 -83 q 231 -50 272 -67 q 151 -7 191 -33 q 65 56 112 19 l 199 165 q 237 113 212 140 q 295 63 263 86 q 360 26 326 41 q 422 12 394 12 q 478 14 447 12 q 538 26 510 16 q 587 55 567 36 q 606 107 606 74 q 584 161 606 140 q 524 197 561 182 q 439 224 487 212 q 342 248 392 235 q 245 277 293 260 q 161 318 198 293 q 101 379 124 343 q 79 469 79 416 q 97 567 79 522 q 155 647 115 612 q 79 794 79 702 q 93 884 79 845 q 131 953 106 924 q 189 1003 155 983 q 261 1036 222 1023 q 343 1054 300 1048 q 429 1060 386 1060 q 521 1051 472 1060 q 617 1025 570 1042 q 706 981 665 1007 q 775 921 747 956 l 642 811 q 610 870 630 842 q 563 920 589 899 q 505 953 536 941 q 438 965 473 965 q 383 963 414 965 q 325 951 352 960 q 280 922 298 941 q 262 869 262 903 q 273 828 262 846 q 303 798 285 810 q 346 776 322 785 q 393 761 369 767 q 441 750 418 755 q 481 741 464 745 q 547 723 512 732 q 616 702 582 713 q 682 673 650 690 q 736 634 713 657 q 774 580 760 611 q 789 508 789 549 q 771 409 789 455 q 714 328 754 363 q 789 182 789 275 m 606 433 q 594 473 606 456 q 563 503 583 490 q 520 525 544 516 q 471 541 496 534 q 423 553 446 548 q 383 562 400 557 q 329 577 356 570 q 276 592 302 584 q 265 569 269 582 q 262 544 262 557 q 273 502 262 519 q 303 472 285 485 q 345 450 321 459 q 393 435 369 441 q 441 425 418 429 q 481 415 464 420 q 536 400 509 408 q 590 385 563 393 q 606 433 606 405 z "},"•":{"ha":492,"x_min":73,"x_max":419,"o":"m 419 465 q 406 398 419 429 q 369 343 392 366 q 314 306 345 319 q 246 292 282 292 q 179 306 210 292 q 124 343 147 319 q 87 398 100 366 q 73 465 73 429 q 87 533 73 501 q 124 588 100 564 q 179 625 147 611 q 246 638 210 638 q 314 625 282 638 q 369 588 345 611 q 406 533 392 564 q 419 465 419 501 z "},"¶":{"ha":1139,"x_min":45,"x_max":993,"o":"m 689 0 l 461 0 l 461 365 l 393 365 q 306 375 349 365 q 224 404 263 385 q 153 451 186 423 q 96 513 120 479 q 58 590 72 548 q 45 679 45 631 q 74 810 45 754 q 151 903 102 866 q 262 958 199 940 q 393 977 325 977 l 993 977 l 993 0 l 764 0 l 764 852 l 689 852 l 689 0 z "},"ß":{"ha":1242,"x_min":18,"x_max":1217,"o":"m 698 891 q 695 929 698 908 q 687 972 693 950 q 669 1014 680 994 q 640 1050 658 1034 q 598 1076 623 1066 q 539 1085 573 1085 q 474 1070 500 1085 q 432 1030 448 1055 q 407 974 415 1006 q 395 909 398 942 q 391 843 391 876 q 391 784 391 810 l 391 0 l 161 0 l 161 693 l 18 693 l 18 784 l 161 784 q 180 954 161 878 q 244 1083 199 1030 q 360 1164 288 1136 q 537 1193 432 1193 q 614 1188 574 1193 q 690 1173 653 1184 q 761 1142 728 1161 q 819 1093 794 1122 q 858 1021 844 1063 q 872 925 872 980 q 859 842 872 878 q 825 776 845 805 q 781 725 804 747 q 737 683 758 702 q 703 647 717 664 q 690 612 690 629 q 701 570 690 588 q 731 540 713 553 q 773 518 750 527 q 821 503 797 509 q 869 492 846 497 q 909 483 892 488 q 975 465 940 474 q 1044 444 1010 456 q 1109 415 1078 432 q 1164 376 1141 399 q 1202 322 1188 353 q 1217 250 1217 292 q 1202 159 1217 199 q 1161 89 1187 119 q 1100 40 1135 60 q 1024 7 1065 20 q 940 -10 983 -5 q 852 -16 896 -16 q 746 -7 792 -16 q 659 18 700 1 q 579 61 618 35 q 493 123 540 87 l 627 233 q 665 181 640 208 q 723 131 691 154 q 788 94 754 109 q 850 79 821 79 q 906 82 875 79 q 966 94 938 84 q 1015 123 995 104 q 1034 175 1034 142 q 1011 229 1034 208 q 952 265 989 250 q 867 292 915 280 q 770 316 820 303 q 673 345 721 328 q 589 386 626 361 q 529 447 552 411 q 507 536 507 484 q 515 602 507 574 q 536 650 523 629 q 567 687 550 671 q 602 717 585 703 q 637 747 620 732 q 668 783 654 763 q 690 829 682 803 q 698 891 698 855 z "},"®":{"ha":498,"x_min":69,"x_max":429,"o":"m 283 845 q 236 892 283 892 l 212 892 l 212 787 l 236 787 q 273 804 262 787 q 283 845 283 822 m 429 796 q 415 726 429 759 q 376 669 401 694 q 319 631 352 645 q 250 616 287 616 q 179 631 212 616 q 122 669 146 645 q 83 726 98 694 q 69 796 69 759 q 83 866 69 833 q 122 924 98 899 q 179 962 146 948 q 250 977 212 977 q 319 962 287 977 q 376 924 352 948 q 415 866 401 899 q 429 796 429 833 m 161 672 q 202 651 180 659 q 250 644 224 644 q 297 651 275 644 q 339 672 320 659 l 280 672 q 260 695 269 682 q 245 724 253 707 q 233 764 237 741 l 212 764 l 212 672 l 161 672 m 145 906 q 111 857 123 885 q 98 795 98 828 q 111 735 98 763 q 145 686 123 707 l 145 906 m 402 795 q 390 854 402 827 q 357 903 378 882 q 309 936 336 924 q 250 948 281 948 q 200 940 224 948 q 157 916 176 932 l 265 916 q 298 912 282 916 q 326 900 313 909 q 345 878 338 891 q 352 845 352 864 q 346 816 352 829 q 329 793 339 803 q 304 775 318 783 q 276 766 291 768 q 295 738 285 751 q 315 714 305 724 q 335 695 326 703 q 351 682 344 687 q 388 732 374 703 q 402 795 402 762 z "},"©":{"ha":509,"x_min":75,"x_max":435,"o":"m 435 492 q 420 422 435 455 q 382 365 406 389 q 325 326 357 340 q 255 312 292 312 q 185 326 218 312 q 127 365 152 340 q 89 422 103 389 q 75 492 75 455 q 89 563 75 530 q 127 620 103 595 q 185 659 152 644 q 255 673 218 673 q 325 659 292 673 q 382 620 357 644 q 420 563 406 595 q 435 492 435 530 m 408 492 q 396 551 408 523 q 363 599 384 578 q 314 632 342 620 q 255 644 286 644 q 196 632 223 644 q 148 599 168 620 q 115 551 127 578 q 103 492 103 523 q 115 432 103 460 q 148 384 127 405 q 196 351 168 363 q 255 339 223 339 q 314 351 286 339 q 363 384 342 363 q 396 432 384 405 q 408 492 408 460 m 364 552 l 335 540 q 312 575 328 562 q 273 589 296 589 q 239 580 254 589 q 216 557 225 571 q 201 525 206 543 q 197 491 197 508 q 201 456 197 473 q 214 424 205 438 q 238 401 223 410 q 273 393 252 393 q 310 406 294 393 q 334 439 326 420 l 363 428 q 320 379 350 395 q 256 363 290 363 q 206 373 229 363 q 165 400 182 383 q 138 441 148 418 q 128 491 128 464 q 138 542 128 518 q 165 582 148 565 q 206 609 182 599 q 256 618 229 618 q 321 602 291 618 q 364 552 351 586 z "},"™":{"ha":873,"x_min":77,"x_max":789,"o":"m 686 642 l 661 858 l 602 642 l 512 642 l 442 866 l 418 642 l 352 642 l 410 977 l 501 977 l 574 739 l 650 977 l 741 977 l 789 642 l 686 642 m 268 926 l 268 642 l 168 642 l 168 926 l 77 926 l 77 977 l 358 977 l 358 926 l 268 926 z "},"´":{"ha":350,"x_min":0,"x_max":350,"o":"m 350 977 l 135 736 l 0 736 l 134 977 l 350 977 z "},"¨":{"ha":456,"x_min":0,"x_max":456,"o":"m 456 852 q 448 814 456 832 q 427 782 440 795 q 395 761 413 768 q 355 753 376 753 q 317 761 335 753 q 285 782 298 768 q 263 814 271 795 q 256 852 256 832 q 263 891 256 873 q 285 923 271 909 q 317 944 298 937 q 355 952 335 952 q 395 944 376 952 q 427 923 413 937 q 448 891 440 909 q 456 852 456 873 m 200 852 q 192 814 200 832 q 171 782 184 795 q 139 761 157 768 q 100 753 121 753 q 61 761 79 753 q 29 782 43 768 q 8 814 16 795 q 0 852 0 832 q 8 891 0 873 q 29 923 16 909 q 61 944 43 937 q 100 952 79 952 q 139 944 121 952 q 171 923 157 937 q 192 891 184 909 q 200 852 200 873 z "},"≠":{"ha":718,"x_min":75,"x_max":642,"o":"m 556 827 l 496 667 l 642 667 l 642 542 l 450 542 l 413 443 l 642 443 l 642 318 l 367 318 l 309 162 l 161 162 l 219 318 l 75 318 l 75 443 l 265 443 l 302 542 l 75 542 l 75 667 l 349 667 l 408 827 l 556 827 z "},"Æ":{"ha":1540,"x_min":100,"x_max":1484,"o":"m 1484 0 l 907 0 q 831 -114 872 -62 q 744 -208 790 -167 l 643 -149 q 686 -62 667 -109 q 721 37 705 -15 q 748 142 736 88 q 766 250 759 197 q 778 356 774 304 q 781 454 781 408 q 781 537 781 491 q 774 632 780 584 q 756 726 769 680 q 721 808 744 772 q 662 865 698 844 q 573 887 626 887 q 493 871 526 887 q 437 828 460 855 q 401 766 414 802 q 380 692 387 731 q 371 613 373 653 q 369 538 369 574 l 369 349 l 661 349 l 661 237 l 369 237 l 369 0 l 100 0 l 100 496 q 134 691 100 603 q 230 843 168 779 q 379 941 292 906 q 573 977 466 977 l 1484 977 l 1484 852 l 1052 852 l 1052 550 l 1385 550 l 1385 426 l 1052 426 l 1052 125 l 1484 125 l 1484 0 z "},"Ø":{"ha":1187,"x_min":57,"x_max":1130,"o":"m 350 309 l 781 798 q 705 861 751 838 q 593 884 660 884 q 496 868 538 884 q 426 823 455 851 q 378 755 397 794 q 350 673 360 717 q 335 582 339 629 q 331 490 331 535 q 335 399 331 445 q 350 309 339 353 m 836 677 l 403 186 q 479 120 433 145 q 593 95 526 95 q 687 112 647 95 q 756 159 727 130 q 805 228 785 189 q 835 310 824 267 q 851 400 846 354 q 856 490 856 446 q 851 584 856 536 q 836 677 847 632 m 1099 977 l 990 852 q 1093 696 1056 787 q 1130 490 1130 605 q 1089 277 1130 372 q 977 117 1048 182 q 806 16 905 51 q 593 -20 708 -20 q 430 0 507 -20 q 290 58 354 20 l 239 0 l 78 0 l 195 132 q 93 288 130 198 q 57 490 57 378 q 97 704 57 610 q 209 864 138 799 q 379 965 281 930 q 593 1000 477 1000 q 754 981 679 1000 q 893 926 829 962 l 938 977 l 1099 977 z "},"±":{"ha":733,"x_min":83,"x_max":650,"o":"m 650 427 l 467 427 l 467 218 l 266 218 l 266 427 l 83 427 l 83 551 l 266 551 l 266 750 l 467 750 l 467 551 l 650 551 l 650 427 m 650 0 l 83 0 l 83 125 l 650 125 l 650 0 z "},"¥":{"ha":800,"x_min":39,"x_max":762,"o":"m 682 357 l 510 357 l 510 98 l 294 98 l 294 357 l 119 357 l 119 457 l 271 457 l 39 879 l 258 879 l 428 486 l 610 879 l 762 879 l 528 457 l 682 457 l 682 357 z "},"µ":{"ha":1003,"x_min":123,"x_max":923,"o":"m 352 -269 l 123 -269 l 123 783 l 352 783 l 352 325 q 357 241 352 283 q 379 165 363 199 q 427 111 396 132 q 509 90 458 90 q 570 105 543 90 q 617 145 597 120 q 652 201 637 170 q 676 267 667 233 q 689 333 685 300 q 693 391 693 365 l 693 783 l 923 783 l 923 0 l 835 0 l 730 182 q 685 99 710 137 q 629 35 661 62 q 561 -5 598 9 q 477 -18 523 -20 q 437 -14 457 -18 q 400 -4 417 -9 q 370 8 383 2 q 352 20 357 15 l 352 -269 z "},"∂":{"ha":985,"x_min":43,"x_max":918,"o":"m 918 404 q 882 228 918 306 q 785 96 846 151 q 645 13 724 42 q 480 -16 566 -16 q 367 -2 422 -16 q 263 37 312 12 q 174 98 215 62 q 105 180 134 134 q 60 279 76 225 q 43 393 43 333 q 60 508 43 454 q 105 607 76 562 q 174 689 134 652 q 263 750 215 725 q 367 789 312 775 q 480 802 422 802 q 585 784 533 802 q 678 726 636 765 q 658 827 671 773 q 627 935 644 882 q 589 1035 609 987 q 549 1116 568 1082 l 639 1170 q 734 1045 692 1110 q 806 911 775 979 q 859 774 838 843 q 893 641 880 706 q 912 515 906 575 q 918 404 918 455 m 684 393 q 681 462 684 426 q 668 533 677 498 q 644 601 659 568 q 606 657 629 633 q 553 695 584 681 q 480 710 522 710 q 410 695 441 710 q 357 655 380 680 q 319 598 334 631 q 294 531 304 566 q 281 460 285 496 q 277 393 277 425 q 281 327 277 362 q 294 256 285 291 q 319 188 304 220 q 357 131 334 156 q 410 92 380 106 q 480 77 441 77 q 552 91 521 77 q 606 130 583 106 q 644 186 629 155 q 668 254 659 218 q 681 325 677 289 q 684 393 684 361 z "},"∏":{"ha":1034,"x_min":42,"x_max":991,"o":"m 991 852 l 825 852 l 825 0 l 595 0 l 595 852 l 438 852 l 438 0 l 209 0 l 209 852 l 42 852 l 42 977 l 991 977 l 991 852 z "},"ª":{"ha":808,"x_min":105,"x_max":688,"o":"m 688 415 l 522 415 l 522 473 q 455 421 494 438 q 371 404 416 404 q 259 427 309 404 q 176 488 210 449 q 123 578 142 526 q 105 690 105 631 q 123 802 105 750 q 175 893 141 854 q 259 954 210 932 q 371 977 309 977 q 430 967 402 977 q 482 942 458 958 q 524 902 506 926 q 554 850 543 879 l 622 964 l 688 964 l 688 415 m 522 690 q 517 758 522 722 q 498 824 512 793 q 460 874 484 854 q 397 894 435 894 q 334 874 358 894 q 296 823 310 854 q 278 757 283 793 q 273 690 273 722 q 277 624 273 659 q 296 557 282 588 q 334 507 310 527 q 397 487 358 487 q 438 497 420 487 q 471 523 457 507 q 494 561 484 539 q 510 604 504 582 q 519 649 516 627 q 522 690 522 671 m 688 203 l 105 203 l 105 328 l 688 328 l 688 203 z "},"º":{"ha":807,"x_min":98,"x_max":709,"o":"m 709 690 q 685 574 709 627 q 618 483 660 521 q 520 425 576 446 q 404 404 465 404 q 287 425 342 404 q 189 483 231 446 q 122 574 147 521 q 98 690 98 627 q 122 807 98 754 q 189 897 147 859 q 287 956 231 935 q 404 977 342 977 q 520 956 465 977 q 618 897 576 935 q 685 807 660 859 q 709 690 709 754 m 541 690 q 535 762 541 724 q 514 832 529 800 q 472 885 498 864 q 404 906 445 906 q 337 885 363 906 q 295 831 311 863 q 273 761 279 798 q 266 690 266 723 q 273 620 266 658 q 295 550 279 583 q 337 496 311 517 q 404 475 363 475 q 471 496 445 475 q 513 549 498 517 q 535 618 529 581 q 541 690 541 656 m 695 203 l 112 203 l 112 328 l 695 328 l 695 203 z "},"æ":{"ha":1459,"x_min":47,"x_max":1412,"o":"m 613 415 q 528 430 570 424 q 444 435 486 435 q 360 427 399 435 q 294 398 322 418 q 250 345 266 378 q 233 262 233 312 q 244 189 233 222 q 276 132 255 156 q 329 95 298 109 q 402 82 361 82 q 500 105 460 82 q 566 169 541 127 q 602 267 591 210 q 613 393 613 324 l 613 415 m 847 372 q 931 357 889 362 q 1016 351 973 351 q 1099 360 1061 351 q 1165 388 1137 368 q 1210 441 1194 408 q 1226 524 1226 475 q 1215 597 1226 564 q 1183 654 1204 631 q 1131 691 1162 678 q 1058 705 1099 705 q 988 690 1019 705 q 934 652 958 676 q 894 596 911 628 q 867 530 878 564 q 851 460 856 495 q 846 393 846 425 q 847 382 846 388 q 847 372 847 377 m 1412 526 q 1396 440 1412 478 q 1354 374 1381 403 q 1292 326 1327 346 q 1217 294 1257 307 q 1134 276 1177 281 q 1052 271 1092 271 q 951 278 1001 271 q 854 300 902 285 q 878 215 861 256 q 921 145 894 175 q 988 97 949 115 q 1082 79 1027 79 q 1150 90 1118 79 q 1210 121 1183 101 q 1258 168 1237 140 q 1291 228 1278 195 l 1390 191 q 1329 99 1368 138 q 1241 34 1290 60 q 1136 -3 1192 9 q 1027 -16 1081 -16 q 915 -5 964 -16 q 823 26 865 5 q 744 81 781 47 q 667 162 706 115 q 628 98 654 130 q 566 41 602 66 q 488 0 530 16 q 399 -16 445 -16 q 271 -2 334 -16 q 158 44 208 12 q 78 129 109 76 q 47 260 47 182 q 63 346 47 308 q 105 412 79 384 q 168 460 132 441 q 243 493 203 480 q 326 511 283 505 q 408 516 368 516 q 508 509 458 516 q 606 486 557 502 q 582 571 598 531 q 538 642 566 611 q 472 690 511 672 q 378 707 432 707 q 310 696 342 707 q 250 666 277 686 q 202 619 223 646 q 169 558 181 591 l 69 595 q 131 688 92 649 q 219 752 170 727 q 323 790 268 778 q 433 802 378 802 q 599 772 524 802 q 730 687 675 742 q 861 772 785 742 q 1027 802 937 802 q 1116 796 1070 802 q 1204 777 1161 790 q 1284 743 1246 764 q 1351 691 1322 722 q 1395 619 1379 660 q 1412 526 1412 578 z "},"ø":{"ha":972,"x_min":49,"x_max":923,"o":"m 297 267 l 621 646 q 564 693 597 675 q 486 710 531 710 q 416 695 446 710 q 362 655 385 680 q 325 598 340 631 q 300 531 309 566 q 286 460 290 496 q 282 393 282 425 q 286 332 282 364 q 297 267 290 299 m 676 522 l 353 143 q 409 95 376 113 q 486 77 441 77 q 557 91 526 77 q 611 130 589 106 q 649 186 634 155 q 673 254 664 218 q 686 325 682 289 q 690 393 690 361 q 687 456 690 424 q 676 522 684 489 m 901 787 l 806 675 q 892 551 861 622 q 923 393 923 479 q 907 279 923 332 q 862 180 890 225 q 792 98 833 134 q 703 37 751 62 q 599 -2 654 12 q 486 -16 544 -16 q 370 -2 426 -16 q 264 39 313 12 l 231 0 l 70 0 l 165 112 q 80 236 111 165 q 49 393 49 307 q 65 508 49 454 q 110 607 81 562 q 180 689 139 652 q 269 750 220 725 q 372 789 317 775 q 486 802 427 802 q 602 788 546 802 q 707 748 658 774 l 740 787 l 901 787 z "},"¿":{"ha":844,"x_min":55,"x_max":810,"o":"m 593 890 q 583 842 593 865 q 556 803 573 820 q 517 776 539 786 q 469 766 494 766 q 422 776 444 766 q 382 803 399 786 q 356 842 366 820 q 346 890 346 865 q 356 937 346 915 q 382 977 366 960 q 422 1003 399 994 q 469 1013 444 1013 q 517 1003 494 1013 q 556 977 539 994 q 583 937 573 960 q 593 890 593 915 m 810 117 q 745 35 783 68 q 660 -19 706 1 q 561 -48 613 -39 q 456 -56 509 -56 q 361 -46 409 -56 q 268 -16 313 -36 q 185 33 224 4 q 117 101 146 62 q 72 186 88 139 q 55 288 55 233 q 70 377 55 340 q 109 443 85 415 q 165 493 134 471 q 229 532 196 514 q 292 568 261 551 q 348 607 323 586 q 387 656 372 629 q 402 722 402 684 l 541 722 q 526 622 541 663 q 486 547 510 580 q 435 484 463 513 q 384 423 408 455 q 345 351 360 391 q 329 255 329 311 q 337 175 329 210 q 361 117 345 140 q 405 80 378 93 q 469 68 431 68 q 533 85 505 68 q 582 130 562 103 q 612 190 602 157 q 623 254 623 223 l 810 117 z "},"¡":{"ha":452,"x_min":81,"x_max":372,"o":"m 350 887 q 340 839 350 861 q 314 799 330 816 q 274 773 297 783 q 227 763 252 763 q 178 773 201 763 q 139 799 155 783 q 112 839 122 816 q 102 887 102 861 q 112 935 102 912 q 139 974 122 958 q 178 1001 155 991 q 227 1010 201 1010 q 274 1001 252 1010 q 314 974 297 991 q 340 935 330 958 q 350 887 350 912 m 372 -56 l 81 -56 l 157 720 l 296 720 l 372 -56 z "},"¬":{"ha":766,"x_min":95,"x_max":662,"o":"m 662 250 l 522 250 l 522 427 l 95 427 l 95 551 l 662 551 l 662 250 z "},"≈":{"ha":760,"x_min":95,"x_max":675,"o":"m 675 738 q 665 660 675 701 q 632 585 654 619 q 577 527 610 550 q 500 505 544 505 q 421 516 456 505 q 358 541 387 527 q 307 566 330 555 q 264 577 284 577 q 241 570 250 577 q 227 552 232 563 q 218 528 221 541 q 216 505 216 515 l 95 505 q 106 585 95 543 q 139 660 117 626 q 195 716 161 694 q 274 738 229 738 q 349 727 315 738 q 412 703 383 716 q 463 680 440 690 q 503 669 486 669 q 525 675 516 669 q 540 693 534 682 q 549 715 546 703 q 552 738 551 728 l 675 738 m 675 467 q 665 389 675 430 q 632 313 654 348 q 577 256 610 279 q 500 233 544 233 q 421 244 456 233 q 358 270 387 256 q 307 295 330 283 q 264 306 284 306 q 241 299 250 306 q 227 281 232 292 q 218 257 221 270 q 216 233 216 244 l 95 233 q 106 313 95 272 q 139 389 117 355 q 195 445 161 423 q 274 467 229 467 q 349 456 315 467 q 412 432 383 445 q 463 408 440 419 q 503 397 486 397 q 525 404 516 397 q 540 421 534 411 q 549 444 546 432 q 552 467 551 456 l 675 467 z "},"∆":{"ha":561,"x_min":63,"x_max":499,"o":"m 499 481 l 366 450 l 456 351 l 351 271 l 280 388 l 210 271 l 104 351 l 197 450 l 63 481 l 103 606 l 228 549 l 214 688 l 347 688 l 333 551 l 456 606 l 499 481 z "},"«":{"ha":958,"x_min":50,"x_max":860,"o":"m 467 646 l 467 504 l 210 395 l 210 387 l 467 269 l 467 136 l 50 344 l 50 439 l 467 646 m 860 646 l 860 504 l 604 395 l 604 387 l 860 269 l 860 136 l 444 344 l 444 439 l 860 646 z "},"»":{"ha":958,"x_min":98,"x_max":907,"o":"m 514 344 l 98 136 l 98 269 l 354 387 l 354 395 l 98 504 l 98 646 l 514 439 l 514 344 m 907 344 l 491 136 l 491 269 l 747 387 l 747 395 l 491 504 l 491 646 l 907 439 l 907 344 z "},"…":{"ha":1300,"x_min":71,"x_max":1230,"o":"m 1230 102 q 1220 53 1230 76 q 1193 14 1210 31 q 1154 -13 1177 -3 q 1105 -22 1131 -22 q 1057 -13 1080 -22 q 1018 14 1035 -3 q 992 53 1002 31 q 982 102 982 76 q 992 150 982 127 q 1018 189 1002 172 q 1057 215 1035 205 q 1105 225 1080 225 q 1154 215 1131 225 q 1193 189 1177 205 q 1220 150 1210 172 q 1230 102 1230 127 m 774 102 q 764 53 774 76 q 738 14 754 31 q 698 -13 721 -3 q 650 -22 675 -22 q 602 -13 625 -22 q 563 14 579 -3 q 536 53 546 31 q 526 102 526 76 q 536 150 526 127 q 563 189 546 172 q 602 215 579 205 q 650 225 625 225 q 698 215 675 225 q 738 189 721 205 q 764 150 754 172 q 774 102 774 127 m 318 102 q 309 53 318 76 q 282 14 299 31 q 243 -13 265 -3 q 195 -22 220 -22 q 146 -13 169 -22 q 107 14 124 -3 q 81 53 90 31 q 71 102 71 76 q 81 150 71 127 q 107 189 90 172 q 146 215 124 205 q 195 225 169 225 q 243 215 220 225 q 282 189 265 205 q 309 150 299 172 q 318 102 318 127 z "},"Œ":{"ha":1619,"x_min":57,"x_max":1563,"o":"m 856 490 q 852 581 856 534 q 837 672 848 628 q 807 755 826 716 q 760 822 789 793 q 689 868 730 851 q 593 884 648 884 q 496 868 538 884 q 426 823 455 851 q 378 755 397 794 q 350 673 360 717 q 335 582 339 629 q 331 490 331 535 q 335 398 331 445 q 350 308 339 351 q 379 225 361 264 q 427 158 398 186 q 497 112 456 129 q 593 95 538 95 q 687 112 647 95 q 756 159 727 130 q 805 228 785 189 q 835 310 824 267 q 851 400 846 354 q 856 490 856 446 m 1563 0 l 861 0 l 861 73 q 807 27 838 45 q 741 -1 776 9 q 668 -16 706 -12 q 593 -20 631 -20 q 380 16 479 -20 q 210 117 282 51 q 98 277 138 182 q 57 490 57 372 q 97 704 57 610 q 209 864 138 799 q 379 965 281 930 q 593 1000 477 1000 q 669 992 631 1000 q 744 973 708 985 q 810 944 779 961 q 861 909 840 928 l 861 977 l 1563 977 l 1563 852 l 1131 852 l 1131 550 l 1464 550 l 1464 426 l 1131 426 l 1131 125 l 1563 125 l 1563 0 z "},"œ":{"ha":1536,"x_min":49,"x_max":1489,"o":"m 690 393 q 686 462 690 426 q 673 533 682 498 q 649 601 665 568 q 612 657 634 633 q 558 695 589 681 q 486 710 527 710 q 416 695 446 710 q 362 655 385 680 q 325 598 340 631 q 300 531 309 566 q 286 460 290 496 q 282 393 282 425 q 286 327 282 362 q 300 256 290 291 q 325 188 309 220 q 362 131 340 156 q 416 92 385 106 q 486 77 446 77 q 557 91 526 77 q 611 130 589 106 q 649 186 634 155 q 673 254 664 218 q 686 325 682 289 q 690 393 690 361 m 923 372 q 1008 357 966 362 q 1093 351 1050 351 q 1176 360 1137 351 q 1242 388 1214 368 q 1286 441 1270 408 q 1303 524 1303 475 q 1292 597 1303 564 q 1260 654 1281 631 q 1207 691 1238 678 q 1134 705 1175 705 q 1065 690 1095 705 q 1010 652 1034 676 q 970 596 987 628 q 943 530 954 564 q 928 460 932 495 q 923 393 923 425 l 923 372 m 1489 526 q 1473 440 1489 478 q 1431 374 1457 403 q 1368 326 1404 346 q 1293 294 1333 307 q 1210 276 1253 281 q 1128 271 1168 271 q 1028 278 1078 271 q 930 300 979 285 q 954 215 938 256 q 998 145 970 175 q 1064 97 1025 115 q 1158 79 1103 79 q 1226 90 1194 79 q 1286 121 1259 101 q 1334 168 1313 140 q 1367 228 1355 195 l 1467 191 q 1405 99 1444 138 q 1317 34 1366 60 q 1213 -3 1268 9 q 1103 -16 1158 -16 q 933 16 1010 -16 q 800 106 856 48 q 658 16 739 48 q 486 -16 577 -16 q 372 -2 427 -16 q 269 37 317 12 q 180 98 220 62 q 110 180 139 134 q 65 279 81 225 q 49 393 49 333 q 65 508 49 454 q 110 607 81 562 q 180 689 139 652 q 269 750 220 725 q 372 789 317 775 q 486 802 427 802 q 658 770 577 802 q 800 681 739 739 q 933 770 856 739 q 1103 802 1010 802 q 1192 796 1146 802 q 1280 777 1238 790 q 1361 743 1323 764 q 1427 691 1399 722 q 1472 619 1455 660 q 1489 526 1489 578 z "},"–":{"ha":530,"x_min":96,"x_max":435,"o":"m 435 427 l 96 427 l 96 551 l 435 551 l 435 427 z "},"—":{"ha":869,"x_min":96,"x_max":774,"o":"m 774 427 l 96 427 l 96 551 l 774 551 l 774 427 z "},"“":{"ha":694,"x_min":68,"x_max":629,"o":"m 629 761 q 620 713 629 735 q 593 674 610 690 q 554 647 576 657 q 506 637 531 637 q 458 647 480 637 q 418 673 435 656 q 392 713 401 690 q 382 761 382 735 q 391 825 382 792 q 413 888 399 857 q 448 946 428 919 q 490 994 467 974 l 588 943 q 559 915 574 932 q 542 879 545 897 q 577 861 561 873 q 605 834 593 850 q 623 800 616 819 q 629 761 629 781 m 315 761 q 306 713 315 735 q 279 674 296 690 q 240 647 262 657 q 192 637 217 637 q 144 647 166 637 q 104 673 121 656 q 78 713 87 690 q 68 761 68 735 q 77 825 68 792 q 99 888 85 857 q 134 946 114 919 q 176 994 153 974 l 274 943 q 245 915 260 932 q 228 879 231 897 q 263 861 247 873 q 291 834 279 850 q 309 800 302 819 q 315 761 315 781 z "},"”":{"ha":686,"x_min":62,"x_max":623,"o":"m 623 871 q 614 807 623 840 q 592 744 606 774 q 557 686 577 713 q 514 637 537 659 l 417 689 q 431 702 424 694 q 446 717 439 709 q 457 735 452 726 q 463 753 462 744 q 428 770 444 759 q 400 798 412 782 q 382 832 389 813 q 376 871 376 850 q 386 919 376 896 q 412 958 395 941 q 451 984 429 975 q 499 994 473 994 q 547 985 525 994 q 587 958 570 975 q 613 919 604 941 q 623 871 623 897 m 309 871 q 300 807 309 840 q 278 744 292 774 q 243 686 263 713 q 201 637 224 659 l 103 689 q 132 718 117 700 q 149 753 146 735 q 114 770 130 759 q 86 798 98 782 q 68 832 75 813 q 62 871 62 850 q 72 919 62 896 q 98 958 81 941 q 137 984 115 975 q 185 994 159 994 q 233 985 211 994 q 273 958 256 975 q 299 919 290 941 q 309 871 309 897 z "},"‘":{"ha":380,"x_min":68,"x_max":315,"o":"m 315 761 q 306 713 315 735 q 279 674 296 690 q 240 647 262 657 q 192 637 217 637 q 144 647 166 637 q 104 673 121 656 q 78 713 87 690 q 68 761 68 735 q 77 825 68 792 q 99 888 85 857 q 134 946 114 919 q 176 994 153 974 l 274 943 q 245 915 260 932 q 228 879 231 897 q 263 861 247 873 q 291 834 279 850 q 309 800 302 819 q 315 761 315 781 z "},"’":{"ha":372,"x_min":62,"x_max":309,"o":"m 309 871 q 300 807 309 840 q 278 744 292 774 q 243 686 263 713 q 201 637 224 659 l 103 689 q 132 718 117 700 q 149 753 146 735 q 114 770 130 759 q 86 798 98 782 q 68 832 75 813 q 62 871 62 850 q 72 919 62 896 q 98 958 81 941 q 137 984 115 975 q 185 994 159 994 q 233 985 211 994 q 273 958 256 975 q 299 919 290 941 q 309 871 309 897 z "},"÷":{"ha":690,"x_min":62,"x_max":628,"o":"m 628 427 l 62 427 l 62 551 l 628 551 l 628 427 m 444 278 q 436 239 444 258 q 415 208 428 221 q 384 187 401 195 q 345 179 366 179 q 307 187 325 179 q 275 208 288 195 q 254 239 262 221 q 246 278 246 258 q 254 316 246 298 q 275 348 262 334 q 307 369 288 361 q 345 376 325 376 q 384 369 366 376 q 415 348 401 361 q 436 316 428 334 q 444 278 444 298 m 444 705 q 436 667 444 685 q 415 635 428 648 q 384 614 401 622 q 345 606 366 606 q 307 614 325 606 q 275 635 288 622 q 254 667 262 648 q 246 705 246 685 q 254 744 246 726 q 275 775 262 762 q 307 796 288 788 q 345 804 325 804 q 384 796 366 804 q 415 775 401 788 q 436 744 428 762 q 444 705 444 726 z "},"⁄":{"ha":653,"x_min":-11,"x_max":665,"o":"m 665 943 l 130 34 l -11 34 l 517 943 l 665 943 z "},"€":{"ha":1046,"x_min":45,"x_max":977,"o":"m 661 353 l 461 353 q 492 283 473 315 q 539 226 511 250 q 602 188 566 202 q 684 174 638 174 q 750 186 719 174 q 806 218 781 197 q 850 266 831 238 q 880 325 869 293 l 974 288 q 918 197 954 236 q 836 133 882 159 q 738 95 790 108 q 632 82 685 82 q 503 102 564 82 q 391 157 441 121 q 303 242 340 193 q 245 353 265 292 l 45 353 l 67 452 l 224 452 q 222 471 222 462 q 222 490 222 480 q 224 532 222 511 l 85 532 l 108 631 l 246 631 q 305 740 267 690 q 393 824 342 789 q 504 878 443 859 q 632 897 564 897 q 740 884 687 897 q 839 845 793 871 q 921 779 885 819 q 977 686 956 739 l 884 646 q 854 711 873 682 q 811 762 836 741 q 754 794 786 783 q 684 806 722 806 q 608 792 642 806 q 547 754 574 778 q 499 699 519 730 q 467 631 479 667 l 724 631 l 701 532 l 444 532 q 441 490 441 510 q 441 471 441 480 q 443 452 441 462 l 684 452 l 661 353 z "},"‹":{"ha":564,"x_min":50,"x_max":467,"o":"m 467 646 l 467 504 l 210 395 l 210 387 l 467 269 l 467 136 l 50 344 l 50 439 l 467 646 z "},"›":{"ha":564,"x_min":98,"x_max":514,"o":"m 514 344 l 98 136 l 98 269 l 354 387 l 354 395 l 98 504 l 98 646 l 514 439 l 514 344 z "},"‡":{"ha":623,"x_min":54,"x_max":569,"o":"m 569 692 l 399 692 l 399 277 l 569 277 l 569 186 l 399 186 l 399 -102 l 231 -102 l 231 186 l 54 186 l 54 277 l 231 277 l 231 692 l 54 692 l 54 783 l 231 783 l 231 1072 l 399 1072 l 399 783 l 569 783 l 569 692 z "},"·":{"ha":408,"x_min":80,"x_max":328,"o":"m 328 476 q 318 428 328 450 q 291 389 308 406 q 252 362 275 372 q 204 353 229 353 q 156 362 178 353 q 116 389 133 372 q 90 428 100 406 q 80 476 80 450 q 90 525 80 502 q 116 564 100 547 q 156 590 133 581 q 204 600 178 600 q 252 590 229 600 q 291 564 275 581 q 318 525 308 547 q 328 476 328 502 z "},"‚":{"ha":392,"x_min":71,"x_max":318,"o":"m 318 102 q 310 38 318 71 q 287 -25 302 5 q 253 -84 273 -56 q 210 -132 233 -111 l 113 -81 q 141 -52 127 -70 q 159 -17 156 -35 q 123 1 139 -11 q 96 28 107 12 q 78 63 84 44 q 71 102 71 81 q 81 150 71 127 q 107 189 91 172 q 146 215 124 205 q 195 225 169 225 q 243 215 220 225 q 282 189 265 205 q 309 150 299 172 q 318 102 318 127 z "},"„":{"ha":706,"x_min":71,"x_max":632,"o":"m 632 102 q 624 38 632 71 q 601 -25 616 5 q 567 -84 587 -56 q 524 -132 547 -111 l 427 -81 q 441 -68 433 -75 q 455 -53 448 -61 q 467 -35 462 -44 q 473 -17 471 -26 q 437 1 453 -11 q 410 28 421 12 q 392 63 398 44 q 385 102 385 81 q 395 150 385 127 q 421 189 405 172 q 460 215 438 205 q 509 225 483 225 q 557 215 534 225 q 596 189 579 205 q 623 150 613 172 q 632 102 632 127 m 318 102 q 310 38 318 71 q 287 -25 302 5 q 253 -84 273 -56 q 210 -132 233 -111 l 113 -81 q 141 -52 127 -70 q 159 -17 156 -35 q 123 1 139 -11 q 96 28 107 12 q 78 63 84 44 q 71 102 71 81 q 81 150 71 127 q 107 189 91 172 q 146 215 124 205 q 195 225 169 225 q 243 215 220 225 q 282 189 265 205 q 309 150 299 172 q 318 102 318 127 z "},"‰":{"ha":1551,"x_min":50,"x_max":1507,"o":"m 267 491 q 190 505 229 491 q 120 548 151 519 q 70 620 89 576 q 50 720 50 663 q 70 824 50 781 q 120 895 90 867 q 190 936 151 923 q 267 949 229 949 q 348 936 309 949 q 418 895 387 923 q 468 824 449 867 q 487 720 487 781 q 467 616 487 660 q 415 545 447 573 q 345 504 384 517 q 267 491 305 491 m 267 886 q 227 871 243 886 q 200 833 210 857 q 184 780 189 810 q 180 720 180 751 q 184 661 180 690 q 200 607 189 631 q 227 569 210 583 q 267 554 243 554 q 307 569 290 554 q 335 608 323 585 q 352 662 346 632 q 357 720 357 692 q 353 780 357 751 q 338 833 349 810 q 310 871 328 857 q 267 886 293 886 m 803 20 q 725 35 764 20 q 655 77 686 49 q 605 149 625 106 q 586 250 586 192 q 606 353 586 310 q 656 425 625 397 q 726 466 687 452 q 803 479 764 479 q 884 466 844 479 q 954 425 923 452 q 1004 353 985 397 q 1023 250 1023 310 q 1003 146 1023 189 q 951 75 983 103 q 880 34 920 47 q 803 20 841 20 m 803 416 q 763 401 779 416 q 735 363 746 387 q 720 310 725 340 q 715 250 715 280 q 720 190 715 220 q 735 137 725 160 q 763 99 746 113 q 803 84 779 84 q 842 99 825 84 q 870 138 859 114 q 887 192 882 162 q 893 250 893 221 q 889 310 893 280 q 874 363 884 339 q 846 401 863 387 q 803 416 829 416 m 876 943 l 341 34 l 200 34 l 728 943 l 876 943 m 1287 20 q 1210 35 1249 20 q 1140 77 1171 49 q 1089 149 1109 106 q 1070 250 1070 192 q 1090 353 1070 310 q 1141 425 1109 397 q 1211 466 1172 452 q 1287 479 1249 479 q 1368 466 1329 479 q 1439 425 1408 452 q 1488 353 1470 397 q 1507 250 1507 310 q 1487 146 1507 189 q 1435 75 1467 103 q 1365 34 1404 47 q 1287 20 1326 20 m 1287 416 q 1247 401 1263 416 q 1220 363 1230 387 q 1205 310 1210 340 q 1200 250 1200 280 q 1205 190 1200 220 q 1220 137 1210 160 q 1247 99 1230 113 q 1287 84 1263 84 q 1326 99 1310 84 q 1355 138 1343 114 q 1372 192 1366 162 q 1377 250 1377 221 q 1373 310 1377 280 q 1358 363 1369 339 q 1330 401 1348 387 q 1287 416 1313 416 z "},"ı":{"ha":422,"x_min":96,"x_max":326,"o":"m 326 0 l 96 0 l 96 783 l 326 783 l 326 0 z "},"ˆ":{"ha":357,"x_min":0,"x_max":357,"o":"m 357 732 l 188 732 l 144 825 l 99 732 l 0 732 l 131 972 l 222 972 l 357 732 z "},"˜":{"ha":528,"x_min":0,"x_max":528,"o":"m 528 958 q 515 887 525 924 q 485 818 505 850 q 437 766 466 787 q 368 745 408 745 q 295 755 328 745 q 237 778 263 766 q 190 801 211 791 q 149 811 168 811 q 129 805 137 811 q 115 788 121 798 q 107 767 110 779 q 105 745 105 755 l 0 745 q 12 818 1 781 q 41 887 22 856 q 91 938 61 918 q 162 958 121 958 q 231 948 199 958 q 290 926 263 938 q 338 904 317 914 q 375 894 359 894 q 395 900 387 894 q 409 916 404 907 q 416 937 414 926 q 419 958 419 949 l 528 958 z "},"¯":{"ha":370,"x_min":0,"x_max":370,"o":"m 370 774 l 0 774 l 0 909 l 370 909 l 370 774 z "},"˘":{"ha":340,"x_min":0,"x_max":340,"o":"m 340 975 q 324 908 338 939 q 288 854 311 878 q 235 818 266 831 q 168 805 205 805 q 102 819 132 805 q 50 856 72 832 q 16 910 28 879 q 0 975 3 941 l 98 975 q 102 955 98 968 q 114 930 106 942 q 135 908 122 918 q 168 899 149 899 q 203 908 189 899 q 226 930 217 918 q 238 955 235 942 q 243 975 242 968 l 340 975 z "},"˙":{"ha":200,"x_min":0,"x_max":200,"o":"m 200 852 q 192 814 200 832 q 171 782 184 795 q 139 761 157 768 q 100 753 121 753 q 61 761 79 753 q 29 782 43 768 q 8 814 16 795 q 0 852 0 832 q 8 891 0 873 q 29 923 16 909 q 61 944 43 937 q 100 952 79 952 q 139 944 121 952 q 171 923 157 937 q 192 891 184 909 q 200 852 200 873 z "},"˚":{"ha":307,"x_min":0,"x_max":307,"o":"m 307 887 q 295 827 307 855 q 262 778 283 799 q 213 745 241 758 q 153 733 185 733 q 93 745 121 733 q 44 778 65 758 q 12 827 24 799 q 0 887 0 855 q 12 947 0 919 q 45 996 24 975 q 94 1029 66 1017 q 153 1042 121 1042 q 213 1029 184 1042 q 262 996 241 1017 q 295 947 283 975 q 307 887 307 919 m 210 887 q 193 927 210 910 q 153 944 176 944 q 114 927 130 944 q 98 887 98 910 q 114 847 98 864 q 153 830 130 830 q 193 847 176 830 q 210 887 210 863 z "},"¸":{"ha":289,"x_min":0,"x_max":289,"o":"m 289 -140 q 277 -203 289 -176 q 243 -247 264 -229 q 193 -274 222 -265 q 130 -283 163 -283 q 79 -272 103 -283 q 38 -244 56 -262 q 10 -202 20 -227 q 0 -151 0 -178 l 77 -151 q 94 -181 77 -171 q 127 -191 111 -191 q 168 -180 155 -191 q 180 -140 180 -169 q 170 -117 180 -125 q 144 -105 159 -109 q 114 -100 130 -101 q 87 -99 98 -99 l 121 48 l 198 48 l 174 -42 q 216 -48 195 -42 q 253 -67 237 -55 q 279 -98 269 -80 q 289 -140 289 -117 z "},"˝":{"ha":600,"x_min":0,"x_max":600,"o":"m 600 977 l 386 736 l 250 736 l 385 977 l 600 977 m 350 977 l 136 736 l 0 736 l 135 977 l 350 977 z "},"˛":{"ha":289,"x_min":0,"x_max":289,"o":"m 289 -151 q 279 -202 289 -178 q 251 -244 269 -226 q 210 -272 233 -262 q 159 -283 186 -283 q 95 -272 124 -283 q 45 -242 66 -262 q 12 -194 24 -222 q 0 -130 0 -165 q 13 -79 0 -104 q 45 -34 25 -55 q 88 3 64 -14 q 134 29 112 19 l 211 29 q 175 -2 193 16 q 142 -41 157 -20 q 117 -85 127 -62 q 108 -130 108 -108 q 120 -174 108 -157 q 161 -191 133 -191 q 195 -181 178 -191 q 212 -151 212 -171 l 289 -151 z "},"ˇ":{"ha":378,"x_min":0,"x_max":378,"o":"m 378 977 l 243 736 l 131 736 l 0 977 l 167 977 l 212 884 l 256 977 l 378 977 z "},"Š":{"ha":968,"x_min":52,"x_max":911,"o":"m 911 298 q 895 187 911 235 q 850 104 879 139 q 782 45 821 68 q 696 7 743 21 q 598 -14 650 -7 q 492 -20 546 -20 q 362 -9 422 -20 q 250 24 302 1 q 149 83 197 47 q 52 170 100 119 l 191 311 q 243 224 210 264 q 316 156 276 184 q 398 111 355 127 q 479 95 441 95 q 563 101 524 95 q 631 123 602 108 q 677 162 661 138 q 694 224 694 187 q 681 273 694 253 q 647 308 668 294 q 600 333 627 323 q 546 350 574 343 q 492 363 519 357 q 446 375 466 369 q 362 400 406 387 q 277 430 319 413 q 197 469 235 447 q 131 521 159 491 q 85 591 102 551 q 68 682 68 631 q 84 792 68 744 q 127 875 99 840 q 193 934 155 910 q 276 973 231 958 q 373 994 321 987 q 477 1000 424 1000 q 611 987 551 1000 q 722 948 671 973 q 815 888 772 923 q 895 810 857 853 l 756 670 q 711 758 740 719 q 647 826 682 798 q 573 869 612 854 q 498 884 534 884 q 412 878 452 884 q 345 857 373 871 q 301 818 317 842 q 286 756 286 793 q 297 707 286 727 q 328 672 309 686 q 372 649 347 658 q 422 633 396 640 q 474 621 448 626 q 520 610 499 616 q 606 585 561 598 q 694 555 650 572 q 777 515 737 538 q 846 462 816 493 q 893 391 876 431 q 911 298 911 351 m 671 1310 l 536 1069 l 424 1069 l 293 1310 l 460 1310 l 505 1217 l 549 1310 l 671 1310 z "},"š":{"ha":819,"x_min":46,"x_max":770,"o":"m 770 250 q 755 159 770 199 q 714 89 740 119 q 653 40 688 60 q 577 7 618 20 q 493 -10 537 -5 q 406 -16 449 -16 q 302 -8 347 -16 q 217 16 258 -1 q 136 59 176 33 q 46 123 96 85 l 180 233 q 228 170 198 198 q 291 121 258 142 q 354 90 323 101 q 404 79 385 79 q 439 80 419 79 q 479 84 458 81 q 519 94 499 87 q 554 110 538 100 q 578 137 569 121 q 587 175 587 153 q 575 215 587 198 q 545 245 564 233 q 501 267 526 258 q 452 283 477 276 q 404 295 427 290 q 364 304 381 300 q 298 322 333 313 q 230 343 264 332 q 165 372 196 355 q 111 411 134 388 q 74 464 87 433 q 60 536 60 495 q 90 664 60 612 q 170 746 120 715 q 282 789 219 777 q 410 802 345 802 q 505 793 455 802 q 601 766 554 784 q 688 722 648 748 q 756 663 729 696 l 623 553 q 584 623 608 594 q 531 671 559 652 q 474 699 503 690 q 419 707 444 707 q 364 705 395 707 q 307 694 334 703 q 261 665 280 684 q 243 612 243 646 q 254 570 243 587 q 283 540 265 553 q 325 519 302 528 q 373 504 349 511 q 420 493 397 498 q 462 483 444 488 q 528 465 493 474 q 597 444 563 456 q 662 416 631 432 q 718 377 694 400 q 755 323 741 354 q 770 250 770 292 m 597 1110 l 462 870 l 350 870 l 219 1110 l 386 1110 l 431 1017 l 475 1110 l 597 1110 z "},"Ý":{"ha":901,"x_min":-1,"x_max":903,"o":"m 903 977 l 587 410 l 587 0 l 318 0 l 318 395 l -1 977 l 273 977 l 486 486 l 713 977 l 903 977 m 777 1183 l 562 943 l 427 943 l 561 1183 l 777 1183 z "},"ý":{"ha":797,"x_min":-3,"x_max":797,"o":"m 797 783 l 512 94 q 403 -139 463 -24 q 273 -361 343 -255 l 184 -307 q 224 -237 201 -277 q 269 -154 247 -197 q 311 -70 292 -111 q 340 7 330 -28 l -3 783 l 227 783 l 459 254 l 638 783 l 797 783 m 717 989 l 502 749 l 367 749 l 501 989 l 717 989 z "},"Ž":{"ha":941,"x_min":61,"x_max":880,"o":"m 880 0 l 62 0 l 62 125 l 61 125 l 572 852 l 62 852 l 62 977 l 880 977 l 880 852 l 370 125 l 880 125 l 880 0 m 660 1282 l 525 1042 l 413 1042 l 282 1282 l 449 1282 l 494 1189 l 538 1282 l 660 1282 z "},"ž":{"ha":768,"x_min":53,"x_max":716,"o":"m 716 0 l 53 0 l 53 91 l 53 91 l 463 692 l 53 692 l 53 783 l 716 783 l 716 692 l 306 91 l 716 91 l 716 0 m 574 1092 l 439 852 l 327 852 l 196 1092 l 363 1092 l 408 999 l 452 1092 l 574 1092 z "},"À":{"ha":1105,"x_min":99,"x_max":1042,"o":"m 1040 467 l 1040 454 q 1028 336 1039 397 q 999 214 1018 275 q 954 94 980 153 q 894 -21 927 34 q 823 -123 861 -75 q 743 -208 785 -171 l 642 -149 q 685 -62 666 -109 q 720 37 705 -15 q 747 142 736 88 q 766 250 758 197 q 777 356 773 304 q 781 454 781 408 q 780 537 781 491 q 775 632 780 584 q 758 726 770 680 q 724 808 747 772 q 666 865 701 844 q 577 887 630 887 q 497 871 530 887 q 440 828 463 855 q 402 766 416 802 q 381 692 389 731 q 371 613 373 653 q 368 538 368 574 l 368 349 l 661 349 l 661 237 l 368 237 l 368 0 l 99 0 l 99 496 q 133 694 99 603 q 229 853 167 786 q 378 959 291 921 q 572 998 465 998 q 708 977 645 998 q 824 920 772 956 q 917 834 876 884 q 986 725 958 784 q 1027 600 1013 666 q 1040 467 1042 534 m 632 1066 l 496 1066 l 282 1306 l 497 1306 l 632 1066 z "},"Ã":{"ha":1105,"x_min":99,"x_max":1042,"o":"m 1040 467 l 1040 454 q 1028 336 1039 397 q 999 214 1018 275 q 954 94 980 153 q 894 -21 927 34 q 823 -123 861 -75 q 743 -208 785 -171 l 642 -149 q 685 -62 666 -109 q 720 37 705 -15 q 747 142 736 88 q 766 250 758 197 q 777 356 773 304 q 781 454 781 408 q 780 537 781 491 q 775 632 780 584 q 758 726 770 680 q 724 808 747 772 q 666 865 701 844 q 577 887 630 887 q 497 871 530 887 q 440 828 463 855 q 402 766 416 802 q 381 692 389 731 q 371 613 373 653 q 368 538 368 574 l 368 349 l 661 349 l 661 237 l 368 237 l 368 0 l 99 0 l 99 496 q 133 694 99 603 q 229 853 167 786 q 378 959 291 921 q 572 998 465 998 q 708 977 645 998 q 824 920 772 956 q 917 834 876 884 q 986 725 958 784 q 1027 600 1013 666 q 1040 467 1042 534 m 833 1276 q 821 1204 831 1242 q 791 1136 810 1167 q 743 1083 772 1104 q 673 1063 713 1063 q 601 1073 633 1063 q 543 1096 569 1083 q 495 1118 517 1108 q 455 1128 474 1128 q 435 1122 443 1128 q 421 1106 427 1116 q 413 1084 416 1096 q 411 1063 411 1073 l 306 1063 q 317 1136 307 1098 q 347 1204 328 1173 q 397 1256 367 1236 q 468 1276 427 1276 q 537 1265 505 1276 q 596 1243 569 1255 q 644 1221 623 1232 q 681 1211 665 1211 q 701 1218 692 1211 q 714 1234 709 1224 q 722 1255 720 1243 q 725 1276 725 1266 l 833 1276 z "},"Õ":{"ha":1187,"x_min":57,"x_max":1130,"o":"m 1130 490 q 1089 277 1130 372 q 977 117 1048 182 q 806 16 905 51 q 593 -20 708 -20 q 380 16 479 -20 q 210 117 282 51 q 98 277 138 182 q 57 490 57 372 q 97 704 57 610 q 209 864 138 799 q 379 965 281 930 q 593 1000 477 1000 q 808 965 709 1000 q 978 864 906 930 q 1089 704 1049 799 q 1130 490 1130 610 m 856 490 q 852 581 856 534 q 837 672 848 628 q 807 755 826 716 q 760 822 789 793 q 689 868 730 851 q 593 884 648 884 q 496 868 538 884 q 426 823 455 851 q 378 755 397 794 q 350 673 360 717 q 335 582 339 629 q 331 490 331 535 q 335 398 331 445 q 350 308 339 351 q 379 225 361 264 q 427 158 398 186 q 497 112 456 129 q 593 95 538 95 q 687 112 647 95 q 756 159 727 130 q 805 228 785 189 q 835 310 824 267 q 851 400 846 354 q 856 490 856 446 m 857 1276 q 844 1204 854 1242 q 815 1136 834 1167 q 766 1083 795 1104 q 697 1063 737 1063 q 625 1073 657 1063 q 567 1096 593 1083 q 519 1118 541 1108 q 479 1128 498 1128 q 458 1122 467 1128 q 445 1106 450 1116 q 437 1084 439 1096 q 435 1063 435 1073 l 330 1063 q 341 1136 331 1098 q 371 1204 351 1173 q 420 1256 391 1236 q 492 1276 450 1276 q 561 1265 528 1276 q 620 1243 593 1255 q 668 1221 646 1232 q 705 1211 689 1211 q 725 1218 716 1211 q 738 1234 733 1224 q 746 1255 743 1243 q 749 1276 749 1266 l 857 1276 z "},"ÿ":{"ha":797,"x_min":-3,"x_max":797,"o":"m 797 783 l 512 94 q 403 -139 463 -24 q 273 -361 343 -255 l 184 -307 q 224 -237 201 -277 q 269 -154 247 -197 q 311 -70 292 -111 q 340 7 330 -28 l -3 783 l 227 783 l 459 254 l 638 783 l 797 783 m 660 916 q 652 878 660 896 q 631 846 644 859 q 599 824 617 832 q 559 817 581 817 q 521 824 539 817 q 489 846 503 832 q 468 878 475 859 q 460 916 460 896 q 468 955 460 937 q 489 987 475 973 q 521 1008 503 1000 q 559 1016 539 1016 q 599 1008 581 1016 q 631 987 617 1000 q 652 955 644 973 q 660 916 660 937 m 404 916 q 396 878 404 896 q 375 846 389 859 q 343 824 361 832 q 304 817 325 817 q 265 824 283 817 q 233 846 247 832 q 212 878 220 859 q 204 916 204 896 q 212 955 204 937 q 233 987 220 973 q 265 1008 247 1000 q 304 1016 283 1016 q 343 1008 325 1016 q 375 987 361 1000 q 396 955 389 973 q 404 916 404 937 z "},"Ÿ":{"ha":901,"x_min":-1,"x_max":903,"o":"m 903 977 l 587 410 l 587 0 l 318 0 l 318 395 l -1 977 l 273 977 l 486 486 l 713 977 l 903 977 m 722 1108 q 714 1069 722 1088 q 693 1038 707 1051 q 661 1016 680 1024 q 622 1008 643 1008 q 583 1016 602 1008 q 551 1038 565 1024 q 530 1069 538 1051 q 522 1108 522 1088 q 530 1147 522 1128 q 551 1179 538 1165 q 583 1200 565 1192 q 622 1208 602 1208 q 661 1200 643 1208 q 693 1179 680 1192 q 714 1147 707 1165 q 722 1108 722 1128 m 467 1108 q 459 1069 467 1088 q 437 1038 451 1051 q 406 1016 424 1024 q 366 1008 387 1008 q 328 1016 346 1008 q 296 1038 309 1024 q 274 1069 282 1051 q 267 1108 267 1088 q 274 1147 267 1128 q 296 1179 282 1165 q 328 1200 309 1192 q 366 1208 346 1208 q 406 1200 387 1208 q 437 1179 424 1192 q 459 1147 451 1165 q 467 1108 467 1128 z "},"Â":{"ha":1105,"x_min":99,"x_max":1042,"o":"m 1040 467 l 1040 454 q 1028 336 1039 397 q 999 214 1018 275 q 954 94 980 153 q 894 -21 927 34 q 823 -123 861 -75 q 743 -208 785 -171 l 642 -149 q 685 -62 666 -109 q 720 37 705 -15 q 747 142 736 88 q 766 250 758 197 q 777 356 773 304 q 781 454 781 408 q 780 537 781 491 q 775 632 780 584 q 758 726 770 680 q 724 808 747 772 q 666 865 701 844 q 577 887 630 887 q 497 871 530 887 q 440 828 463 855 q 402 766 416 802 q 381 692 389 731 q 371 613 373 653 q 368 538 368 574 l 368 349 l 661 349 l 661 237 l 368 237 l 368 0 l 99 0 l 99 496 q 133 694 99 603 q 229 853 167 786 q 378 959 291 921 q 572 998 465 998 q 708 977 645 998 q 824 920 772 956 q 917 834 876 884 q 986 725 958 784 q 1027 600 1013 666 q 1040 467 1042 534 m 748 1059 l 578 1059 l 534 1152 l 490 1059 l 391 1059 l 522 1299 l 613 1299 l 748 1059 z "},"Ê":{"ha":868,"x_min":111,"x_max":812,"o":"m 812 0 l 111 0 l 111 977 l 812 977 l 812 852 l 380 852 l 380 550 l 713 550 l 713 426 l 380 426 l 380 125 l 812 125 l 812 0 m 640 1043 l 471 1043 l 427 1137 l 382 1043 l 283 1043 l 414 1284 l 505 1284 l 640 1043 z "},"Á":{"ha":1105,"x_min":99,"x_max":1042,"o":"m 1040 467 l 1040 454 q 1028 336 1039 397 q 999 214 1018 275 q 954 94 980 153 q 894 -21 927 34 q 823 -123 861 -75 q 743 -208 785 -171 l 642 -149 q 685 -62 666 -109 q 720 37 705 -15 q 747 142 736 88 q 766 250 758 197 q 777 356 773 304 q 781 454 781 408 q 780 537 781 491 q 775 632 780 584 q 758 726 770 680 q 724 808 747 772 q 666 865 701 844 q 577 887 630 887 q 497 871 530 887 q 440 828 463 855 q 402 766 416 802 q 381 692 389 731 q 371 613 373 653 q 368 538 368 574 l 368 349 l 661 349 l 661 237 l 368 237 l 368 0 l 99 0 l 99 496 q 133 694 99 603 q 229 853 167 786 q 378 959 291 921 q 572 998 465 998 q 708 977 645 998 q 824 920 772 956 q 917 834 876 884 q 986 725 958 784 q 1027 600 1013 666 q 1040 467 1042 534 m 848 1300 l 633 1060 l 498 1060 l 632 1300 l 848 1300 z "},"Ë":{"ha":868,"x_min":111,"x_max":812,"o":"m 812 0 l 111 0 l 111 977 l 812 977 l 812 852 l 380 852 l 380 550 l 713 550 l 713 426 l 380 426 l 380 125 l 812 125 l 812 0 m 689 1142 q 681 1103 689 1122 q 660 1072 673 1085 q 628 1050 646 1058 q 589 1042 610 1042 q 550 1050 568 1042 q 518 1072 532 1058 q 497 1103 505 1085 q 489 1142 489 1122 q 497 1181 489 1162 q 518 1213 505 1199 q 550 1234 532 1226 q 589 1242 568 1242 q 628 1234 610 1242 q 660 1213 646 1226 q 681 1181 673 1199 q 689 1142 689 1162 m 433 1142 q 426 1103 433 1122 q 404 1072 418 1085 q 372 1050 391 1058 q 333 1042 354 1042 q 294 1050 313 1042 q 262 1072 276 1058 q 241 1103 249 1085 q 233 1142 233 1122 q 241 1181 233 1162 q 262 1213 249 1199 q 294 1234 276 1226 q 333 1242 313 1242 q 372 1234 354 1242 q 404 1213 391 1226 q 426 1181 418 1199 q 433 1142 433 1162 z "},"È":{"ha":868,"x_min":111,"x_max":812,"o":"m 812 0 l 111 0 l 111 977 l 812 977 l 812 852 l 380 852 l 380 550 l 713 550 l 713 426 l 380 426 l 380 125 l 812 125 l 812 0 m 539 1044 l 404 1044 l 189 1284 l 404 1284 l 539 1044 z "},"Í":{"ha":490,"x_min":111,"x_max":527,"o":"m 380 0 l 111 0 l 111 977 l 380 977 l 380 0 m 527 1284 l 312 1044 l 177 1044 l 311 1284 l 527 1284 z "},"Î":{"ha":490,"x_min":66,"x_max":424,"o":"m 380 0 l 111 0 l 111 977 l 380 977 l 380 0 m 424 1042 l 254 1042 l 210 1136 l 165 1042 l 66 1042 l 197 1283 l 289 1283 l 424 1042 z "},"Ï":{"ha":490,"x_min":18,"x_max":473,"o":"m 380 0 l 111 0 l 111 977 l 380 977 l 380 0 m 473 1141 q 466 1103 473 1121 q 444 1071 458 1084 q 412 1049 431 1057 q 373 1042 394 1042 q 334 1049 353 1042 q 302 1071 316 1057 q 281 1103 289 1084 q 273 1141 273 1121 q 281 1180 273 1162 q 302 1212 289 1198 q 334 1233 316 1225 q 373 1241 353 1241 q 412 1233 394 1241 q 444 1212 431 1225 q 466 1180 458 1198 q 473 1141 473 1162 m 218 1141 q 210 1103 218 1121 q 189 1071 202 1084 q 157 1049 175 1057 q 117 1042 138 1042 q 79 1049 97 1042 q 47 1071 60 1057 q 25 1103 33 1084 q 18 1141 18 1121 q 25 1180 18 1162 q 47 1212 33 1198 q 79 1233 60 1225 q 117 1241 97 1241 q 157 1233 138 1241 q 189 1212 175 1225 q 210 1180 202 1198 q 218 1141 218 1162 z "},"Ì":{"ha":490,"x_min":-32,"x_max":380,"o":"m 380 0 l 111 0 l 111 977 l 380 977 l 380 0 m 318 1044 l 182 1044 l -32 1284 l 183 1284 l 318 1044 z "},"Ó":{"ha":1187,"x_min":57,"x_max":1130,"o":"m 1130 490 q 1089 277 1130 372 q 977 117 1048 182 q 806 16 905 51 q 593 -20 708 -20 q 380 16 479 -20 q 210 117 282 51 q 98 277 138 182 q 57 490 57 372 q 97 704 57 610 q 209 864 138 799 q 379 965 281 930 q 593 1000 477 1000 q 808 965 709 1000 q 978 864 906 930 q 1089 704 1049 799 q 1130 490 1130 610 m 856 490 q 852 581 856 534 q 837 672 848 628 q 807 755 826 716 q 760 822 789 793 q 689 868 730 851 q 593 884 648 884 q 496 868 538 884 q 426 823 455 851 q 378 755 397 794 q 350 673 360 717 q 335 582 339 629 q 331 490 331 535 q 335 398 331 445 q 350 308 339 351 q 379 225 361 264 q 427 158 398 186 q 497 112 456 129 q 593 95 538 95 q 687 112 647 95 q 756 159 727 130 q 805 228 785 189 q 835 310 824 267 q 851 400 846 354 q 856 490 856 446 m 885 1301 l 670 1061 l 535 1061 l 669 1301 l 885 1301 z "},"Ô":{"ha":1187,"x_min":57,"x_max":1130,"o":"m 1130 490 q 1089 277 1130 372 q 977 117 1048 182 q 806 16 905 51 q 593 -20 708 -20 q 380 16 479 -20 q 210 117 282 51 q 98 277 138 182 q 57 490 57 372 q 97 704 57 610 q 209 864 138 799 q 379 965 281 930 q 593 1000 477 1000 q 808 965 709 1000 q 978 864 906 930 q 1089 704 1049 799 q 1130 490 1130 610 m 856 490 q 852 581 856 534 q 837 672 848 628 q 807 755 826 716 q 760 822 789 793 q 689 868 730 851 q 593 884 648 884 q 496 868 538 884 q 426 823 455 851 q 378 755 397 794 q 350 673 360 717 q 335 582 339 629 q 331 490 331 535 q 335 398 331 445 q 350 308 339 351 q 379 225 361 264 q 427 158 398 186 q 497 112 456 129 q 593 95 538 95 q 687 112 647 95 q 756 159 727 130 q 805 228 785 189 q 835 310 824 267 q 851 400 846 354 q 856 490 856 446 m 772 1062 l 602 1062 l 558 1156 l 513 1062 l 414 1062 l 545 1303 l 637 1303 l 772 1062 z "},"Ò":{"ha":1187,"x_min":57,"x_max":1130,"o":"m 1130 490 q 1089 277 1130 372 q 977 117 1048 182 q 806 16 905 51 q 593 -20 708 -20 q 380 16 479 -20 q 210 117 282 51 q 98 277 138 182 q 57 490 57 372 q 97 704 57 610 q 209 864 138 799 q 379 965 281 930 q 593 1000 477 1000 q 808 965 709 1000 q 978 864 906 930 q 1089 704 1049 799 q 1130 490 1130 610 m 856 490 q 852 581 856 534 q 837 672 848 628 q 807 755 826 716 q 760 822 789 793 q 689 868 730 851 q 593 884 648 884 q 496 868 538 884 q 426 823 455 851 q 378 755 397 794 q 350 673 360 717 q 335 582 339 629 q 331 490 331 535 q 335 398 331 445 q 350 308 339 351 q 379 225 361 264 q 427 158 398 186 q 497 112 456 129 q 593 95 538 95 q 687 112 647 95 q 756 159 727 130 q 805 228 785 189 q 835 310 824 267 q 851 400 846 354 q 856 490 856 446 m 649 1061 l 513 1061 l 299 1301 l 514 1301 l 649 1061 z "},"Ú":{"ha":1105,"x_min":64,"x_max":1006,"o":"m 397 977 q 365 863 378 922 q 342 746 351 804 q 329 630 334 687 q 325 522 325 573 q 325 438 325 485 q 331 344 326 392 q 347 250 336 296 q 381 168 359 204 q 440 111 404 132 q 528 89 475 89 q 609 105 575 89 q 666 148 642 121 q 703 210 689 175 q 725 284 717 245 q 735 362 732 323 q 737 438 737 402 l 737 977 l 1006 977 l 1006 480 q 972 282 1006 374 q 877 123 939 191 q 728 17 815 56 q 534 -21 640 -21 q 397 0 460 -21 q 282 57 334 20 q 188 143 229 93 q 120 252 147 193 q 78 376 92 311 q 65 509 64 441 l 65 522 q 76 634 66 576 q 103 751 86 692 q 145 866 121 809 q 199 977 170 924 l 397 977 m 846 1251 l 631 1010 l 496 1010 l 630 1251 l 846 1251 z "},"Û":{"ha":1105,"x_min":64,"x_max":1006,"o":"m 397 977 q 365 863 378 922 q 342 746 351 804 q 329 630 334 687 q 325 522 325 573 q 325 438 325 485 q 331 344 326 392 q 347 250 336 296 q 381 168 359 204 q 440 111 404 132 q 528 89 475 89 q 609 105 575 89 q 666 148 642 121 q 703 210 689 175 q 725 284 717 245 q 735 362 732 323 q 737 438 737 402 l 737 977 l 1006 977 l 1006 480 q 972 282 1006 374 q 877 123 939 191 q 728 17 815 56 q 534 -21 640 -21 q 397 0 460 -21 q 282 57 334 20 q 188 143 229 93 q 120 252 147 193 q 78 376 92 311 q 65 509 64 441 l 65 522 q 76 634 66 576 q 103 751 86 692 q 145 866 121 809 q 199 977 170 924 l 397 977 m 732 1043 l 562 1043 l 518 1137 l 473 1043 l 374 1043 l 505 1284 l 597 1284 l 732 1043 z "},"Ù":{"ha":1105,"x_min":64,"x_max":1006,"o":"m 397 977 q 365 863 378 922 q 342 746 351 804 q 329 630 334 687 q 325 522 325 573 q 325 438 325 485 q 331 344 326 392 q 347 250 336 296 q 381 168 359 204 q 440 111 404 132 q 528 89 475 89 q 609 105 575 89 q 666 148 642 121 q 703 210 689 175 q 725 284 717 245 q 735 362 732 323 q 737 438 737 402 l 737 977 l 1006 977 l 1006 480 q 972 282 1006 374 q 877 123 939 191 q 728 17 815 56 q 534 -21 640 -21 q 397 0 460 -21 q 282 57 334 20 q 188 143 229 93 q 120 252 147 193 q 78 376 92 311 q 65 509 64 441 l 65 522 q 76 634 66 576 q 103 751 86 692 q 145 866 121 809 q 199 977 170 924 l 397 977 m 629 1010 l 494 1010 l 279 1251 l 494 1251 l 629 1010 z "},"Ä":{"ha":1105,"x_min":99,"x_max":1042,"o":"m 1040 467 l 1040 454 q 1028 336 1039 397 q 999 214 1018 275 q 954 94 980 153 q 894 -21 927 34 q 823 -123 861 -75 q 743 -208 785 -171 l 642 -149 q 685 -62 666 -109 q 720 37 705 -15 q 747 142 736 88 q 766 250 758 197 q 777 356 773 304 q 781 454 781 408 q 780 537 781 491 q 775 632 780 584 q 758 726 770 680 q 724 808 747 772 q 666 865 701 844 q 577 887 630 887 q 497 871 530 887 q 440 828 463 855 q 402 766 416 802 q 381 692 389 731 q 371 613 373 653 q 368 538 368 574 l 368 349 l 661 349 l 661 237 l 368 237 l 368 0 l 99 0 l 99 496 q 133 694 99 603 q 229 853 167 786 q 378 959 291 921 q 572 998 465 998 q 708 977 645 998 q 824 920 772 956 q 917 834 876 884 q 986 725 958 784 q 1027 600 1013 666 q 1040 467 1042 534 m 798 1152 q 790 1114 798 1132 q 768 1082 782 1095 q 736 1060 755 1068 q 697 1053 718 1053 q 659 1060 677 1053 q 627 1082 640 1068 q 605 1114 613 1095 q 597 1152 597 1132 q 605 1191 597 1173 q 627 1223 613 1209 q 659 1244 640 1236 q 697 1252 677 1252 q 736 1244 718 1252 q 768 1223 755 1236 q 790 1191 782 1209 q 798 1152 798 1173 m 542 1152 q 534 1114 542 1132 q 513 1082 526 1095 q 481 1060 499 1068 q 441 1053 463 1053 q 403 1060 421 1053 q 371 1082 385 1068 q 350 1114 357 1095 q 342 1152 342 1132 q 350 1191 342 1173 q 371 1223 357 1209 q 403 1244 385 1236 q 441 1252 421 1252 q 481 1244 463 1252 q 513 1223 499 1236 q 534 1191 526 1209 q 542 1152 542 1173 z "},"Å":{"ha":1107,"x_min":100,"x_max":1043,"o":"m 724 1114 q 707 1043 724 1076 q 661 989 690 1010 q 822 922 750 972 q 942 802 893 873 q 1017 645 991 731 q 1042 467 1043 558 l 1042 454 q 1030 336 1040 397 q 1000 214 1019 275 q 955 94 981 153 q 896 -21 928 34 q 825 -123 863 -75 q 745 -208 787 -171 l 644 -149 q 687 -62 667 -109 q 722 37 706 -15 q 748 142 737 88 q 767 250 760 197 q 778 356 774 304 q 782 454 782 408 q 782 537 782 491 q 776 632 781 584 q 760 726 771 680 q 725 808 748 772 q 667 865 703 844 q 578 887 631 887 q 498 871 532 887 q 441 828 465 855 q 404 766 418 802 q 382 692 390 731 q 372 613 374 653 q 370 538 370 574 l 370 349 l 662 349 l 662 237 l 370 237 l 370 0 l 100 0 l 100 496 q 127 673 100 591 q 203 821 154 756 q 322 930 252 886 q 480 989 393 974 q 434 1043 451 1010 q 417 1114 417 1076 q 429 1174 417 1146 q 462 1223 441 1202 q 511 1257 483 1244 q 570 1269 538 1269 q 630 1257 602 1269 q 679 1223 658 1244 q 712 1174 700 1202 q 724 1114 724 1146 m 627 1114 q 610 1154 627 1137 q 570 1171 593 1171 q 531 1154 547 1171 q 515 1114 515 1137 q 531 1074 515 1091 q 570 1057 547 1057 q 610 1074 593 1057 q 627 1114 627 1090 z "},"Ç":{"ha":1046,"x_min":57,"x_max":1000,"o":"m 706 -168 q 694 -230 706 -203 q 660 -274 682 -256 q 610 -301 639 -292 q 547 -310 581 -310 q 496 -299 520 -310 q 455 -271 473 -289 q 427 -230 437 -254 q 417 -178 417 -205 l 494 -178 q 511 -208 494 -198 q 545 -218 528 -218 q 585 -207 572 -218 q 597 -168 597 -196 q 587 -144 597 -153 q 562 -132 576 -136 q 531 -127 547 -128 q 505 -126 515 -126 l 529 -18 q 342 31 428 -11 q 192 140 256 73 q 93 297 129 208 q 57 490 57 387 q 75 628 57 562 q 126 750 93 694 q 205 853 159 807 q 309 932 252 899 q 432 982 366 964 q 570 1000 498 1000 q 705 983 639 1000 q 828 934 771 967 q 929 851 885 901 q 1000 734 974 802 l 884 686 q 847 766 870 730 q 793 829 825 803 q 722 870 762 855 q 634 884 682 884 q 541 868 583 884 q 465 822 498 851 q 406 754 431 793 q 364 672 381 715 q 339 581 347 628 q 331 490 331 534 q 348 348 331 418 q 400 221 364 277 q 494 130 437 165 q 634 95 552 95 q 716 110 677 95 q 786 150 755 124 q 842 210 818 175 q 880 284 865 244 l 997 237 q 932 131 973 177 q 839 53 891 85 q 726 3 787 21 q 604 -18 666 -14 l 591 -69 q 633 -76 612 -69 q 670 -95 654 -82 q 696 -125 686 -107 q 706 -168 706 -144 z "},"É":{"ha":868,"x_min":111,"x_max":812,"o":"m 812 0 l 111 0 l 111 977 l 812 977 l 812 852 l 380 852 l 380 550 l 713 550 l 713 426 l 380 426 l 380 125 l 812 125 l 812 0 m 746 1282 l 531 1042 l 396 1042 l 530 1282 l 746 1282 z "},"Ñ":{"ha":1114,"x_min":111,"x_max":1003,"o":"m 235 0 l 111 0 l 111 977 l 286 977 l 879 306 l 879 977 l 1003 977 l 1003 0 l 828 0 l 235 670 l 235 0 m 821 1257 q 808 1185 818 1223 q 778 1117 798 1148 q 730 1064 759 1085 q 661 1044 701 1044 q 588 1054 621 1044 q 530 1077 556 1064 q 483 1099 504 1089 q 442 1109 461 1109 q 422 1103 430 1109 q 408 1087 414 1097 q 400 1065 403 1077 q 398 1044 398 1054 l 293 1044 q 304 1117 294 1079 q 334 1185 315 1154 q 384 1237 354 1217 q 455 1257 414 1257 q 524 1246 492 1257 q 583 1224 556 1236 q 631 1202 610 1213 q 668 1192 652 1192 q 688 1199 680 1192 q 702 1215 696 1205 q 709 1236 707 1224 q 712 1257 712 1247 l 821 1257 z "},"Ö":{"ha":1187,"x_min":57,"x_max":1130,"o":"m 1130 490 q 1089 277 1130 372 q 977 117 1048 182 q 806 16 905 51 q 593 -20 708 -20 q 380 16 479 -20 q 210 117 282 51 q 98 277 138 182 q 57 490 57 372 q 97 704 57 610 q 209 864 138 799 q 379 965 281 930 q 593 1000 477 1000 q 808 965 709 1000 q 978 864 906 930 q 1089 704 1049 799 q 1130 490 1130 610 m 856 490 q 852 581 856 534 q 837 672 848 628 q 807 755 826 716 q 760 822 789 793 q 689 868 730 851 q 593 884 648 884 q 496 868 538 884 q 426 823 455 851 q 378 755 397 794 q 350 673 360 717 q 335 582 339 629 q 331 490 331 535 q 335 398 331 445 q 350 308 339 351 q 379 225 361 264 q 427 158 398 186 q 497 112 456 129 q 593 95 538 95 q 687 112 647 95 q 756 159 727 130 q 805 228 785 189 q 835 310 824 267 q 851 400 846 354 q 856 490 856 446 m 821 1154 q 813 1116 821 1134 q 792 1084 806 1097 q 760 1062 779 1070 q 721 1055 742 1055 q 682 1062 701 1055 q 650 1084 664 1070 q 629 1116 637 1097 q 621 1154 621 1134 q 629 1193 621 1175 q 650 1225 637 1211 q 682 1246 664 1238 q 721 1254 701 1254 q 760 1246 742 1254 q 792 1225 779 1238 q 813 1193 806 1211 q 821 1154 821 1175 m 566 1154 q 558 1116 566 1134 q 536 1084 550 1097 q 505 1062 523 1070 q 465 1055 486 1055 q 427 1062 445 1055 q 395 1084 408 1070 q 373 1116 381 1097 q 366 1154 366 1134 q 373 1193 366 1175 q 395 1225 381 1211 q 427 1246 408 1238 q 465 1254 445 1254 q 505 1246 486 1254 q 536 1225 523 1238 q 558 1193 550 1211 q 566 1154 566 1175 z "},"Ü":{"ha":1105,"x_min":64,"x_max":1006,"o":"m 397 977 q 365 863 378 922 q 342 746 351 804 q 329 630 334 687 q 325 522 325 573 q 325 438 325 485 q 331 344 326 392 q 347 250 336 296 q 381 168 359 204 q 440 111 404 132 q 528 89 475 89 q 609 105 575 89 q 666 148 642 121 q 703 210 689 175 q 725 284 717 245 q 735 362 732 323 q 737 438 737 402 l 737 977 l 1006 977 l 1006 480 q 972 282 1006 374 q 877 123 939 191 q 728 17 815 56 q 534 -21 640 -21 q 397 0 460 -21 q 282 57 334 20 q 188 143 229 93 q 120 252 147 193 q 78 376 92 311 q 65 509 64 441 l 65 522 q 76 634 66 576 q 103 751 86 692 q 145 866 121 809 q 199 977 170 924 l 397 977 m 777 1147 q 769 1109 777 1127 q 748 1077 762 1090 q 716 1056 734 1063 q 677 1048 698 1048 q 638 1056 656 1048 q 606 1077 620 1063 q 585 1109 593 1090 q 577 1147 577 1127 q 585 1186 577 1168 q 606 1218 593 1204 q 638 1239 620 1232 q 677 1247 656 1247 q 716 1239 698 1247 q 748 1218 734 1232 q 769 1186 762 1204 q 777 1147 777 1168 m 522 1147 q 514 1109 522 1127 q 492 1077 506 1090 q 460 1056 479 1063 q 421 1048 442 1048 q 382 1056 401 1048 q 351 1077 364 1063 q 329 1109 337 1090 q 321 1147 321 1127 q 329 1186 321 1168 q 351 1218 337 1204 q 382 1239 364 1232 q 421 1247 401 1247 q 460 1239 442 1247 q 492 1218 479 1232 q 514 1186 506 1204 q 522 1147 522 1168 z "},"á":{"ha":980,"x_min":52,"x_max":884,"o":"m 884 0 l 655 0 l 655 94 q 557 11 614 38 q 431 -16 500 -16 q 271 16 342 -16 q 152 103 201 48 q 77 233 103 159 q 52 393 52 308 q 77 553 52 479 q 152 683 103 628 q 271 770 201 739 q 431 802 342 802 q 518 789 477 802 q 593 750 559 775 q 653 691 627 726 q 694 613 680 656 l 796 783 l 884 783 l 884 0 m 654 393 q 651 458 654 424 q 640 525 648 492 q 620 588 633 558 q 586 642 606 618 q 536 679 565 665 q 468 692 507 692 q 401 679 429 692 q 352 641 372 665 q 318 587 332 618 q 298 524 305 557 q 287 457 290 490 q 284 393 284 423 q 287 330 284 363 q 298 262 290 296 q 318 199 305 229 q 352 145 332 168 q 401 107 372 121 q 468 94 429 94 q 531 108 503 94 q 579 147 558 123 q 614 203 600 172 q 637 267 628 234 q 650 333 646 300 q 654 393 654 366 m 730 1110 l 515 870 l 380 870 l 515 1110 l 730 1110 z "},"à":{"ha":980,"x_min":52,"x_max":884,"o":"m 884 0 l 655 0 l 655 94 q 557 11 614 38 q 431 -16 500 -16 q 271 16 342 -16 q 152 103 201 48 q 77 233 103 159 q 52 393 52 308 q 77 553 52 479 q 152 683 103 628 q 271 770 201 739 q 431 802 342 802 q 518 789 477 802 q 593 750 559 775 q 653 691 627 726 q 694 613 680 656 l 796 783 l 884 783 l 884 0 m 654 393 q 651 458 654 424 q 640 525 648 492 q 620 588 633 558 q 586 642 606 618 q 536 679 565 665 q 468 692 507 692 q 401 679 429 692 q 352 641 372 665 q 318 587 332 618 q 298 524 305 557 q 287 457 290 490 q 284 393 284 423 q 287 330 284 363 q 298 262 290 296 q 318 199 305 229 q 352 145 332 168 q 401 107 372 121 q 468 94 429 94 q 531 108 503 94 q 579 147 558 123 q 614 203 600 172 q 637 267 628 234 q 650 333 646 300 q 654 393 654 366 m 530 870 l 395 870 l 180 1110 l 395 1110 l 530 870 z "},"â":{"ha":980,"x_min":52,"x_max":884,"o":"m 884 0 l 655 0 l 655 94 q 557 11 614 38 q 431 -16 500 -16 q 271 16 342 -16 q 152 103 201 48 q 77 233 103 159 q 52 393 52 308 q 77 553 52 479 q 152 683 103 628 q 271 770 201 739 q 431 802 342 802 q 518 789 477 802 q 593 750 559 775 q 653 691 627 726 q 694 613 680 656 l 796 783 l 884 783 l 884 0 m 654 393 q 651 458 654 424 q 640 525 648 492 q 620 588 633 558 q 586 642 606 618 q 536 679 565 665 q 468 692 507 692 q 401 679 429 692 q 352 641 372 665 q 318 587 332 618 q 298 524 305 557 q 287 457 290 490 q 284 393 284 423 q 287 330 284 363 q 298 262 290 296 q 318 199 305 229 q 352 145 332 168 q 401 107 372 121 q 468 94 429 94 q 531 108 503 94 q 579 147 558 123 q 614 203 600 172 q 637 267 628 234 q 650 333 646 300 q 654 393 654 366 m 647 868 l 477 868 l 433 962 l 389 868 l 290 868 l 420 1109 l 512 1109 l 647 868 z "},"ä":{"ha":980,"x_min":52,"x_max":884,"o":"m 884 0 l 655 0 l 655 94 q 557 11 614 38 q 431 -16 500 -16 q 271 16 342 -16 q 152 103 201 48 q 77 233 103 159 q 52 393 52 308 q 77 553 52 479 q 152 683 103 628 q 271 770 201 739 q 431 802 342 802 q 518 789 477 802 q 593 750 559 775 q 653 691 627 726 q 694 613 680 656 l 796 783 l 884 783 l 884 0 m 654 393 q 651 458 654 424 q 640 525 648 492 q 620 588 633 558 q 586 642 606 618 q 536 679 565 665 q 468 692 507 692 q 401 679 429 692 q 352 641 372 665 q 318 587 332 618 q 298 524 305 557 q 287 457 290 490 q 284 393 284 423 q 287 330 284 363 q 298 262 290 296 q 318 199 305 229 q 352 145 332 168 q 401 107 372 121 q 468 94 429 94 q 531 108 503 94 q 579 147 558 123 q 614 203 600 172 q 637 267 628 234 q 650 333 646 300 q 654 393 654 366 m 696 961 q 688 922 696 941 q 667 890 680 904 q 635 869 653 877 q 595 861 616 861 q 557 869 575 861 q 525 890 538 877 q 504 922 511 904 q 496 961 496 941 q 504 1000 496 981 q 525 1031 511 1018 q 557 1053 538 1045 q 595 1061 575 1061 q 635 1053 616 1061 q 667 1031 653 1045 q 688 1000 680 1018 q 696 961 696 981 m 440 961 q 432 922 440 941 q 411 890 425 904 q 379 869 397 877 q 340 861 361 861 q 301 869 319 861 q 269 890 283 877 q 248 922 256 904 q 240 961 240 941 q 248 1000 240 981 q 269 1031 256 1018 q 301 1053 283 1045 q 340 1061 319 1061 q 379 1053 361 1061 q 411 1031 397 1045 q 432 1000 425 1018 q 440 961 440 981 z "},"ã":{"ha":980,"x_min":52,"x_max":884,"o":"m 884 0 l 655 0 l 655 94 q 557 11 614 38 q 431 -16 500 -16 q 271 16 342 -16 q 152 103 201 48 q 77 233 103 159 q 52 393 52 308 q 77 553 52 479 q 152 683 103 628 q 271 770 201 739 q 431 802 342 802 q 518 789 477 802 q 593 750 559 775 q 653 691 627 726 q 694 613 680 656 l 796 783 l 884 783 l 884 0 m 654 393 q 651 458 654 424 q 640 525 648 492 q 620 588 633 558 q 586 642 606 618 q 536 679 565 665 q 468 692 507 692 q 401 679 429 692 q 352 641 372 665 q 318 587 332 618 q 298 524 305 557 q 287 457 290 490 q 284 393 284 423 q 287 330 284 363 q 298 262 290 296 q 318 199 305 229 q 352 145 332 168 q 401 107 372 121 q 468 94 429 94 q 531 108 503 94 q 579 147 558 123 q 614 203 600 172 q 637 267 628 234 q 650 333 646 300 q 654 393 654 366 m 732 1061 q 719 989 729 1027 q 689 921 709 952 q 641 868 670 889 q 572 848 612 848 q 499 858 532 848 q 441 881 467 868 q 394 903 415 893 q 353 913 372 913 q 333 907 341 913 q 319 891 325 901 q 312 869 314 881 q 309 848 309 858 l 204 848 q 216 921 205 883 q 245 989 226 958 q 295 1041 265 1021 q 366 1061 325 1061 q 435 1050 403 1061 q 494 1028 467 1040 q 542 1006 521 1017 q 579 996 564 996 q 599 1003 591 996 q 613 1019 608 1009 q 621 1040 618 1028 q 623 1061 623 1051 l 732 1061 z "},"å":{"ha":980,"x_min":52,"x_max":884,"o":"m 884 0 l 655 0 l 655 94 q 557 11 614 38 q 431 -16 500 -16 q 271 16 342 -16 q 152 103 201 48 q 77 233 103 159 q 52 393 52 308 q 77 553 52 479 q 152 683 103 628 q 271 770 201 739 q 431 802 342 802 q 518 789 477 802 q 593 750 559 775 q 653 691 627 726 q 694 613 680 656 l 796 783 l 884 783 l 884 0 m 654 393 q 651 458 654 424 q 640 525 648 492 q 620 588 633 558 q 586 642 606 618 q 536 679 565 665 q 468 692 507 692 q 401 679 429 692 q 352 641 372 665 q 318 587 332 618 q 298 524 305 557 q 287 457 290 490 q 284 393 284 423 q 287 330 284 363 q 298 262 290 296 q 318 199 305 229 q 352 145 332 168 q 401 107 372 121 q 468 94 429 94 q 531 108 503 94 q 579 147 558 123 q 614 203 600 172 q 637 267 628 234 q 650 333 646 300 q 654 393 654 366 m 622 1012 q 610 952 622 980 q 577 903 597 924 q 528 870 556 882 q 468 858 500 858 q 408 870 436 858 q 359 903 380 882 q 327 952 338 924 q 315 1012 315 980 q 327 1072 315 1044 q 359 1121 338 1100 q 408 1154 380 1142 q 468 1166 436 1166 q 527 1154 499 1166 q 576 1121 555 1142 q 610 1072 597 1100 q 622 1012 622 1044 m 525 1012 q 508 1052 525 1035 q 468 1069 491 1069 q 428 1052 444 1069 q 412 1012 412 1035 q 428 972 412 989 q 468 955 444 955 q 508 971 491 955 q 525 1012 525 988 z "},"ç":{"ha":860,"x_min":52,"x_max":820,"o":"m 595 -161 q 583 -223 595 -197 q 549 -268 570 -250 q 498 -294 528 -286 q 436 -303 469 -303 q 385 -293 409 -303 q 344 -264 361 -282 q 316 -223 326 -247 q 306 -172 306 -199 l 382 -172 q 400 -201 383 -191 q 433 -211 416 -211 q 474 -200 461 -211 q 486 -161 486 -189 q 476 -138 486 -146 q 450 -125 465 -130 q 420 -120 435 -121 q 393 -119 404 -119 l 417 -13 q 270 28 337 -5 q 154 115 203 61 q 79 239 106 168 q 52 393 52 310 q 82 559 52 484 q 168 688 113 634 q 299 772 223 743 q 465 802 375 802 q 576 790 522 802 q 677 751 631 777 q 761 685 724 725 q 820 589 798 645 l 721 550 q 642 665 697 625 q 508 705 586 705 q 433 691 466 705 q 375 655 400 678 q 333 602 351 632 q 305 536 316 571 q 290 465 294 502 q 285 393 285 428 q 289 318 285 356 q 303 245 293 280 q 329 180 313 210 q 370 127 345 150 q 429 92 395 105 q 508 79 463 79 q 576 90 544 79 q 636 121 609 101 q 684 168 663 140 q 718 228 705 195 l 817 191 q 762 104 796 141 q 685 41 728 66 q 593 2 642 16 q 492 -15 544 -12 l 480 -62 q 522 -69 501 -62 q 559 -88 543 -75 q 585 -119 575 -100 q 595 -161 595 -137 z "},"é":{"ha":897,"x_min":50,"x_max":849,"o":"m 284 372 q 368 357 326 362 q 453 351 410 351 q 536 360 498 351 q 603 388 574 368 q 647 441 631 408 q 663 524 663 475 q 652 597 663 564 q 620 654 642 631 q 568 691 599 678 q 495 705 536 705 q 426 690 456 705 q 371 652 395 676 q 331 596 348 628 q 304 530 315 564 q 288 460 293 495 q 283 393 283 425 q 283 382 283 388 q 284 372 283 377 m 849 526 q 833 440 849 478 q 791 374 818 403 q 729 326 764 346 q 654 294 694 307 q 571 276 614 281 q 489 271 529 271 q 389 278 438 271 q 291 300 339 285 q 315 215 298 256 q 358 145 331 175 q 425 97 385 115 q 519 79 465 79 q 587 90 555 79 q 647 121 620 101 q 695 168 674 140 q 728 228 715 195 l 827 191 q 766 99 805 138 q 678 34 727 60 q 573 -3 629 9 q 464 -16 518 -16 q 298 15 374 -16 q 168 99 222 45 q 81 229 113 153 q 50 393 50 304 q 81 558 50 483 q 168 688 113 633 q 298 772 222 742 q 464 802 374 802 q 553 796 507 802 q 641 777 598 790 q 722 743 684 764 q 788 691 760 722 q 832 619 816 660 q 849 526 849 578 m 757 1110 l 542 870 l 407 870 l 541 1110 l 757 1110 z "},"è":{"ha":897,"x_min":50,"x_max":849,"o":"m 284 372 q 368 357 326 362 q 453 351 410 351 q 536 360 498 351 q 603 388 574 368 q 647 441 631 408 q 663 524 663 475 q 652 597 663 564 q 620 654 642 631 q 568 691 599 678 q 495 705 536 705 q 426 690 456 705 q 371 652 395 676 q 331 596 348 628 q 304 530 315 564 q 288 460 293 495 q 283 393 283 425 q 283 382 283 388 q 284 372 283 377 m 849 526 q 833 440 849 478 q 791 374 818 403 q 729 326 764 346 q 654 294 694 307 q 571 276 614 281 q 489 271 529 271 q 389 278 438 271 q 291 300 339 285 q 315 215 298 256 q 358 145 331 175 q 425 97 385 115 q 519 79 465 79 q 587 90 555 79 q 647 121 620 101 q 695 168 674 140 q 728 228 715 195 l 827 191 q 766 99 805 138 q 678 34 727 60 q 573 -3 629 9 q 464 -16 518 -16 q 298 15 374 -16 q 168 99 222 45 q 81 229 113 153 q 50 393 50 304 q 81 558 50 483 q 168 688 113 633 q 298 772 222 742 q 464 802 374 802 q 553 796 507 802 q 641 777 598 790 q 722 743 684 764 q 788 691 760 722 q 832 619 816 660 q 849 526 849 578 m 545 870 l 410 870 l 195 1110 l 410 1110 l 545 870 z "},"ê":{"ha":897,"x_min":50,"x_max":849,"o":"m 284 372 q 368 357 326 362 q 453 351 410 351 q 536 360 498 351 q 603 388 574 368 q 647 441 631 408 q 663 524 663 475 q 652 597 663 564 q 620 654 642 631 q 568 691 599 678 q 495 705 536 705 q 426 690 456 705 q 371 652 395 676 q 331 596 348 628 q 304 530 315 564 q 288 460 293 495 q 283 393 283 425 q 283 382 283 388 q 284 372 283 377 m 849 526 q 833 440 849 478 q 791 374 818 403 q 729 326 764 346 q 654 294 694 307 q 571 276 614 281 q 489 271 529 271 q 389 278 438 271 q 291 300 339 285 q 315 215 298 256 q 358 145 331 175 q 425 97 385 115 q 519 79 465 79 q 587 90 555 79 q 647 121 620 101 q 695 168 674 140 q 728 228 715 195 l 827 191 q 766 99 805 138 q 678 34 727 60 q 573 -3 629 9 q 464 -16 518 -16 q 298 15 374 -16 q 168 99 222 45 q 81 229 113 153 q 50 393 50 304 q 81 558 50 483 q 168 688 113 633 q 298 772 222 742 q 464 802 374 802 q 553 796 507 802 q 641 777 598 790 q 722 743 684 764 q 788 691 760 722 q 832 619 816 660 q 849 526 849 578 m 669 872 l 499 872 l 455 966 l 410 872 l 311 872 l 442 1113 l 534 1113 l 669 872 z "},"ë":{"ha":897,"x_min":50,"x_max":849,"o":"m 284 372 q 368 357 326 362 q 453 351 410 351 q 536 360 498 351 q 603 388 574 368 q 647 441 631 408 q 663 524 663 475 q 652 597 663 564 q 620 654 642 631 q 568 691 599 678 q 495 705 536 705 q 426 690 456 705 q 371 652 395 676 q 331 596 348 628 q 304 530 315 564 q 288 460 293 495 q 283 393 283 425 q 283 382 283 388 q 284 372 283 377 m 849 526 q 833 440 849 478 q 791 374 818 403 q 729 326 764 346 q 654 294 694 307 q 571 276 614 281 q 489 271 529 271 q 389 278 438 271 q 291 300 339 285 q 315 215 298 256 q 358 145 331 175 q 425 97 385 115 q 519 79 465 79 q 587 90 555 79 q 647 121 620 101 q 695 168 674 140 q 728 228 715 195 l 827 191 q 766 99 805 138 q 678 34 727 60 q 573 -3 629 9 q 464 -16 518 -16 q 298 15 374 -16 q 168 99 222 45 q 81 229 113 153 q 50 393 50 304 q 81 558 50 483 q 168 688 113 633 q 298 772 222 742 q 464 802 374 802 q 553 796 507 802 q 641 777 598 790 q 722 743 684 764 q 788 691 760 722 q 832 619 816 660 q 849 526 849 578 m 705 955 q 697 916 705 935 q 676 884 690 898 q 644 863 663 871 q 605 855 626 855 q 566 863 585 855 q 534 884 548 871 q 513 916 521 898 q 505 955 505 935 q 513 994 505 975 q 534 1025 521 1012 q 566 1047 548 1039 q 605 1055 585 1055 q 644 1047 626 1055 q 676 1025 663 1039 q 697 994 690 1012 q 705 955 705 975 m 450 955 q 442 916 450 935 q 420 884 434 898 q 389 863 407 871 q 349 855 370 855 q 311 863 329 855 q 279 884 292 871 q 257 916 265 898 q 250 955 250 935 q 257 994 250 975 q 279 1025 265 1012 q 311 1047 292 1039 q 349 1055 329 1055 q 389 1047 370 1055 q 420 1025 407 1039 q 442 994 434 1012 q 450 955 450 975 z "},"í":{"ha":422,"x_min":96,"x_max":490,"o":"m 326 0 l 96 0 l 96 783 l 326 783 l 326 0 m 490 1092 l 275 852 l 140 852 l 275 1092 l 490 1092 z "},"ì":{"ha":422,"x_min":-66,"x_max":326,"o":"m 326 0 l 96 0 l 96 783 l 326 783 l 326 0 m 284 851 l 149 851 l -66 1091 l 149 1091 l 284 851 z "},"î":{"ha":422,"x_min":33,"x_max":390,"o":"m 326 0 l 96 0 l 96 783 l 326 783 l 326 0 m 390 853 l 220 853 l 176 947 l 132 853 l 33 853 l 163 1094 l 255 1094 l 390 853 z "},"ï":{"ha":422,"x_min":-16,"x_max":439,"o":"m 326 0 l 96 0 l 96 783 l 326 783 l 326 0 m 439 951 q 432 913 439 931 q 410 881 424 895 q 378 860 397 867 q 339 852 360 852 q 300 860 319 852 q 269 881 282 867 q 247 913 255 895 q 239 951 239 931 q 247 990 239 972 q 269 1022 255 1008 q 300 1043 282 1036 q 339 1051 319 1051 q 378 1043 360 1051 q 410 1022 397 1036 q 432 990 424 1008 q 439 951 439 972 m 184 951 q 176 913 184 931 q 155 881 168 895 q 123 860 141 867 q 83 852 104 852 q 45 860 63 852 q 13 881 26 867 q -8 913 -1 895 q -16 951 -16 931 q -8 990 -16 972 q 13 1022 -1 1008 q 45 1043 26 1036 q 83 1051 63 1051 q 123 1043 104 1051 q 155 1022 141 1036 q 176 990 168 1008 q 184 951 184 972 z "},"ñ":{"ha":952,"x_min":96,"x_max":897,"o":"m 897 449 q 877 283 897 370 q 823 115 858 197 q 741 -41 789 32 q 635 -167 692 -114 l 549 -120 q 583 -44 567 -86 q 613 45 600 -2 q 636 142 626 92 q 654 242 647 193 q 665 337 661 291 q 669 424 669 384 q 667 480 669 450 q 658 541 665 511 q 641 599 652 571 q 612 648 630 627 q 569 682 594 669 q 509 694 543 694 q 448 679 475 694 q 401 639 422 664 q 367 583 381 614 q 343 517 352 551 q 330 451 334 484 q 326 393 326 418 l 326 0 l 96 0 l 96 783 l 184 783 l 289 601 q 336 684 308 646 q 401 747 365 721 q 480 788 437 774 q 575 802 524 802 q 717 776 656 802 q 817 702 777 749 q 877 590 857 655 q 897 449 897 526 m 760 1079 q 747 1008 758 1045 q 718 939 737 970 q 669 887 699 907 q 600 866 640 866 q 528 876 560 866 q 470 899 496 886 q 422 922 444 911 q 382 932 401 932 q 361 925 370 932 q 348 909 353 919 q 340 888 342 899 q 338 866 338 876 l 233 866 q 244 939 234 901 q 274 1008 254 977 q 323 1059 294 1039 q 395 1079 353 1079 q 464 1069 431 1079 q 523 1047 496 1059 q 571 1025 549 1035 q 608 1015 592 1015 q 628 1021 619 1015 q 641 1037 636 1027 q 649 1058 646 1046 q 652 1079 652 1069 l 760 1079 z "},"ó":{"ha":972,"x_min":49,"x_max":923,"o":"m 923 393 q 907 279 923 332 q 862 180 890 225 q 792 98 833 134 q 703 37 751 62 q 599 -2 654 12 q 486 -16 544 -16 q 372 -2 427 -16 q 269 37 317 12 q 180 98 220 62 q 110 180 139 134 q 65 279 81 225 q 49 393 49 333 q 65 508 49 454 q 110 607 81 562 q 180 689 139 652 q 269 750 220 725 q 372 789 317 775 q 486 802 427 802 q 599 789 544 802 q 703 750 654 775 q 792 689 751 725 q 862 607 833 652 q 907 508 890 562 q 923 393 923 454 m 690 393 q 686 462 690 426 q 673 533 682 498 q 649 601 665 568 q 612 657 634 633 q 558 695 589 681 q 486 710 527 710 q 416 695 446 710 q 362 655 385 680 q 325 598 340 631 q 300 531 309 566 q 286 460 290 496 q 282 393 282 425 q 286 327 282 362 q 300 256 290 291 q 325 188 309 220 q 362 131 340 156 q 416 92 385 106 q 486 77 446 77 q 557 91 526 77 q 611 130 589 106 q 649 186 634 155 q 673 254 664 218 q 686 325 682 289 q 690 393 690 361 m 780 1103 l 565 863 l 430 863 l 564 1103 l 780 1103 z "},"ò":{"ha":972,"x_min":49,"x_max":923,"o":"m 923 393 q 907 279 923 332 q 862 180 890 225 q 792 98 833 134 q 703 37 751 62 q 599 -2 654 12 q 486 -16 544 -16 q 372 -2 427 -16 q 269 37 317 12 q 180 98 220 62 q 110 180 139 134 q 65 279 81 225 q 49 393 49 333 q 65 508 49 454 q 110 607 81 562 q 180 689 139 652 q 269 750 220 725 q 372 789 317 775 q 486 802 427 802 q 599 789 544 802 q 703 750 654 775 q 792 689 751 725 q 862 607 833 652 q 907 508 890 562 q 923 393 923 454 m 690 393 q 686 462 690 426 q 673 533 682 498 q 649 601 665 568 q 612 657 634 633 q 558 695 589 681 q 486 710 527 710 q 416 695 446 710 q 362 655 385 680 q 325 598 340 631 q 300 531 309 566 q 286 460 290 496 q 282 393 282 425 q 286 327 282 362 q 300 256 290 291 q 325 188 309 220 q 362 131 340 156 q 416 92 385 106 q 486 77 446 77 q 557 91 526 77 q 611 130 589 106 q 649 186 634 155 q 673 254 664 218 q 686 325 682 289 q 690 393 690 361 m 564 864 l 429 864 l 214 1104 l 429 1104 l 564 864 z "},"ô":{"ha":972,"x_min":49,"x_max":923,"o":"m 923 393 q 907 279 923 332 q 862 180 890 225 q 792 98 833 134 q 703 37 751 62 q 599 -2 654 12 q 486 -16 544 -16 q 372 -2 427 -16 q 269 37 317 12 q 180 98 220 62 q 110 180 139 134 q 65 279 81 225 q 49 393 49 333 q 65 508 49 454 q 110 607 81 562 q 180 689 139 652 q 269 750 220 725 q 372 789 317 775 q 486 802 427 802 q 599 789 544 802 q 703 750 654 775 q 792 689 751 725 q 862 607 833 652 q 907 508 890 562 q 923 393 923 454 m 690 393 q 686 462 690 426 q 673 533 682 498 q 649 601 665 568 q 612 657 634 633 q 558 695 589 681 q 486 710 527 710 q 416 695 446 710 q 362 655 385 680 q 325 598 340 631 q 300 531 309 566 q 286 460 290 496 q 282 393 282 425 q 286 327 282 362 q 300 256 290 291 q 325 188 309 220 q 362 131 340 156 q 416 92 385 106 q 486 77 446 77 q 557 91 526 77 q 611 130 589 106 q 649 186 634 155 q 673 254 664 218 q 686 325 682 289 q 690 393 690 361 m 665 866 l 495 866 l 451 960 l 406 866 l 307 866 l 438 1107 l 530 1107 l 665 866 z "},"ö":{"ha":972,"x_min":49,"x_max":923,"o":"m 923 393 q 907 279 923 332 q 862 180 890 225 q 792 98 833 134 q 703 37 751 62 q 599 -2 654 12 q 486 -16 544 -16 q 372 -2 427 -16 q 269 37 317 12 q 180 98 220 62 q 110 180 139 134 q 65 279 81 225 q 49 393 49 333 q 65 508 49 454 q 110 607 81 562 q 180 689 139 652 q 269 750 220 725 q 372 789 317 775 q 486 802 427 802 q 599 789 544 802 q 703 750 654 775 q 792 689 751 725 q 862 607 833 652 q 907 508 890 562 q 923 393 923 454 m 690 393 q 686 462 690 426 q 673 533 682 498 q 649 601 665 568 q 612 657 634 633 q 558 695 589 681 q 486 710 527 710 q 416 695 446 710 q 362 655 385 680 q 325 598 340 631 q 300 531 309 566 q 286 460 290 496 q 282 393 282 425 q 286 327 282 362 q 300 256 290 291 q 325 188 309 220 q 362 131 340 156 q 416 92 385 106 q 486 77 446 77 q 557 91 526 77 q 611 130 589 106 q 649 186 634 155 q 673 254 664 218 q 686 325 682 289 q 690 393 690 361 m 714 952 q 706 913 714 932 q 685 882 699 895 q 653 860 671 868 q 614 852 635 852 q 575 860 593 852 q 543 882 557 868 q 522 913 530 895 q 514 952 514 932 q 522 991 514 972 q 543 1023 530 1009 q 575 1044 557 1036 q 614 1052 593 1052 q 653 1044 635 1052 q 685 1023 671 1036 q 706 991 699 1009 q 714 952 714 972 m 458 952 q 451 913 458 932 q 429 882 443 895 q 397 860 416 868 q 358 852 379 852 q 319 860 338 852 q 288 882 301 868 q 266 913 274 895 q 258 952 258 932 q 266 991 258 972 q 288 1023 274 1009 q 319 1044 301 1036 q 358 1052 338 1052 q 397 1044 379 1052 q 429 1023 416 1036 q 451 991 443 1009 q 458 952 458 972 z "},"õ":{"ha":972,"x_min":49,"x_max":923,"o":"m 923 393 q 907 279 923 332 q 862 180 890 225 q 792 98 833 134 q 703 37 751 62 q 599 -2 654 12 q 486 -16 544 -16 q 372 -2 427 -16 q 269 37 317 12 q 180 98 220 62 q 110 180 139 134 q 65 279 81 225 q 49 393 49 333 q 65 508 49 454 q 110 607 81 562 q 180 689 139 652 q 269 750 220 725 q 372 789 317 775 q 486 802 427 802 q 599 789 544 802 q 703 750 654 775 q 792 689 751 725 q 862 607 833 652 q 907 508 890 562 q 923 393 923 454 m 690 393 q 686 462 690 426 q 673 533 682 498 q 649 601 665 568 q 612 657 634 633 q 558 695 589 681 q 486 710 527 710 q 416 695 446 710 q 362 655 385 680 q 325 598 340 631 q 300 531 309 566 q 286 460 290 496 q 282 393 282 425 q 286 327 282 362 q 300 256 290 291 q 325 188 309 220 q 362 131 340 156 q 416 92 385 106 q 486 77 446 77 q 557 91 526 77 q 611 130 589 106 q 649 186 634 155 q 673 254 664 218 q 686 325 682 289 q 690 393 690 361 m 750 1074 q 737 1002 747 1040 q 708 933 727 965 q 659 881 688 902 q 590 861 630 861 q 518 871 550 861 q 459 893 486 881 q 412 916 433 906 q 372 926 391 926 q 351 920 359 926 q 338 904 343 913 q 330 882 332 894 q 328 861 328 871 l 222 861 q 234 933 224 896 q 264 1002 244 971 q 313 1054 283 1034 q 385 1074 343 1074 q 453 1063 421 1074 q 512 1041 486 1053 q 561 1019 539 1029 q 597 1009 582 1009 q 617 1016 609 1009 q 631 1031 626 1022 q 639 1053 636 1041 q 642 1074 642 1064 l 750 1074 z "},"ú":{"ha":952,"x_min":56,"x_max":857,"o":"m 56 335 q 65 446 56 389 q 91 562 74 504 q 133 675 109 619 q 188 783 157 732 l 355 783 q 325 677 338 732 q 303 567 312 622 q 289 458 294 511 q 283 360 283 406 q 286 303 283 334 q 294 243 288 273 q 312 185 300 213 q 340 136 323 157 q 384 102 358 115 q 444 90 409 90 q 504 105 477 90 q 551 145 531 120 q 586 201 572 170 q 609 267 600 233 q 623 333 618 300 q 627 391 627 365 l 627 783 l 857 783 l 857 0 l 768 0 l 663 182 q 615 100 644 137 q 551 37 587 63 q 472 -4 515 10 q 377 -18 428 -18 q 235 8 296 -18 q 135 81 175 35 q 75 193 95 128 q 56 335 56 258 m 772 1091 l 557 851 l 422 851 l 557 1091 l 772 1091 z "},"ù":{"ha":952,"x_min":56,"x_max":857,"o":"m 56 335 q 65 446 56 389 q 91 562 74 504 q 133 675 109 619 q 188 783 157 732 l 355 783 q 325 677 338 732 q 303 567 312 622 q 289 458 294 511 q 283 360 283 406 q 286 303 283 334 q 294 243 288 273 q 312 185 300 213 q 340 136 323 157 q 384 102 358 115 q 444 90 409 90 q 504 105 477 90 q 551 145 531 120 q 586 201 572 170 q 609 267 600 233 q 623 333 618 300 q 627 391 627 365 l 627 783 l 857 783 l 857 0 l 768 0 l 663 182 q 615 100 644 137 q 551 37 587 63 q 472 -4 515 10 q 377 -18 428 -18 q 235 8 296 -18 q 135 81 175 35 q 75 193 95 128 q 56 335 56 258 m 556 851 l 420 851 l 206 1091 l 421 1091 l 556 851 z "},"û":{"ha":952,"x_min":56,"x_max":857,"o":"m 56 335 q 65 446 56 389 q 91 562 74 504 q 133 675 109 619 q 188 783 157 732 l 355 783 q 325 677 338 732 q 303 567 312 622 q 289 458 294 511 q 283 360 283 406 q 286 303 283 334 q 294 243 288 273 q 312 185 300 213 q 340 136 323 157 q 384 102 358 115 q 444 90 409 90 q 504 105 477 90 q 551 145 531 120 q 586 201 572 170 q 609 267 600 233 q 623 333 618 300 q 627 391 627 365 l 627 783 l 857 783 l 857 0 l 768 0 l 663 182 q 615 100 644 137 q 551 37 587 63 q 472 -4 515 10 q 377 -18 428 -18 q 235 8 296 -18 q 135 81 175 35 q 75 193 95 128 q 56 335 56 258 m 678 852 l 509 852 l 465 946 l 420 852 l 321 852 l 452 1093 l 543 1093 l 678 852 z "},"ü":{"ha":952,"x_min":56,"x_max":857,"o":"m 56 335 q 65 446 56 389 q 91 562 74 504 q 133 675 109 619 q 188 783 157 732 l 355 783 q 325 677 338 732 q 303 567 312 622 q 289 458 294 511 q 283 360 283 406 q 286 303 283 334 q 294 243 288 273 q 312 185 300 213 q 340 136 323 157 q 384 102 358 115 q 444 90 409 90 q 504 105 477 90 q 551 145 531 120 q 586 201 572 170 q 609 267 600 233 q 623 333 618 300 q 627 391 627 365 l 627 783 l 857 783 l 857 0 l 768 0 l 663 182 q 615 100 644 137 q 551 37 587 63 q 472 -4 515 10 q 377 -18 428 -18 q 235 8 296 -18 q 135 81 175 35 q 75 193 95 128 q 56 335 56 258 m 728 951 q 720 913 728 931 q 699 881 712 895 q 667 860 685 867 q 627 852 648 852 q 589 860 607 852 q 557 881 570 867 q 535 913 543 895 q 528 951 528 931 q 535 990 528 972 q 557 1022 543 1008 q 589 1043 570 1036 q 627 1051 607 1051 q 667 1043 648 1051 q 699 1022 685 1036 q 720 990 712 1008 q 728 951 728 972 m 472 951 q 464 913 472 931 q 443 881 456 895 q 411 860 429 867 q 372 852 393 852 q 333 860 351 852 q 301 881 315 867 q 280 913 288 895 q 272 951 272 931 q 280 990 272 972 q 301 1022 288 1008 q 333 1043 315 1036 q 372 1051 351 1051 q 411 1043 393 1051 q 443 1022 429 1036 q 464 990 456 1008 q 472 951 472 972 z "},"ﬁ":{"ha":1096,"x_min":18,"x_max":1010,"o":"m 802 1126 q 754 1098 773 1116 q 725 1059 736 1080 q 709 1016 714 1038 q 703 972 705 993 q 703 936 702 952 q 705 911 704 920 q 699 950 703 929 q 687 993 695 971 q 667 1035 679 1015 q 636 1071 654 1055 q 594 1096 618 1086 q 539 1105 570 1105 q 462 1083 491 1105 q 417 1019 433 1061 q 396 918 401 977 q 391 784 391 859 l 628 784 l 628 693 l 391 693 l 391 0 l 161 0 l 161 693 l 18 693 l 18 784 l 161 784 q 254 1106 161 1000 q 537 1213 347 1213 q 638 1203 594 1213 q 714 1178 682 1192 q 768 1148 746 1163 q 802 1126 789 1134 m 1010 972 q 1000 924 1010 947 q 973 884 990 901 q 933 857 956 867 q 884 847 910 847 q 836 857 859 847 q 796 884 813 867 q 769 924 779 901 q 760 972 760 947 q 769 1021 760 998 q 796 1061 779 1044 q 836 1087 813 1078 q 884 1097 859 1097 q 933 1087 910 1097 q 973 1061 956 1078 q 1000 1021 990 1044 q 1010 972 1010 998 m 1000 0 l 770 0 l 770 783 l 1000 783 l 1000 0 z "},"ﬂ":{"ha":1082,"x_min":18,"x_max":987,"o":"m 758 0 l 987 0 l 987 1144 l 899 1144 l 758 906 l 758 0 m 827 1126 l 698 911 q 688 971 696 937 q 664 1034 681 1004 q 616 1085 646 1064 q 539 1105 586 1105 q 462 1083 491 1105 q 417 1019 433 1061 q 396 918 401 977 q 391 784 391 859 l 628 784 l 628 693 l 391 693 l 391 0 l 161 0 l 161 693 l 18 693 l 18 784 l 161 784 q 254 1106 161 1000 q 537 1213 347 1213 q 639 1205 594 1213 q 719 1185 684 1198 q 781 1157 754 1173 q 827 1126 807 1141 z "},"ł":{"ha":559,"x_min":28,"x_max":541,"o":"m 541 555 l 393 467 l 393 0 l 163 0 l 163 331 l 28 250 l 28 395 l 163 476 l 163 1144 l 251 1144 l 393 906 l 393 612 l 541 701 l 541 555 z "}," ":{"ha":393,"x_min":0,"x_max":0,"o":""},"­":{"ha":869,"x_min":96,"x_max":774,"o":"m 774 427 l 96 427 l 96 551 l 774 551 l 774 427 z "},"̒":{"ha":304,"x_min":55,"x_max":252,"o":"m 252 779 q 244 740 252 758 q 223 709 237 722 q 192 687 210 695 q 153 680 174 680 q 115 687 133 680 q 84 708 97 695 q 63 740 71 722 q 55 779 55 758 q 61 829 55 803 q 80 880 68 855 q 107 927 92 905 q 141 965 123 949 l 219 924 q 196 901 208 915 q 182 873 184 888 q 233 837 214 863 q 252 779 252 811 z "},"̕":{"ha":297,"x_min":50,"x_max":247,"o":"m 247 866 q 240 815 247 842 q 222 765 234 789 q 195 719 210 741 q 161 680 179 696 l 83 721 q 106 744 94 730 q 119 772 117 758 q 69 808 88 781 q 50 866 50 834 q 57 904 50 886 q 78 936 65 922 q 110 957 92 949 q 148 965 127 965 q 186 957 168 965 q 218 936 205 949 q 239 905 231 923 q 247 866 247 886 z "},"̦":{"ha":313,"x_min":57,"x_max":254,"o":"m 254 -175 q 248 -226 254 -200 q 230 -277 241 -252 q 202 -323 218 -301 q 168 -362 186 -345 l 90 -321 q 113 -298 102 -312 q 127 -270 125 -284 q 76 -234 96 -260 q 57 -175 57 -208 q 65 -137 57 -155 q 86 -105 73 -119 q 118 -84 100 -92 q 156 -76 136 -76 q 194 -84 176 -76 q 225 -105 212 -92 q 247 -137 239 -119 q 254 -175 254 -155 z "},"ȷ":{"ha":420,"x_min":-41,"x_max":328,"o":"m 328 227 q 307 63 328 146 q 250 -98 287 -20 q 162 -244 213 -176 q 49 -361 111 -312 l -41 -307 q 20 -200 -6 -260 q 63 -75 45 -140 q 89 55 80 -11 q 98 179 98 120 l 98 783 l 328 783 l 328 227 z "},"¤":{"ha":606,"x_min":68,"x_max":538,"o":"m 383 500 q 377 530 383 516 q 360 554 371 544 q 336 571 350 565 q 307 577 322 577 q 277 571 291 577 q 254 554 264 565 q 237 530 243 544 q 231 500 231 516 q 237 471 231 485 q 253 446 243 457 q 277 429 263 435 q 307 423 291 423 q 336 429 322 423 q 360 446 350 435 q 377 471 371 456 q 383 500 383 485 m 478 269 l 382 364 q 308 345 348 345 q 267 351 286 345 q 231 366 248 356 l 127 262 l 68 322 l 173 427 q 155 499 155 459 q 174 573 155 538 l 78 669 l 138 728 l 233 633 q 269 648 250 642 q 308 653 288 653 q 346 648 328 653 q 380 635 364 644 l 468 722 l 528 663 l 441 576 q 462 499 462 541 q 457 460 462 479 q 442 424 452 441 l 538 328 l 478 269 z "},"Ĳ":{"ha":979,"x_min":111,"x_max":873,"o":"m 380 0 l 111 0 l 111 977 l 380 977 l 380 0 m 873 307 q 849 115 873 212 q 782 -74 825 18 q 679 -244 739 -165 q 546 -382 618 -323 l 441 -319 q 513 -193 482 -264 q 564 -47 543 -123 q 594 106 584 29 q 604 252 604 182 l 604 977 l 873 977 l 873 307 z "},"ĳ":{"ha":843,"x_min":86,"x_max":760,"o":"m 336 972 q 327 924 336 947 q 300 884 317 901 q 260 857 283 867 q 211 847 237 847 q 162 857 185 847 q 123 884 140 867 q 96 924 106 901 q 86 972 86 947 q 96 1021 86 998 q 123 1061 106 1044 q 162 1087 140 1078 q 211 1097 185 1097 q 260 1087 237 1097 q 300 1061 283 1078 q 327 1021 317 1044 q 336 972 336 998 m 326 0 l 96 0 l 96 783 l 326 783 l 326 0 m 760 972 q 750 924 760 947 q 724 884 741 901 q 684 857 707 867 q 635 847 661 847 q 587 857 610 847 q 547 884 564 867 q 520 924 530 901 q 510 972 510 947 q 520 1021 510 998 q 547 1061 530 1044 q 587 1087 564 1078 q 635 1097 610 1097 q 684 1087 661 1097 q 724 1061 707 1078 q 750 1021 741 1044 q 760 972 760 998 m 750 227 q 730 63 750 146 q 672 -98 709 -20 q 584 -244 635 -176 q 471 -361 533 -312 l 382 -307 q 442 -200 416 -260 q 485 -75 468 -140 q 511 55 503 -11 q 520 179 520 120 l 520 783 l 750 783 l 750 227 z "},"Ǽ":{"ha":1540,"x_min":100,"x_max":1484,"o":"m 1484 0 l 907 0 q 831 -114 872 -62 q 744 -208 790 -167 l 643 -149 q 686 -62 667 -109 q 721 37 705 -15 q 748 142 736 88 q 766 250 759 197 q 778 356 774 304 q 781 454 781 408 q 781 537 781 491 q 774 632 780 584 q 756 726 769 680 q 721 808 744 772 q 662 865 698 844 q 573 887 626 887 q 493 871 526 887 q 437 828 460 855 q 401 766 414 802 q 380 692 387 731 q 371 613 373 653 q 369 538 369 574 l 369 349 l 661 349 l 661 237 l 369 237 l 369 0 l 100 0 l 100 496 q 134 691 100 603 q 230 843 168 779 q 379 941 292 906 q 573 977 466 977 l 1484 977 l 1484 852 l 1052 852 l 1052 550 l 1385 550 l 1385 426 l 1052 426 l 1052 125 l 1484 125 l 1484 0 m 1133 1286 l 918 1046 l 783 1046 l 917 1286 l 1133 1286 z "},"ǽ":{"ha":1459,"x_min":47,"x_max":1412,"o":"m 613 415 q 528 430 570 424 q 444 435 486 435 q 360 427 399 435 q 294 398 322 418 q 250 345 266 378 q 233 262 233 312 q 244 189 233 222 q 276 132 255 156 q 329 95 298 109 q 402 82 361 82 q 500 105 460 82 q 566 169 541 127 q 602 267 591 210 q 613 393 613 324 l 613 415 m 847 372 q 931 357 889 362 q 1016 351 973 351 q 1099 360 1061 351 q 1165 388 1137 368 q 1210 441 1194 408 q 1226 524 1226 475 q 1215 597 1226 564 q 1183 654 1204 631 q 1131 691 1162 678 q 1058 705 1099 705 q 988 690 1019 705 q 934 652 958 676 q 894 596 911 628 q 867 530 878 564 q 851 460 856 495 q 846 393 846 425 q 847 382 846 388 q 847 372 847 377 m 1412 526 q 1396 440 1412 478 q 1354 374 1381 403 q 1292 326 1327 346 q 1217 294 1257 307 q 1134 276 1177 281 q 1052 271 1092 271 q 951 278 1001 271 q 854 300 902 285 q 878 215 861 256 q 921 145 894 175 q 988 97 949 115 q 1082 79 1027 79 q 1150 90 1118 79 q 1210 121 1183 101 q 1258 168 1237 140 q 1291 228 1278 195 l 1390 191 q 1329 99 1368 138 q 1241 34 1290 60 q 1136 -3 1192 9 q 1027 -16 1081 -16 q 915 -5 964 -16 q 823 26 865 5 q 744 81 781 47 q 667 162 706 115 q 628 98 654 130 q 566 41 602 66 q 488 0 530 16 q 399 -16 445 -16 q 271 -2 334 -16 q 158 44 208 12 q 78 129 109 76 q 47 260 47 182 q 63 346 47 308 q 105 412 79 384 q 168 460 132 441 q 243 493 203 480 q 326 511 283 505 q 408 516 368 516 q 508 509 458 516 q 606 486 557 502 q 582 571 598 531 q 538 642 566 611 q 472 690 511 672 q 378 707 432 707 q 310 696 342 707 q 250 666 277 686 q 202 619 223 646 q 169 558 181 591 l 69 595 q 131 688 92 649 q 219 752 170 727 q 323 790 268 778 q 433 802 378 802 q 599 772 524 802 q 730 687 675 742 q 861 772 785 742 q 1027 802 937 802 q 1116 796 1070 802 q 1204 777 1161 790 q 1284 743 1246 764 q 1351 691 1322 722 q 1395 619 1379 660 q 1412 526 1412 578 m 1015 1058 l 800 818 l 665 818 l 799 1058 l 1015 1058 z "},"Ā":{"ha":1105,"x_min":99,"x_max":1042,"o":"m 1040 467 l 1040 454 q 1028 336 1039 397 q 999 214 1018 275 q 954 94 980 153 q 894 -21 927 34 q 823 -123 861 -75 q 743 -208 785 -171 l 642 -149 q 685 -62 666 -109 q 720 37 705 -15 q 747 142 736 88 q 766 250 758 197 q 777 356 773 304 q 781 454 781 408 q 780 537 781 491 q 775 632 780 584 q 758 726 770 680 q 724 808 747 772 q 666 865 701 844 q 577 887 630 887 q 497 871 530 887 q 440 828 463 855 q 402 766 416 802 q 381 692 389 731 q 371 613 373 653 q 368 538 368 574 l 368 349 l 661 349 l 661 237 l 368 237 l 368 0 l 99 0 l 99 496 q 133 694 99 603 q 229 853 167 786 q 378 959 291 921 q 572 998 465 998 q 708 977 645 998 q 824 920 772 956 q 917 834 876 884 q 986 725 958 784 q 1027 600 1013 666 q 1040 467 1042 534 m 760 1064 l 390 1064 l 390 1198 l 760 1198 l 760 1064 z "},"ā":{"ha":980,"x_min":52,"x_max":884,"o":"m 884 0 l 655 0 l 655 94 q 557 11 614 38 q 431 -16 500 -16 q 271 16 342 -16 q 152 103 201 48 q 77 233 103 159 q 52 393 52 308 q 77 553 52 479 q 152 683 103 628 q 271 770 201 739 q 431 802 342 802 q 518 789 477 802 q 593 750 559 775 q 653 691 627 726 q 694 613 680 656 l 796 783 l 884 783 l 884 0 m 654 393 q 651 458 654 424 q 640 525 648 492 q 620 588 633 558 q 586 642 606 618 q 536 679 565 665 q 468 692 507 692 q 401 679 429 692 q 352 641 372 665 q 318 587 332 618 q 298 524 305 557 q 287 457 290 490 q 284 393 284 423 q 287 330 284 363 q 298 262 290 296 q 318 199 305 229 q 352 145 332 168 q 401 107 372 121 q 468 94 429 94 q 531 108 503 94 q 579 147 558 123 q 614 203 600 172 q 637 267 628 234 q 650 333 646 300 q 654 393 654 366 m 675 871 l 305 871 l 305 1005 l 675 1005 l 675 871 z "},"Ă":{"ha":1105,"x_min":99,"x_max":1042,"o":"m 1040 467 l 1040 454 q 1028 336 1039 397 q 999 214 1018 275 q 954 94 980 153 q 894 -21 927 34 q 823 -123 861 -75 q 743 -208 785 -171 l 642 -149 q 685 -62 666 -109 q 720 37 705 -15 q 747 142 736 88 q 766 250 758 197 q 777 356 773 304 q 781 454 781 408 q 780 537 781 491 q 775 632 780 584 q 758 726 770 680 q 724 808 747 772 q 666 865 701 844 q 577 887 630 887 q 497 871 530 887 q 440 828 463 855 q 402 766 416 802 q 381 692 389 731 q 371 613 373 653 q 368 538 368 574 l 368 349 l 661 349 l 661 237 l 368 237 l 368 0 l 99 0 l 99 496 q 133 694 99 603 q 229 853 167 786 q 378 959 291 921 q 572 998 465 998 q 708 977 645 998 q 824 920 772 956 q 917 834 876 884 q 986 725 958 784 q 1027 600 1013 666 q 1040 467 1042 534 m 740 1236 q 724 1169 737 1200 q 688 1115 710 1138 q 635 1079 665 1092 q 568 1065 604 1065 q 501 1079 531 1065 q 450 1116 471 1093 q 415 1170 428 1139 q 399 1236 402 1201 l 498 1236 q 502 1215 498 1228 q 513 1190 505 1202 q 535 1169 522 1178 q 568 1160 548 1160 q 603 1169 589 1160 q 625 1190 616 1178 q 638 1215 634 1202 q 642 1236 642 1228 l 740 1236 z "},"ă":{"ha":980,"x_min":52,"x_max":884,"o":"m 884 0 l 655 0 l 655 94 q 557 11 614 38 q 431 -16 500 -16 q 271 16 342 -16 q 152 103 201 48 q 77 233 103 159 q 52 393 52 308 q 77 553 52 479 q 152 683 103 628 q 271 770 201 739 q 431 802 342 802 q 518 789 477 802 q 593 750 559 775 q 653 691 627 726 q 694 613 680 656 l 796 783 l 884 783 l 884 0 m 654 393 q 651 458 654 424 q 640 525 648 492 q 620 588 633 558 q 586 642 606 618 q 536 679 565 665 q 468 692 507 692 q 401 679 429 692 q 352 641 372 665 q 318 587 332 618 q 298 524 305 557 q 287 457 290 490 q 284 393 284 423 q 287 330 284 363 q 298 262 290 296 q 318 199 305 229 q 352 145 332 168 q 401 107 372 121 q 468 94 429 94 q 531 108 503 94 q 579 147 558 123 q 614 203 600 172 q 637 267 628 234 q 650 333 646 300 q 654 393 654 366 m 618 1042 q 602 975 615 1006 q 566 921 588 944 q 513 885 543 898 q 446 871 482 871 q 379 885 409 871 q 328 922 349 899 q 293 976 306 945 q 277 1042 280 1007 l 376 1042 q 379 1021 376 1034 q 391 996 383 1008 q 413 975 399 984 q 446 966 426 966 q 480 975 467 966 q 503 996 494 984 q 516 1021 512 1008 q 520 1042 519 1034 l 618 1042 z "},"Ą":{"ha":1105,"x_min":99,"x_max":1042,"o":"m 898 -280 q 888 -331 898 -307 q 860 -373 878 -355 q 819 -401 842 -391 q 768 -412 795 -412 q 704 -401 733 -412 q 654 -371 675 -391 q 621 -322 633 -351 q 609 -259 609 -294 q 623 -205 609 -231 q 659 -158 637 -180 l 642 -149 q 685 -62 666 -109 q 720 37 705 -15 q 747 142 736 88 q 766 250 758 197 q 777 356 773 304 q 781 454 781 408 q 780 537 781 491 q 775 632 780 584 q 758 726 770 680 q 724 808 747 772 q 666 865 701 844 q 577 887 630 887 q 497 871 530 887 q 440 828 463 855 q 402 766 416 802 q 381 692 389 731 q 371 613 373 653 q 368 538 368 574 l 368 349 l 661 349 l 661 237 l 368 237 l 368 0 l 99 0 l 99 496 q 133 694 99 603 q 229 853 167 786 q 378 959 291 921 q 572 998 465 998 q 708 977 645 998 q 824 920 772 956 q 917 834 876 884 q 986 725 958 784 q 1027 600 1013 666 q 1040 467 1042 534 l 1040 454 q 1028 336 1039 397 q 999 214 1018 275 q 954 94 980 153 q 894 -21 927 34 q 823 -123 861 -75 q 743 -208 785 -171 l 732 -201 q 717 -259 717 -231 q 729 -302 717 -286 q 770 -319 742 -319 q 804 -310 787 -319 q 821 -280 821 -300 l 898 -280 z "},"ą":{"ha":980,"x_min":52,"x_max":919,"o":"m 919 -151 q 909 -202 919 -178 q 881 -244 899 -226 q 840 -272 863 -262 q 789 -283 816 -283 q 725 -272 754 -283 q 675 -242 696 -262 q 642 -194 654 -222 q 630 -130 630 -165 q 637 -93 630 -111 q 655 -58 644 -75 q 682 -27 667 -41 q 714 0 697 -12 l 655 0 l 655 94 q 557 11 614 38 q 431 -16 500 -16 q 271 16 342 -16 q 152 103 201 48 q 77 233 103 159 q 52 393 52 308 q 77 553 52 479 q 152 683 103 628 q 271 770 201 739 q 431 802 342 802 q 518 789 477 802 q 593 750 559 775 q 653 691 627 726 q 694 613 680 656 l 796 783 l 884 783 l 884 0 l 807 0 q 781 -29 793 -14 q 759 -61 768 -44 q 744 -96 749 -78 q 738 -130 738 -113 q 750 -174 738 -157 q 791 -191 763 -191 q 825 -181 808 -191 q 842 -151 842 -171 l 919 -151 m 654 393 q 651 458 654 424 q 640 525 648 492 q 620 588 633 558 q 586 642 606 618 q 536 679 565 665 q 468 692 507 692 q 401 679 429 692 q 352 641 372 665 q 318 587 332 618 q 298 524 305 557 q 287 457 290 490 q 284 393 284 423 q 287 330 284 363 q 298 262 290 296 q 318 199 305 229 q 352 145 332 168 q 401 107 372 121 q 468 94 429 94 q 531 108 503 94 q 579 147 558 123 q 614 203 600 172 q 637 267 628 234 q 650 333 646 300 q 654 393 654 366 z "},"Ć":{"ha":1044,"x_min":55,"x_max":998,"o":"m 998 734 l 882 686 q 845 766 868 730 q 791 829 823 803 q 720 870 760 855 q 632 884 680 884 q 539 868 581 884 q 463 822 496 851 q 404 754 429 793 q 362 672 379 715 q 337 581 345 628 q 329 490 329 534 q 346 348 329 418 q 398 221 362 277 q 492 130 435 165 q 632 95 550 95 q 714 110 675 95 q 784 150 753 124 q 840 210 816 175 q 878 284 863 244 l 995 237 q 924 124 969 173 q 822 44 880 76 q 700 -4 765 12 q 568 -20 634 -20 q 430 -2 496 -20 q 307 48 363 16 q 203 127 250 81 q 124 229 157 173 q 73 352 91 286 q 55 490 55 418 q 73 628 55 562 q 124 750 91 694 q 203 853 157 807 q 307 932 250 899 q 430 982 363 964 q 568 1000 496 1000 q 703 983 637 1000 q 826 934 769 967 q 927 851 883 901 q 998 734 972 802 m 858 1310 l 643 1069 l 508 1069 l 642 1310 l 858 1310 z "},"ć":{"ha":859,"x_min":50,"x_max":819,"o":"m 819 589 l 720 550 q 640 665 696 625 q 507 705 585 705 q 432 691 465 705 q 374 655 399 678 q 332 602 349 632 q 304 536 315 571 q 288 465 293 502 q 283 393 283 428 q 288 318 283 356 q 301 245 292 280 q 328 180 311 210 q 369 127 344 150 q 428 92 393 105 q 507 79 462 79 q 575 90 543 79 q 635 121 608 101 q 683 168 662 140 q 716 228 704 195 l 816 191 q 756 99 793 138 q 673 34 720 60 q 572 -3 626 9 q 464 -16 519 -16 q 299 15 375 -16 q 168 99 223 45 q 81 229 113 154 q 50 393 50 304 q 81 559 50 484 q 167 688 112 634 q 298 772 222 743 q 464 802 374 802 q 575 790 521 802 q 676 751 629 777 q 759 685 722 725 q 819 589 796 645 m 743 1110 l 528 870 l 393 870 l 527 1110 l 743 1110 z "},"Ĉ":{"ha":1044,"x_min":55,"x_max":998,"o":"m 998 734 l 882 686 q 845 766 868 730 q 791 829 823 803 q 720 870 760 855 q 632 884 680 884 q 539 868 581 884 q 463 822 496 851 q 404 754 429 793 q 362 672 379 715 q 337 581 345 628 q 329 490 329 534 q 346 348 329 418 q 398 221 362 277 q 492 130 435 165 q 632 95 550 95 q 714 110 675 95 q 784 150 753 124 q 840 210 816 175 q 878 284 863 244 l 995 237 q 924 124 969 173 q 822 44 880 76 q 700 -4 765 12 q 568 -20 634 -20 q 430 -2 496 -20 q 307 48 363 16 q 203 127 250 81 q 124 229 157 173 q 73 352 91 286 q 55 490 55 418 q 73 628 55 562 q 124 750 91 694 q 203 853 157 807 q 307 932 250 899 q 430 982 363 964 q 568 1000 496 1000 q 703 983 637 1000 q 826 934 769 967 q 927 851 883 901 q 998 734 972 802 m 766 1067 l 597 1067 l 553 1160 l 508 1067 l 409 1067 l 540 1308 l 631 1308 l 766 1067 z "},"ĉ":{"ha":859,"x_min":50,"x_max":819,"o":"m 819 589 l 720 550 q 640 665 696 625 q 507 705 585 705 q 432 691 465 705 q 374 655 399 678 q 332 602 349 632 q 304 536 315 571 q 288 465 293 502 q 283 393 283 428 q 288 318 283 356 q 301 245 292 280 q 328 180 311 210 q 369 127 344 150 q 428 92 393 105 q 507 79 462 79 q 575 90 543 79 q 635 121 608 101 q 683 168 662 140 q 716 228 704 195 l 816 191 q 756 99 793 138 q 673 34 720 60 q 572 -3 626 9 q 464 -16 519 -16 q 299 15 375 -16 q 168 99 223 45 q 81 229 113 154 q 50 393 50 304 q 81 559 50 484 q 167 688 112 634 q 298 772 222 743 q 464 802 374 802 q 575 790 521 802 q 676 751 629 777 q 759 685 722 725 q 819 589 796 645 m 646 872 l 476 872 l 432 966 l 387 872 l 288 872 l 419 1113 l 511 1113 l 646 872 z "},"Ċ":{"ha":1044,"x_min":55,"x_max":998,"o":"m 998 734 l 882 686 q 845 766 868 730 q 791 829 823 803 q 720 870 760 855 q 632 884 680 884 q 539 868 581 884 q 463 822 496 851 q 404 754 429 793 q 362 672 379 715 q 337 581 345 628 q 329 490 329 534 q 346 348 329 418 q 398 221 362 277 q 492 130 435 165 q 632 95 550 95 q 714 110 675 95 q 784 150 753 124 q 840 210 816 175 q 878 284 863 244 l 995 237 q 924 124 969 173 q 822 44 880 76 q 700 -4 765 12 q 568 -20 634 -20 q 430 -2 496 -20 q 307 48 363 16 q 203 127 250 81 q 124 229 157 173 q 73 352 91 286 q 55 490 55 418 q 73 628 55 562 q 124 750 91 694 q 203 853 157 807 q 307 932 250 899 q 430 982 363 964 q 568 1000 496 1000 q 703 983 637 1000 q 826 934 769 967 q 927 851 883 901 q 998 734 972 802 m 691 1167 q 683 1128 691 1147 q 662 1097 675 1110 q 630 1075 648 1083 q 591 1067 612 1067 q 552 1075 570 1067 q 520 1097 534 1083 q 499 1128 507 1110 q 491 1167 491 1147 q 499 1206 491 1187 q 520 1238 507 1224 q 552 1259 534 1251 q 591 1267 570 1267 q 630 1259 612 1267 q 662 1238 648 1251 q 683 1206 675 1224 q 691 1167 691 1187 z "},"ċ":{"ha":859,"x_min":50,"x_max":819,"o":"m 819 589 l 720 550 q 640 665 696 625 q 507 705 585 705 q 432 691 465 705 q 374 655 399 678 q 332 602 349 632 q 304 536 315 571 q 288 465 293 502 q 283 393 283 428 q 288 318 283 356 q 301 245 292 280 q 328 180 311 210 q 369 127 344 150 q 428 92 393 105 q 507 79 462 79 q 575 90 543 79 q 635 121 608 101 q 683 168 662 140 q 716 228 704 195 l 816 191 q 756 99 793 138 q 673 34 720 60 q 572 -3 626 9 q 464 -16 519 -16 q 299 15 375 -16 q 168 99 223 45 q 81 229 113 154 q 50 393 50 304 q 81 559 50 484 q 167 688 112 634 q 298 772 222 743 q 464 802 374 802 q 575 790 521 802 q 676 751 629 777 q 759 685 722 725 q 819 589 796 645 m 579 970 q 571 932 579 950 q 550 900 564 913 q 518 879 536 886 q 479 871 500 871 q 440 879 458 871 q 408 900 422 886 q 387 932 395 913 q 379 970 379 950 q 387 1009 379 991 q 408 1041 395 1027 q 440 1062 422 1055 q 479 1070 458 1070 q 518 1062 500 1070 q 550 1041 536 1055 q 571 1009 564 1027 q 579 970 579 991 z "},"Č":{"ha":1044,"x_min":55,"x_max":998,"o":"m 998 734 l 882 686 q 845 766 868 730 q 791 829 823 803 q 720 870 760 855 q 632 884 680 884 q 539 868 581 884 q 463 822 496 851 q 404 754 429 793 q 362 672 379 715 q 337 581 345 628 q 329 490 329 534 q 346 348 329 418 q 398 221 362 277 q 492 130 435 165 q 632 95 550 95 q 714 110 675 95 q 784 150 753 124 q 840 210 816 175 q 878 284 863 244 l 995 237 q 924 124 969 173 q 822 44 880 76 q 700 -4 765 12 q 568 -20 634 -20 q 430 -2 496 -20 q 307 48 363 16 q 203 127 250 81 q 124 229 157 173 q 73 352 91 286 q 55 490 55 418 q 73 628 55 562 q 124 750 91 694 q 203 853 157 807 q 307 932 250 899 q 430 982 363 964 q 568 1000 496 1000 q 703 983 637 1000 q 826 934 769 967 q 927 851 883 901 q 998 734 972 802 m 774 1307 l 639 1067 l 527 1067 l 396 1307 l 563 1307 l 608 1214 l 652 1307 l 774 1307 z "},"č":{"ha":859,"x_min":50,"x_max":819,"o":"m 819 589 l 720 550 q 640 665 696 625 q 507 705 585 705 q 432 691 465 705 q 374 655 399 678 q 332 602 349 632 q 304 536 315 571 q 288 465 293 502 q 283 393 283 428 q 288 318 283 356 q 301 245 292 280 q 328 180 311 210 q 369 127 344 150 q 428 92 393 105 q 507 79 462 79 q 575 90 543 79 q 635 121 608 101 q 683 168 662 140 q 716 228 704 195 l 816 191 q 756 99 793 138 q 673 34 720 60 q 572 -3 626 9 q 464 -16 519 -16 q 299 15 375 -16 q 168 99 223 45 q 81 229 113 154 q 50 393 50 304 q 81 559 50 484 q 167 688 112 634 q 298 772 222 743 q 464 802 374 802 q 575 790 521 802 q 676 751 629 777 q 759 685 722 725 q 819 589 796 645 m 665 1110 l 530 870 l 418 870 l 288 1110 l 454 1110 l 499 1017 l 543 1110 l 665 1110 z "},"Ď":{"ha":1112,"x_min":111,"x_max":1057,"o":"m 1057 490 q 1038 354 1057 418 q 985 236 1019 290 q 903 138 951 182 q 799 64 856 94 q 676 17 741 33 q 541 0 610 0 l 111 0 l 111 977 l 541 977 q 675 960 610 977 q 798 914 741 944 q 903 840 855 884 q 985 743 951 797 q 1038 625 1019 689 q 1057 490 1057 561 m 784 490 q 765 641 784 569 q 705 766 745 712 q 601 852 664 821 q 451 884 538 884 l 380 884 l 380 95 l 451 95 q 600 127 537 95 q 704 214 663 159 q 764 340 745 269 q 784 490 784 411 m 707 1284 l 572 1044 l 460 1044 l 330 1284 l 496 1284 l 541 1192 l 585 1284 l 707 1284 z "},"ď":{"ha":1352,"x_min":52,"x_max":1289,"o":"m 885 0 l 797 0 l 695 170 q 654 93 680 127 q 594 34 628 58 q 518 -5 559 9 q 432 -18 477 -18 q 272 14 342 -18 q 153 101 201 45 q 78 231 104 156 q 52 391 52 305 q 78 551 52 476 q 153 680 104 625 q 272 767 201 735 q 432 799 342 799 q 558 772 500 799 q 656 690 615 746 l 656 1072 l 885 1072 l 885 0 m 654 391 q 650 450 654 418 q 637 516 646 483 q 614 581 629 549 q 579 636 600 612 q 531 675 559 661 q 469 690 504 690 q 401 676 430 690 q 353 638 373 662 q 319 585 332 615 q 298 521 306 554 q 288 454 291 488 q 285 391 285 420 q 288 327 285 361 q 298 260 291 294 q 319 196 306 227 q 353 142 332 165 q 401 105 373 119 q 469 91 430 91 q 536 104 507 91 q 586 141 566 118 q 620 195 607 165 q 641 259 633 225 q 651 326 648 292 q 654 391 654 360 m 1289 871 q 1281 807 1289 840 q 1258 744 1273 774 q 1224 686 1244 713 q 1181 637 1204 659 l 1084 689 q 1113 718 1098 700 q 1130 753 1127 735 q 1094 770 1110 759 q 1067 798 1078 782 q 1049 832 1055 813 q 1042 871 1042 850 q 1052 919 1042 896 q 1079 958 1062 941 q 1118 984 1095 975 q 1166 994 1140 994 q 1214 985 1192 994 q 1253 958 1236 975 q 1280 919 1270 941 q 1289 871 1289 897 z "},"Đ":{"ha":1157,"x_min":20,"x_max":1102,"o":"m 155 427 l 20 427 l 20 551 l 155 551 l 155 977 l 586 977 q 720 960 655 977 q 843 914 785 944 q 948 840 900 884 q 1030 743 996 797 q 1083 625 1064 689 q 1102 490 1102 561 q 1083 354 1102 418 q 1030 236 1064 290 q 948 138 996 182 q 843 64 901 94 q 721 17 786 33 q 586 0 655 0 l 155 0 l 155 427 m 587 427 l 425 427 l 425 95 l 496 95 q 645 127 582 95 q 748 214 707 159 q 809 340 789 269 q 829 490 829 411 q 810 641 829 569 q 750 766 791 712 q 646 852 709 821 q 496 884 583 884 l 425 884 l 425 551 l 587 551 l 587 427 z "},"Ē":{"ha":868,"x_min":111,"x_max":812,"o":"m 812 0 l 111 0 l 111 977 l 812 977 l 812 852 l 380 852 l 380 550 l 713 550 l 713 426 l 380 426 l 380 125 l 812 125 l 812 0 m 618 1042 l 249 1042 l 249 1177 l 618 1177 l 618 1042 z "},"ē":{"ha":897,"x_min":50,"x_max":849,"o":"m 284 372 q 368 357 326 362 q 453 351 410 351 q 536 360 498 351 q 603 388 574 368 q 647 441 631 408 q 663 524 663 475 q 652 597 663 564 q 620 654 642 631 q 568 691 599 678 q 495 705 536 705 q 426 690 456 705 q 371 652 395 676 q 331 596 348 628 q 304 530 315 564 q 288 460 293 495 q 283 393 283 425 q 283 382 283 388 q 284 372 283 377 m 849 526 q 833 440 849 478 q 791 374 818 403 q 729 326 764 346 q 654 294 694 307 q 571 276 614 281 q 489 271 529 271 q 389 278 438 271 q 291 300 339 285 q 315 215 298 256 q 358 145 331 175 q 425 97 385 115 q 519 79 465 79 q 587 90 555 79 q 647 121 620 101 q 695 168 674 140 q 728 228 715 195 l 827 191 q 766 99 805 138 q 678 34 727 60 q 573 -3 629 9 q 464 -16 518 -16 q 298 15 374 -16 q 168 99 222 45 q 81 229 113 153 q 50 393 50 304 q 81 558 50 483 q 168 688 113 633 q 298 772 222 742 q 464 802 374 802 q 553 796 507 802 q 641 777 598 790 q 722 743 684 764 q 788 691 760 722 q 832 619 816 660 q 849 526 849 578 m 633 871 l 263 871 l 263 1005 l 633 1005 l 633 871 z "},"Ĕ":{"ha":868,"x_min":111,"x_max":812,"o":"m 812 0 l 111 0 l 111 977 l 812 977 l 812 852 l 380 852 l 380 550 l 713 550 l 713 426 l 380 426 l 380 125 l 812 125 l 812 0 m 614 1213 q 598 1146 612 1177 q 562 1092 585 1115 q 509 1056 540 1069 q 442 1042 479 1042 q 376 1056 406 1042 q 324 1093 346 1069 q 290 1147 302 1116 q 274 1213 277 1178 l 372 1213 q 376 1192 372 1205 q 388 1167 380 1179 q 409 1146 396 1155 q 442 1137 422 1137 q 477 1146 463 1137 q 500 1167 491 1155 q 512 1192 509 1179 q 517 1213 516 1205 l 614 1213 z "},"ĕ":{"ha":897,"x_min":50,"x_max":849,"o":"m 284 372 q 368 357 326 362 q 453 351 410 351 q 536 360 498 351 q 603 388 574 368 q 647 441 631 408 q 663 524 663 475 q 652 597 663 564 q 620 654 642 631 q 568 691 599 678 q 495 705 536 705 q 426 690 456 705 q 371 652 395 676 q 331 596 348 628 q 304 530 315 564 q 288 460 293 495 q 283 393 283 425 q 283 382 283 388 q 284 372 283 377 m 849 526 q 833 440 849 478 q 791 374 818 403 q 729 326 764 346 q 654 294 694 307 q 571 276 614 281 q 489 271 529 271 q 389 278 438 271 q 291 300 339 285 q 315 215 298 256 q 358 145 331 175 q 425 97 385 115 q 519 79 465 79 q 587 90 555 79 q 647 121 620 101 q 695 168 674 140 q 728 228 715 195 l 827 191 q 766 99 805 138 q 678 34 727 60 q 573 -3 629 9 q 464 -16 518 -16 q 298 15 374 -16 q 168 99 222 45 q 81 229 113 153 q 50 393 50 304 q 81 558 50 483 q 168 688 113 633 q 298 772 222 742 q 464 802 374 802 q 553 796 507 802 q 641 777 598 790 q 722 743 684 764 q 788 691 760 722 q 832 619 816 660 q 849 526 849 578 m 639 1040 q 623 973 636 1004 q 587 919 609 942 q 534 883 564 896 q 467 869 503 869 q 400 883 430 869 q 349 920 370 897 q 314 974 327 943 q 298 1040 301 1005 l 397 1040 q 400 1019 397 1032 q 412 994 404 1006 q 434 973 420 982 q 467 964 447 964 q 502 973 488 964 q 524 994 515 982 q 537 1019 533 1006 q 541 1040 541 1032 l 639 1040 z "},"Ė":{"ha":868,"x_min":111,"x_max":812,"o":"m 812 0 l 111 0 l 111 977 l 812 977 l 812 852 l 380 852 l 380 550 l 713 550 l 713 426 l 380 426 l 380 125 l 812 125 l 812 0 m 547 1141 q 539 1103 547 1121 q 518 1071 532 1084 q 486 1049 505 1057 q 448 1042 468 1042 q 408 1049 427 1042 q 376 1071 390 1057 q 355 1103 363 1084 q 347 1141 347 1121 q 355 1180 347 1162 q 376 1212 363 1198 q 408 1233 390 1225 q 448 1241 427 1241 q 486 1233 468 1241 q 518 1212 505 1225 q 539 1180 532 1198 q 547 1141 547 1162 z "},"ė":{"ha":897,"x_min":50,"x_max":849,"o":"m 284 372 q 368 357 326 362 q 453 351 410 351 q 536 360 498 351 q 603 388 574 368 q 647 441 631 408 q 663 524 663 475 q 652 597 663 564 q 620 654 642 631 q 568 691 599 678 q 495 705 536 705 q 426 690 456 705 q 371 652 395 676 q 331 596 348 628 q 304 530 315 564 q 288 460 293 495 q 283 393 283 425 q 283 382 283 388 q 284 372 283 377 m 849 526 q 833 440 849 478 q 791 374 818 403 q 729 326 764 346 q 654 294 694 307 q 571 276 614 281 q 489 271 529 271 q 389 278 438 271 q 291 300 339 285 q 315 215 298 256 q 358 145 331 175 q 425 97 385 115 q 519 79 465 79 q 587 90 555 79 q 647 121 620 101 q 695 168 674 140 q 728 228 715 195 l 827 191 q 766 99 805 138 q 678 34 727 60 q 573 -3 629 9 q 464 -16 518 -16 q 298 15 374 -16 q 168 99 222 45 q 81 229 113 153 q 50 393 50 304 q 81 558 50 483 q 168 688 113 633 q 298 772 222 742 q 464 802 374 802 q 553 796 507 802 q 641 777 598 790 q 722 743 684 764 q 788 691 760 722 q 832 619 816 660 q 849 526 849 578 m 570 970 q 562 932 570 950 q 541 900 554 913 q 509 879 527 886 q 470 871 490 871 q 431 879 449 871 q 399 900 412 886 q 377 932 385 913 q 370 970 370 950 q 377 1009 370 991 q 399 1041 385 1027 q 431 1062 412 1055 q 470 1070 449 1070 q 509 1062 490 1070 q 541 1041 527 1055 q 562 1009 554 1027 q 570 970 570 991 z "},"Ę":{"ha":868,"x_min":111,"x_max":812,"o":"m 812 -151 q 802 -202 812 -178 q 774 -244 791 -226 q 732 -272 756 -262 q 682 -283 709 -283 q 618 -272 647 -283 q 568 -242 589 -262 q 535 -194 547 -222 q 523 -130 523 -165 q 530 -93 523 -111 q 548 -58 536 -75 q 575 -27 559 -41 q 607 0 590 -12 l 111 0 l 111 977 l 812 977 l 812 852 l 380 852 l 380 550 l 713 550 l 713 426 l 380 426 l 380 125 l 812 125 l 812 0 l 700 0 q 674 -29 686 -14 q 652 -61 661 -44 q 636 -96 642 -78 q 631 -130 631 -113 q 643 -174 631 -157 q 684 -191 656 -191 q 718 -181 701 -191 q 735 -151 734 -171 l 812 -151 z "},"ę":{"ha":897,"x_min":50,"x_max":849,"o":"m 629 -151 q 619 -202 629 -178 q 591 -244 609 -226 q 550 -272 574 -262 q 499 -283 526 -283 q 436 -272 465 -283 q 386 -242 407 -262 q 352 -194 364 -222 q 340 -130 340 -165 q 360 -66 340 -96 q 408 -12 380 -36 q 264 30 330 -3 q 151 117 198 64 q 77 240 103 170 q 50 393 50 311 q 81 558 50 483 q 168 688 113 633 q 298 772 222 742 q 464 802 374 802 q 553 796 507 802 q 641 777 598 790 q 722 743 684 764 q 788 691 760 722 q 832 619 816 660 q 849 526 849 578 q 833 440 849 478 q 791 374 818 403 q 729 326 764 346 q 654 294 694 307 q 571 276 614 281 q 489 271 529 271 q 389 278 438 271 q 291 300 339 285 q 315 215 298 256 q 358 145 331 175 q 425 97 385 115 q 519 79 465 79 q 587 90 555 79 q 647 121 620 101 q 695 168 674 140 q 728 228 715 195 l 827 191 q 773 106 807 142 q 695 44 739 70 q 603 5 652 19 q 504 -14 553 -9 q 465 -70 481 -39 q 448 -130 448 -100 q 461 -174 448 -157 q 502 -191 473 -191 q 535 -181 519 -191 q 553 -151 552 -171 l 629 -151 m 284 372 q 368 357 326 362 q 453 351 410 351 q 536 360 498 351 q 603 388 574 368 q 647 441 631 408 q 663 524 663 475 q 652 597 663 564 q 620 654 642 631 q 568 691 599 678 q 495 705 536 705 q 426 690 456 705 q 371 652 395 676 q 331 596 348 628 q 304 530 315 564 q 288 460 293 495 q 283 393 283 425 q 283 382 283 388 q 284 372 283 377 z "},"Ě":{"ha":868,"x_min":111,"x_max":812,"o":"m 812 0 l 111 0 l 111 977 l 812 977 l 812 852 l 380 852 l 380 550 l 713 550 l 713 426 l 380 426 l 380 125 l 812 125 l 812 0 m 654 1284 l 519 1044 l 407 1044 l 276 1284 l 443 1284 l 488 1192 l 532 1284 l 654 1284 z "},"ě":{"ha":897,"x_min":50,"x_max":849,"o":"m 284 372 q 368 357 326 362 q 453 351 410 351 q 536 360 498 351 q 603 388 574 368 q 647 441 631 408 q 663 524 663 475 q 652 597 663 564 q 620 654 642 631 q 568 691 599 678 q 495 705 536 705 q 426 690 456 705 q 371 652 395 676 q 331 596 348 628 q 304 530 315 564 q 288 460 293 495 q 283 393 283 425 q 283 382 283 388 q 284 372 283 377 m 849 526 q 833 440 849 478 q 791 374 818 403 q 729 326 764 346 q 654 294 694 307 q 571 276 614 281 q 489 271 529 271 q 389 278 438 271 q 291 300 339 285 q 315 215 298 256 q 358 145 331 175 q 425 97 385 115 q 519 79 465 79 q 587 90 555 79 q 647 121 620 101 q 695 168 674 140 q 728 228 715 195 l 827 191 q 766 99 805 138 q 678 34 727 60 q 573 -3 629 9 q 464 -16 518 -16 q 298 15 374 -16 q 168 99 222 45 q 81 229 113 153 q 50 393 50 304 q 81 558 50 483 q 168 688 113 633 q 298 772 222 742 q 464 802 374 802 q 553 796 507 802 q 641 777 598 790 q 722 743 684 764 q 788 691 760 722 q 832 619 816 660 q 849 526 849 578 m 659 1110 l 524 870 l 412 870 l 281 1110 l 448 1110 l 493 1017 l 537 1110 l 659 1110 z "},"đ":{"ha":981,"x_min":52,"x_max":981,"o":"m 885 0 l 797 0 l 695 170 q 654 93 680 127 q 594 34 628 58 q 518 -5 559 9 q 432 -18 477 -18 q 272 14 342 -18 q 153 101 201 45 q 78 231 104 156 q 52 391 52 305 q 78 551 52 476 q 153 680 104 625 q 272 767 201 735 q 432 799 342 799 q 558 772 500 799 q 656 690 615 746 l 656 860 l 559 860 l 559 985 l 656 985 l 656 1072 l 885 1072 l 885 985 l 981 985 l 981 860 l 885 860 l 885 0 m 654 391 q 650 450 654 418 q 637 516 646 483 q 614 581 629 549 q 579 636 600 612 q 531 675 559 661 q 469 690 504 690 q 401 676 430 690 q 353 638 373 662 q 319 585 332 615 q 298 521 306 554 q 288 454 291 488 q 285 391 285 420 q 288 327 285 361 q 298 260 291 294 q 319 196 306 227 q 353 142 332 165 q 401 105 373 119 q 469 91 430 91 q 536 104 507 91 q 586 141 566 118 q 620 195 607 165 q 641 259 633 225 q 651 326 648 292 q 654 391 654 360 z "},"Ỳ":{"ha":901,"x_min":-1,"x_max":903,"o":"m 903 977 l 587 410 l 587 0 l 318 0 l 318 395 l -1 977 l 273 977 l 486 486 l 713 977 l 903 977 m 553 943 l 418 943 l 203 1183 l 418 1183 l 553 943 z "},"ỳ":{"ha":797,"x_min":-3,"x_max":797,"o":"m 797 783 l 512 94 q 403 -139 463 -24 q 273 -361 343 -255 l 184 -307 q 224 -237 201 -277 q 269 -154 247 -197 q 311 -70 292 -111 q 340 7 330 -28 l -3 783 l 227 783 l 459 254 l 638 783 l 797 783 m 498 749 l 362 749 l 148 989 l 363 989 l 498 749 z "},"Ź":{"ha":941,"x_min":61,"x_max":880,"o":"m 880 0 l 62 0 l 62 125 l 61 125 l 572 852 l 62 852 l 62 977 l 880 977 l 880 852 l 370 125 l 880 125 l 880 0 m 739 1282 l 524 1042 l 389 1042 l 524 1282 l 739 1282 z "},"ź":{"ha":768,"x_min":53,"x_max":716,"o":"m 716 0 l 53 0 l 53 91 l 53 91 l 463 692 l 53 692 l 53 783 l 716 783 l 716 692 l 306 91 l 716 91 l 716 0 m 659 1091 l 444 851 l 309 851 l 444 1091 l 659 1091 z "},"Ż":{"ha":941,"x_min":61,"x_max":880,"o":"m 880 0 l 62 0 l 62 125 l 61 125 l 572 852 l 62 852 l 62 977 l 880 977 l 880 852 l 370 125 l 880 125 l 880 0 m 570 1141 q 563 1103 570 1121 q 541 1071 555 1084 q 509 1049 528 1057 q 471 1042 491 1042 q 431 1049 450 1042 q 399 1071 413 1057 q 378 1103 386 1084 q 370 1141 370 1121 q 378 1180 370 1162 q 399 1212 386 1198 q 431 1233 413 1225 q 471 1241 450 1241 q 509 1233 491 1241 q 541 1212 528 1225 q 563 1180 555 1198 q 570 1141 570 1162 z "},"ż":{"ha":768,"x_min":53,"x_max":716,"o":"m 716 0 l 53 0 l 53 91 l 53 91 l 463 692 l 53 692 l 53 783 l 716 783 l 716 692 l 306 91 l 716 91 l 716 0 m 484 951 q 476 913 484 931 q 454 881 468 895 q 422 860 441 867 q 384 852 404 852 q 345 860 363 852 q 313 881 326 867 q 291 913 299 895 q 283 951 283 931 q 291 990 283 972 q 313 1022 299 1008 q 345 1043 326 1036 q 384 1051 363 1051 q 422 1043 404 1051 q 454 1022 441 1036 q 476 990 468 1008 q 484 951 484 972 z "},"Ŷ":{"ha":901,"x_min":-1,"x_max":903,"o":"m 903 977 l 587 410 l 587 0 l 318 0 l 318 395 l -1 977 l 273 977 l 486 486 l 713 977 l 903 977 m 669 1043 l 500 1043 l 456 1137 l 411 1043 l 312 1043 l 443 1284 l 534 1284 l 669 1043 z "},"ŷ":{"ha":797,"x_min":-3,"x_max":797,"o":"m 797 783 l 512 94 q 403 -139 463 -24 q 273 -361 343 -255 l 184 -307 q 224 -237 201 -277 q 269 -154 247 -197 q 311 -70 292 -111 q 340 7 330 -28 l -3 783 l 227 783 l 459 254 l 638 783 l 797 783 m 613 853 l 444 853 l 399 947 l 355 853 l 256 853 l 387 1094 l 478 1094 l 613 853 z "},"ẃ":{"ha":1173,"x_min":35,"x_max":1144,"o":"m 455 0 l 249 0 l 35 783 l 264 783 l 398 234 l 510 783 l 716 783 l 853 219 l 985 783 l 1144 783 l 907 0 l 701 0 l 585 476 l 455 0 m 900 1091 l 685 851 l 550 851 l 684 1091 l 900 1091 z "},"Ẅ":{"ha":1395,"x_min":39,"x_max":1367,"o":"m 542 0 l 296 0 l 39 977 l 314 977 l 476 283 l 620 977 l 867 977 l 1024 266 l 1201 977 l 1367 977 l 1083 0 l 836 0 l 699 624 l 542 0 m 975 1141 q 967 1103 975 1121 q 946 1071 960 1084 q 914 1049 932 1057 q 875 1042 896 1042 q 836 1049 854 1042 q 804 1071 818 1057 q 783 1103 791 1084 q 775 1141 775 1121 q 783 1180 775 1162 q 804 1212 791 1198 q 836 1233 818 1225 q 875 1241 854 1241 q 914 1233 896 1241 q 946 1212 932 1225 q 967 1180 960 1198 q 975 1141 975 1162 m 720 1141 q 712 1103 720 1121 q 690 1071 704 1084 q 659 1049 677 1057 q 619 1042 640 1042 q 581 1049 599 1042 q 549 1071 562 1057 q 527 1103 535 1084 q 519 1141 519 1121 q 527 1180 519 1162 q 549 1212 535 1198 q 581 1233 562 1225 q 619 1241 599 1241 q 659 1233 640 1241 q 690 1212 677 1225 q 712 1180 704 1198 q 720 1141 720 1162 z "},"ẅ":{"ha":1173,"x_min":35,"x_max":1144,"o":"m 455 0 l 249 0 l 35 783 l 264 783 l 398 234 l 510 783 l 716 783 l 853 219 l 985 783 l 1144 783 l 907 0 l 701 0 l 585 476 l 455 0 m 833 952 q 826 913 833 932 q 804 882 818 895 q 772 860 791 868 q 733 852 754 852 q 694 860 713 852 q 663 882 676 868 q 641 913 649 895 q 633 952 633 932 q 641 991 633 972 q 663 1023 649 1009 q 694 1044 676 1036 q 733 1052 713 1052 q 772 1044 754 1052 q 804 1023 791 1036 q 826 991 818 1009 q 833 952 833 972 m 578 952 q 570 913 578 932 q 549 882 562 895 q 517 860 535 868 q 477 852 498 852 q 439 860 457 852 q 407 882 420 868 q 386 913 393 895 q 378 952 378 932 q 386 991 378 972 q 407 1023 393 1009 q 439 1044 420 1036 q 477 1052 457 1052 q 517 1044 498 1052 q 549 1023 535 1036 q 570 991 562 1009 q 578 952 578 972 z "},"Ř":{"ha":1002,"x_min":111,"x_max":986,"o":"m 380 0 l 111 0 l 111 977 l 591 977 q 722 961 659 977 q 833 910 785 945 q 910 822 882 876 q 939 690 939 768 q 914 577 939 630 q 846 482 888 524 q 749 413 804 440 q 635 376 694 385 q 690 292 661 332 q 748 217 719 252 q 807 152 778 182 q 863 98 836 123 q 986 0 925 41 l 650 0 q 573 93 610 39 q 510 207 542 139 q 462 365 479 275 l 380 365 l 380 0 m 666 690 q 618 835 666 789 q 475 881 570 881 l 380 881 l 380 457 l 475 457 q 562 476 526 457 q 621 528 598 496 q 655 602 644 560 q 666 690 666 644 m 649 1282 l 514 1042 l 402 1042 l 271 1282 l 438 1282 l 483 1189 l 527 1282 l 649 1282 z "},"ř":{"ha":762,"x_min":96,"x_max":762,"o":"m 762 714 l 633 500 q 612 562 625 528 q 580 625 599 595 q 534 674 561 654 q 473 694 508 694 q 418 678 441 694 q 378 636 395 662 q 352 577 362 610 q 335 510 341 544 q 328 446 330 477 q 326 393 326 415 l 326 0 l 96 0 l 96 783 l 184 783 l 277 601 q 320 682 296 645 q 376 746 345 719 q 449 787 408 772 q 540 802 489 802 q 599 798 566 802 q 663 783 631 793 q 720 755 694 772 q 762 714 747 739 m 570 1092 l 435 852 l 323 852 l 192 1092 l 359 1092 l 404 999 l 448 1092 l 570 1092 z "},"Ś":{"ha":968,"x_min":52,"x_max":911,"o":"m 911 298 q 895 187 911 235 q 850 104 879 139 q 782 45 821 68 q 696 7 743 21 q 598 -14 650 -7 q 492 -20 546 -20 q 362 -9 422 -20 q 250 24 302 1 q 149 83 197 47 q 52 170 100 119 l 191 311 q 243 224 210 264 q 316 156 276 184 q 398 111 355 127 q 479 95 441 95 q 563 101 524 95 q 631 123 602 108 q 677 162 661 138 q 694 224 694 187 q 681 273 694 253 q 647 308 668 294 q 600 333 627 323 q 546 350 574 343 q 492 363 519 357 q 446 375 466 369 q 362 400 406 387 q 277 430 319 413 q 197 469 235 447 q 131 521 159 491 q 85 591 102 551 q 68 682 68 631 q 84 792 68 744 q 127 875 99 840 q 193 934 155 910 q 276 973 231 958 q 373 994 321 987 q 477 1000 424 1000 q 611 987 551 1000 q 722 948 671 973 q 815 888 772 923 q 895 810 857 853 l 756 670 q 711 758 740 719 q 647 826 682 798 q 573 869 612 854 q 498 884 534 884 q 412 878 452 884 q 345 857 373 871 q 301 818 317 842 q 286 756 286 793 q 297 707 286 727 q 328 672 309 686 q 372 649 347 658 q 422 633 396 640 q 474 621 448 626 q 520 610 499 616 q 606 585 561 598 q 694 555 650 572 q 777 515 737 538 q 846 462 816 493 q 893 391 876 431 q 911 298 911 351 m 759 1307 l 544 1067 l 409 1067 l 543 1307 l 759 1307 z "},"ś":{"ha":819,"x_min":46,"x_max":770,"o":"m 770 250 q 755 159 770 199 q 714 89 740 119 q 653 40 688 60 q 577 7 618 20 q 493 -10 537 -5 q 406 -16 449 -16 q 302 -8 347 -16 q 217 16 258 -1 q 136 59 176 33 q 46 123 96 85 l 180 233 q 228 170 198 198 q 291 121 258 142 q 354 90 323 101 q 404 79 385 79 q 439 80 419 79 q 479 84 458 81 q 519 94 499 87 q 554 110 538 100 q 578 137 569 121 q 587 175 587 153 q 575 215 587 198 q 545 245 564 233 q 501 267 526 258 q 452 283 477 276 q 404 295 427 290 q 364 304 381 300 q 298 322 333 313 q 230 343 264 332 q 165 372 196 355 q 111 411 134 388 q 74 464 87 433 q 60 536 60 495 q 90 664 60 612 q 170 746 120 715 q 282 789 219 777 q 410 802 345 802 q 505 793 455 802 q 601 766 554 784 q 688 722 648 748 q 756 663 729 696 l 623 553 q 584 623 608 594 q 531 671 559 652 q 474 699 503 690 q 419 707 444 707 q 364 705 395 707 q 307 694 334 703 q 261 665 280 684 q 243 612 243 646 q 254 570 243 587 q 283 540 265 553 q 325 519 302 528 q 373 504 349 511 q 420 493 397 498 q 462 483 444 488 q 528 465 493 474 q 597 444 563 456 q 662 416 631 432 q 718 377 694 400 q 755 323 741 354 q 770 250 770 292 m 680 1110 l 465 870 l 330 870 l 464 1110 l 680 1110 z "},"Ŝ":{"ha":968,"x_min":52,"x_max":911,"o":"m 911 298 q 895 187 911 235 q 850 104 879 139 q 782 45 821 68 q 696 7 743 21 q 598 -14 650 -7 q 492 -20 546 -20 q 362 -9 422 -20 q 250 24 302 1 q 149 83 197 47 q 52 170 100 119 l 191 311 q 243 224 210 264 q 316 156 276 184 q 398 111 355 127 q 479 95 441 95 q 563 101 524 95 q 631 123 602 108 q 677 162 661 138 q 694 224 694 187 q 681 273 694 253 q 647 308 668 294 q 600 333 627 323 q 546 350 574 343 q 492 363 519 357 q 446 375 466 369 q 362 400 406 387 q 277 430 319 413 q 197 469 235 447 q 131 521 159 491 q 85 591 102 551 q 68 682 68 631 q 84 792 68 744 q 127 875 99 840 q 193 934 155 910 q 276 973 231 958 q 373 994 321 987 q 477 1000 424 1000 q 611 987 551 1000 q 722 948 671 973 q 815 888 772 923 q 895 810 857 853 l 756 670 q 711 758 740 719 q 647 826 682 798 q 573 869 612 854 q 498 884 534 884 q 412 878 452 884 q 345 857 373 871 q 301 818 317 842 q 286 756 286 793 q 297 707 286 727 q 328 672 309 686 q 372 649 347 658 q 422 633 396 640 q 474 621 448 626 q 520 610 499 616 q 606 585 561 598 q 694 555 650 572 q 777 515 737 538 q 846 462 816 493 q 893 391 876 431 q 911 298 911 351 m 663 1068 l 493 1068 l 449 1162 l 404 1068 l 305 1068 l 436 1309 l 528 1309 l 663 1068 z "},"ŝ":{"ha":819,"x_min":46,"x_max":770,"o":"m 770 250 q 755 159 770 199 q 714 89 740 119 q 653 40 688 60 q 577 7 618 20 q 493 -10 537 -5 q 406 -16 449 -16 q 302 -8 347 -16 q 217 16 258 -1 q 136 59 176 33 q 46 123 96 85 l 180 233 q 228 170 198 198 q 291 121 258 142 q 354 90 323 101 q 404 79 385 79 q 439 80 419 79 q 479 84 458 81 q 519 94 499 87 q 554 110 538 100 q 578 137 569 121 q 587 175 587 153 q 575 215 587 198 q 545 245 564 233 q 501 267 526 258 q 452 283 477 276 q 404 295 427 290 q 364 304 381 300 q 298 322 333 313 q 230 343 264 332 q 165 372 196 355 q 111 411 134 388 q 74 464 87 433 q 60 536 60 495 q 90 664 60 612 q 170 746 120 715 q 282 789 219 777 q 410 802 345 802 q 505 793 455 802 q 601 766 554 784 q 688 722 648 748 q 756 663 729 696 l 623 553 q 584 623 608 594 q 531 671 559 652 q 474 699 503 690 q 419 707 444 707 q 364 705 395 707 q 307 694 334 703 q 261 665 280 684 q 243 612 243 646 q 254 570 243 587 q 283 540 265 553 q 325 519 302 528 q 373 504 349 511 q 420 493 397 498 q 462 483 444 488 q 528 465 493 474 q 597 444 563 456 q 662 416 631 432 q 718 377 694 400 q 755 323 741 354 q 770 250 770 292 m 588 871 l 418 871 l 374 965 l 330 871 l 231 871 l 361 1112 l 453 1112 l 588 871 z "},"Ş":{"ha":968,"x_min":52,"x_max":911,"o":"m 628 -154 q 616 -216 628 -190 q 582 -261 604 -243 q 532 -288 561 -279 q 469 -296 503 -296 q 418 -286 442 -296 q 377 -258 395 -275 q 349 -216 359 -240 q 339 -165 339 -192 l 416 -165 q 433 -194 416 -184 q 467 -204 450 -204 q 507 -193 494 -204 q 519 -154 519 -182 q 509 -131 519 -139 q 484 -119 498 -123 q 453 -114 469 -115 q 427 -113 437 -113 l 448 -18 q 333 -3 386 -16 q 233 32 280 9 q 141 89 185 54 q 52 170 96 123 l 191 311 q 243 224 210 264 q 316 156 276 184 q 398 111 355 127 q 479 95 441 95 q 563 101 524 95 q 631 123 602 108 q 677 162 661 138 q 694 224 694 187 q 681 273 694 253 q 647 308 668 294 q 600 333 627 323 q 546 350 574 343 q 492 363 519 357 q 446 375 466 369 q 362 400 406 387 q 277 430 319 413 q 197 469 235 447 q 131 521 159 491 q 85 591 102 551 q 68 682 68 631 q 84 792 68 744 q 127 875 99 840 q 193 934 155 910 q 276 973 231 958 q 373 994 321 987 q 477 1000 424 1000 q 611 987 551 1000 q 722 948 671 973 q 815 888 772 923 q 895 810 857 853 l 756 670 q 711 758 740 719 q 647 826 682 798 q 573 869 612 854 q 498 884 534 884 q 412 878 452 884 q 345 857 373 871 q 301 818 317 842 q 286 756 286 793 q 297 707 286 727 q 328 672 309 686 q 372 649 347 658 q 422 633 396 640 q 474 621 448 626 q 520 610 499 616 q 606 585 561 598 q 694 555 650 572 q 777 515 737 538 q 846 462 816 493 q 893 391 876 431 q 911 298 911 351 q 896 192 911 238 q 856 111 882 145 q 793 52 829 76 q 714 13 757 28 q 622 -10 671 -3 q 523 -19 574 -18 l 513 -56 q 555 -62 534 -56 q 592 -81 576 -68 q 618 -112 608 -94 q 628 -154 628 -130 z "},"ş":{"ha":819,"x_min":46,"x_max":770,"o":"m 553 -154 q 541 -216 553 -190 q 508 -261 529 -243 q 457 -288 486 -279 q 395 -296 428 -296 q 344 -286 368 -296 q 302 -258 320 -275 q 275 -216 285 -240 q 264 -165 264 -192 l 341 -165 q 358 -194 342 -184 q 392 -204 375 -204 q 432 -193 420 -204 q 445 -154 445 -182 q 434 -131 445 -139 q 409 -119 424 -123 q 378 -114 394 -115 q 352 -113 363 -113 l 374 -15 q 283 -4 323 -13 q 205 21 243 4 q 130 62 168 37 q 46 123 92 87 l 180 233 q 228 170 198 198 q 291 121 258 142 q 354 90 323 101 q 404 79 385 79 q 439 80 419 79 q 479 84 458 81 q 519 94 499 87 q 554 110 538 100 q 578 137 569 121 q 587 175 587 153 q 575 215 587 198 q 545 245 564 233 q 501 267 526 258 q 452 283 477 276 q 404 295 427 290 q 364 304 381 300 q 298 322 333 313 q 230 343 264 332 q 165 372 196 355 q 111 411 134 388 q 74 464 87 433 q 60 536 60 495 q 90 664 60 612 q 170 746 120 715 q 282 789 219 777 q 410 802 345 802 q 505 793 455 802 q 601 766 554 784 q 688 722 648 748 q 756 663 729 696 l 623 553 q 584 623 608 594 q 531 671 559 652 q 474 699 503 690 q 419 707 444 707 q 364 705 395 707 q 307 694 334 703 q 261 665 280 684 q 243 612 243 646 q 254 570 243 587 q 283 540 265 553 q 325 519 302 528 q 373 504 349 511 q 420 493 397 498 q 462 483 444 488 q 528 465 493 474 q 597 444 563 456 q 662 416 631 432 q 718 377 694 400 q 755 323 741 354 q 770 250 770 292 q 742 130 770 179 q 670 51 715 81 q 568 4 625 20 q 450 -14 510 -11 l 439 -56 q 480 -62 460 -56 q 517 -81 501 -68 q 544 -112 534 -94 q 553 -154 553 -130 z "},"Ō":{"ha":1187,"x_min":57,"x_max":1130,"o":"m 1130 490 q 1089 277 1130 372 q 977 117 1048 182 q 806 16 905 51 q 593 -20 708 -20 q 380 16 479 -20 q 210 117 282 51 q 98 277 138 182 q 57 490 57 372 q 97 704 57 610 q 209 864 138 799 q 379 965 281 930 q 593 1000 477 1000 q 808 965 709 1000 q 978 864 906 930 q 1089 704 1049 799 q 1130 490 1130 610 m 856 490 q 852 581 856 534 q 837 672 848 628 q 807 755 826 716 q 760 822 789 793 q 689 868 730 851 q 593 884 648 884 q 496 868 538 884 q 426 823 455 851 q 378 755 397 794 q 350 673 360 717 q 335 582 339 629 q 331 490 331 535 q 335 398 331 445 q 350 308 339 351 q 379 225 361 264 q 427 158 398 186 q 497 112 456 129 q 593 95 538 95 q 687 112 647 95 q 756 159 727 130 q 805 228 785 189 q 835 310 824 267 q 851 400 846 354 q 856 490 856 446 m 778 1074 l 408 1074 l 408 1208 l 778 1208 l 778 1074 z "},"ō":{"ha":972,"x_min":49,"x_max":923,"o":"m 923 393 q 907 279 923 332 q 862 180 890 225 q 792 98 833 134 q 703 37 751 62 q 599 -2 654 12 q 486 -16 544 -16 q 372 -2 427 -16 q 269 37 317 12 q 180 98 220 62 q 110 180 139 134 q 65 279 81 225 q 49 393 49 333 q 65 508 49 454 q 110 607 81 562 q 180 689 139 652 q 269 750 220 725 q 372 789 317 775 q 486 802 427 802 q 599 789 544 802 q 703 750 654 775 q 792 689 751 725 q 862 607 833 652 q 907 508 890 562 q 923 393 923 454 m 690 393 q 686 462 690 426 q 673 533 682 498 q 649 601 665 568 q 612 657 634 633 q 558 695 589 681 q 486 710 527 710 q 416 695 446 710 q 362 655 385 680 q 325 598 340 631 q 300 531 309 566 q 286 460 290 496 q 282 393 282 425 q 286 327 282 362 q 300 256 290 291 q 325 188 309 220 q 362 131 340 156 q 416 92 385 106 q 486 77 446 77 q 557 91 526 77 q 611 130 589 106 q 649 186 634 155 q 673 254 664 218 q 686 325 682 289 q 690 393 690 361 m 671 870 l 301 870 l 301 1004 l 671 1004 l 671 870 z "},"Ŏ":{"ha":1187,"x_min":57,"x_max":1130,"o":"m 1130 490 q 1089 277 1130 372 q 977 117 1048 182 q 806 16 905 51 q 593 -20 708 -20 q 380 16 479 -20 q 210 117 282 51 q 98 277 138 182 q 57 490 57 372 q 97 704 57 610 q 209 864 138 799 q 379 965 281 930 q 593 1000 477 1000 q 808 965 709 1000 q 978 864 906 930 q 1089 704 1049 799 q 1130 490 1130 610 m 856 490 q 852 581 856 534 q 837 672 848 628 q 807 755 826 716 q 760 822 789 793 q 689 868 730 851 q 593 884 648 884 q 496 868 538 884 q 426 823 455 851 q 378 755 397 794 q 350 673 360 717 q 335 582 339 629 q 331 490 331 535 q 335 398 331 445 q 350 308 339 351 q 379 225 361 264 q 427 158 398 186 q 497 112 456 129 q 593 95 538 95 q 687 112 647 95 q 756 159 727 130 q 805 228 785 189 q 835 310 824 267 q 851 400 846 354 q 856 490 856 446 m 764 1244 q 747 1177 761 1208 q 711 1123 734 1146 q 659 1087 689 1100 q 591 1074 628 1074 q 525 1087 555 1074 q 473 1124 495 1101 q 439 1178 452 1147 q 423 1244 426 1209 l 522 1244 q 525 1223 522 1236 q 537 1198 529 1211 q 558 1177 545 1186 q 591 1168 572 1168 q 626 1177 612 1168 q 649 1198 640 1186 q 662 1223 658 1211 q 666 1244 665 1236 l 764 1244 z "},"ŏ":{"ha":972,"x_min":49,"x_max":923,"o":"m 923 393 q 907 279 923 332 q 862 180 890 225 q 792 98 833 134 q 703 37 751 62 q 599 -2 654 12 q 486 -16 544 -16 q 372 -2 427 -16 q 269 37 317 12 q 180 98 220 62 q 110 180 139 134 q 65 279 81 225 q 49 393 49 333 q 65 508 49 454 q 110 607 81 562 q 180 689 139 652 q 269 750 220 725 q 372 789 317 775 q 486 802 427 802 q 599 789 544 802 q 703 750 654 775 q 792 689 751 725 q 862 607 833 652 q 907 508 890 562 q 923 393 923 454 m 690 393 q 686 462 690 426 q 673 533 682 498 q 649 601 665 568 q 612 657 634 633 q 558 695 589 681 q 486 710 527 710 q 416 695 446 710 q 362 655 385 680 q 325 598 340 631 q 300 531 309 566 q 286 460 290 496 q 282 393 282 425 q 286 327 282 362 q 300 256 290 291 q 325 188 309 220 q 362 131 340 156 q 416 92 385 106 q 486 77 446 77 q 557 91 526 77 q 611 130 589 106 q 649 186 634 155 q 673 254 664 218 q 686 325 682 289 q 690 393 690 361 m 656 1042 q 640 976 653 1006 q 604 922 626 945 q 551 885 581 899 q 484 872 520 872 q 417 886 447 872 q 366 923 387 899 q 331 977 344 946 q 315 1042 318 1008 l 414 1042 q 417 1022 414 1035 q 429 997 421 1009 q 451 976 437 985 q 484 966 464 966 q 518 976 505 966 q 541 997 532 985 q 554 1022 550 1009 q 558 1042 557 1035 l 656 1042 z "},"Ő":{"ha":1187,"x_min":57,"x_max":1130,"o":"m 1130 490 q 1089 277 1130 372 q 977 117 1048 182 q 806 16 905 51 q 593 -20 708 -20 q 380 16 479 -20 q 210 117 282 51 q 98 277 138 182 q 57 490 57 372 q 97 704 57 610 q 209 864 138 799 q 379 965 281 930 q 593 1000 477 1000 q 808 965 709 1000 q 978 864 906 930 q 1089 704 1049 799 q 1130 490 1130 610 m 856 490 q 852 581 856 534 q 837 672 848 628 q 807 755 826 716 q 760 822 789 793 q 689 868 730 851 q 593 884 648 884 q 496 868 538 884 q 426 823 455 851 q 378 755 397 794 q 350 673 360 717 q 335 582 339 629 q 331 490 331 535 q 335 398 331 445 q 350 308 339 351 q 379 225 361 264 q 427 158 398 186 q 497 112 456 129 q 593 95 538 95 q 687 112 647 95 q 756 159 727 130 q 805 228 785 189 q 835 310 824 267 q 851 400 846 354 q 856 490 856 446 m 1006 1310 l 791 1069 l 656 1069 l 791 1310 l 1006 1310 m 755 1310 l 541 1069 l 406 1069 l 541 1310 l 755 1310 z "},"ő":{"ha":972,"x_min":49,"x_max":923,"o":"m 923 393 q 907 279 923 332 q 862 180 890 225 q 792 98 833 134 q 703 37 751 62 q 599 -2 654 12 q 486 -16 544 -16 q 372 -2 427 -16 q 269 37 317 12 q 180 98 220 62 q 110 180 139 134 q 65 279 81 225 q 49 393 49 333 q 65 508 49 454 q 110 607 81 562 q 180 689 139 652 q 269 750 220 725 q 372 789 317 775 q 486 802 427 802 q 599 789 544 802 q 703 750 654 775 q 792 689 751 725 q 862 607 833 652 q 907 508 890 562 q 923 393 923 454 m 690 393 q 686 462 690 426 q 673 533 682 498 q 649 601 665 568 q 612 657 634 633 q 558 695 589 681 q 486 710 527 710 q 416 695 446 710 q 362 655 385 680 q 325 598 340 631 q 300 531 309 566 q 286 460 290 496 q 282 393 282 425 q 286 327 282 362 q 300 256 290 291 q 325 188 309 220 q 362 131 340 156 q 416 92 385 106 q 486 77 446 77 q 557 91 526 77 q 611 130 589 106 q 649 186 634 155 q 673 254 664 218 q 686 325 682 289 q 690 393 690 361 m 889 1110 l 675 870 l 539 870 l 674 1110 l 889 1110 m 639 1110 l 425 870 l 289 870 l 424 1110 l 639 1110 z "},"Ǿ":{"ha":1187,"x_min":57,"x_max":1130,"o":"m 350 309 l 781 798 q 705 861 751 838 q 593 884 660 884 q 496 868 538 884 q 426 823 455 851 q 378 755 397 794 q 350 673 360 717 q 335 582 339 629 q 331 490 331 535 q 335 399 331 445 q 350 309 339 353 m 836 677 l 403 186 q 479 120 433 145 q 593 95 526 95 q 687 112 647 95 q 756 159 727 130 q 805 228 785 189 q 835 310 824 267 q 851 400 846 354 q 856 490 856 446 q 851 584 856 536 q 836 677 847 632 m 1099 977 l 990 852 q 1093 696 1056 787 q 1130 490 1130 605 q 1089 277 1130 372 q 977 117 1048 182 q 806 16 905 51 q 593 -20 708 -20 q 430 0 507 -20 q 290 58 354 20 l 239 0 l 78 0 l 195 132 q 93 288 130 198 q 57 490 57 378 q 97 704 57 610 q 209 864 138 799 q 379 965 281 930 q 593 1000 477 1000 q 754 981 679 1000 q 893 926 829 962 l 938 977 l 1099 977 m 872 1307 l 657 1067 l 522 1067 l 656 1307 l 872 1307 z "},"ǿ":{"ha":972,"x_min":49,"x_max":923,"o":"m 297 267 l 621 646 q 564 693 597 675 q 486 710 531 710 q 416 695 446 710 q 362 655 385 680 q 325 598 340 631 q 300 531 309 566 q 286 460 290 496 q 282 393 282 425 q 286 332 282 364 q 297 267 290 299 m 676 522 l 353 143 q 409 95 376 113 q 486 77 441 77 q 557 91 526 77 q 611 130 589 106 q 649 186 634 155 q 673 254 664 218 q 686 325 682 289 q 690 393 690 361 q 687 456 690 424 q 676 522 684 489 m 901 787 l 806 675 q 892 551 861 622 q 923 393 923 479 q 907 279 923 332 q 862 180 890 225 q 792 98 833 134 q 703 37 751 62 q 599 -2 654 12 q 486 -16 544 -16 q 370 -2 426 -16 q 264 39 313 12 l 231 0 l 70 0 l 165 112 q 80 236 111 165 q 49 393 49 307 q 65 508 49 454 q 110 607 81 562 q 180 689 139 652 q 269 750 220 725 q 372 789 317 775 q 486 802 427 802 q 602 788 546 802 q 707 748 658 774 l 740 787 l 901 787 m 767 1110 l 552 870 l 417 870 l 551 1110 l 767 1110 z "},"Ĵ":{"ha":489,"x_min":-49,"x_max":423,"o":"m 383 307 q 359 115 383 212 q 292 -74 335 18 q 189 -244 249 -165 q 56 -382 128 -323 l -49 -319 q 22 -193 -8 -264 q 73 -47 53 -123 q 104 106 94 29 q 114 252 114 182 l 114 977 l 383 977 l 383 307 m 423 1043 l 254 1043 l 210 1137 l 165 1043 l 66 1043 l 197 1284 l 288 1284 l 423 1043 z "},"ĵ":{"ha":420,"x_min":-41,"x_max":389,"o":"m 328 227 q 307 63 328 146 q 250 -98 287 -20 q 162 -244 213 -176 q 49 -361 111 -312 l -41 -307 q 20 -200 -6 -260 q 63 -75 45 -140 q 89 55 80 -11 q 98 179 98 120 l 98 783 l 328 783 l 328 227 m 389 850 l 219 850 l 175 944 l 130 850 l 31 850 l 162 1091 l 254 1091 l 389 850 z "},"Ũ":{"ha":1105,"x_min":64,"x_max":1006,"o":"m 397 977 q 365 863 378 922 q 342 746 351 804 q 329 630 334 687 q 325 522 325 573 q 325 438 325 485 q 331 344 326 392 q 347 250 336 296 q 381 168 359 204 q 440 111 404 132 q 528 89 475 89 q 609 105 575 89 q 666 148 642 121 q 703 210 689 175 q 725 284 717 245 q 735 362 732 323 q 737 438 737 402 l 737 977 l 1006 977 l 1006 480 q 972 282 1006 374 q 877 123 939 191 q 728 17 815 56 q 534 -21 640 -21 q 397 0 460 -21 q 282 57 334 20 q 188 143 229 93 q 120 252 147 193 q 78 376 92 311 q 65 509 64 441 l 65 522 q 76 634 66 576 q 103 751 86 692 q 145 866 121 809 q 199 977 170 924 l 397 977 m 817 1257 q 804 1185 814 1223 q 774 1117 793 1148 q 726 1064 755 1085 q 656 1044 696 1044 q 584 1054 616 1044 q 526 1077 552 1064 q 478 1099 500 1089 q 438 1109 457 1109 q 418 1103 426 1109 q 404 1087 410 1097 q 396 1065 399 1077 q 394 1044 394 1054 l 289 1044 q 300 1117 290 1079 q 330 1185 311 1154 q 380 1237 350 1217 q 451 1257 410 1257 q 520 1246 488 1257 q 579 1224 552 1236 q 627 1202 606 1213 q 664 1192 648 1192 q 684 1199 675 1192 q 697 1215 692 1205 q 705 1236 703 1224 q 708 1257 708 1247 l 817 1257 z "},"ũ":{"ha":952,"x_min":56,"x_max":857,"o":"m 56 335 q 65 446 56 389 q 91 562 74 504 q 133 675 109 619 q 188 783 157 732 l 355 783 q 325 677 338 732 q 303 567 312 622 q 289 458 294 511 q 283 360 283 406 q 286 303 283 334 q 294 243 288 273 q 312 185 300 213 q 340 136 323 157 q 384 102 358 115 q 444 90 409 90 q 504 105 477 90 q 551 145 531 120 q 586 201 572 170 q 609 267 600 233 q 623 333 618 300 q 627 391 627 365 l 627 783 l 857 783 l 857 0 l 768 0 l 663 182 q 615 100 644 137 q 551 37 587 63 q 472 -4 515 10 q 377 -18 428 -18 q 235 8 296 -18 q 135 81 175 35 q 75 193 95 128 q 56 335 56 258 m 740 1063 q 727 992 737 1029 q 697 923 717 955 q 649 871 678 892 q 580 850 620 850 q 508 861 540 850 q 449 883 475 871 q 402 906 423 896 q 361 916 380 916 q 341 910 349 916 q 328 893 333 903 q 320 872 322 884 q 317 850 317 861 l 212 850 q 224 923 214 886 q 254 992 234 961 q 303 1043 273 1023 q 374 1063 333 1063 q 443 1053 411 1063 q 502 1031 475 1043 q 550 1009 529 1019 q 587 999 572 999 q 607 1005 599 999 q 621 1021 616 1012 q 629 1042 626 1031 q 631 1063 631 1054 l 740 1063 z "},"Ū":{"ha":1105,"x_min":64,"x_max":1006,"o":"m 397 977 q 365 863 378 922 q 342 746 351 804 q 329 630 334 687 q 325 522 325 573 q 325 438 325 485 q 331 344 326 392 q 347 250 336 296 q 381 168 359 204 q 440 111 404 132 q 528 89 475 89 q 609 105 575 89 q 666 148 642 121 q 703 210 689 175 q 725 284 717 245 q 735 362 732 323 q 737 438 737 402 l 737 977 l 1006 977 l 1006 480 q 972 282 1006 374 q 877 123 939 191 q 728 17 815 56 q 534 -21 640 -21 q 397 0 460 -21 q 282 57 334 20 q 188 143 229 93 q 120 252 147 193 q 78 376 92 311 q 65 509 64 441 l 65 522 q 76 634 66 576 q 103 751 86 692 q 145 866 121 809 q 199 977 170 924 l 397 977 m 749 1042 l 380 1042 l 380 1176 l 749 1176 l 749 1042 z "},"ū":{"ha":952,"x_min":56,"x_max":857,"o":"m 56 335 q 65 446 56 389 q 91 562 74 504 q 133 675 109 619 q 188 783 157 732 l 355 783 q 325 677 338 732 q 303 567 312 622 q 289 458 294 511 q 283 360 283 406 q 286 303 283 334 q 294 243 288 273 q 312 185 300 213 q 340 136 323 157 q 384 102 358 115 q 444 90 409 90 q 504 105 477 90 q 551 145 531 120 q 586 201 572 170 q 609 267 600 233 q 623 333 618 300 q 627 391 627 365 l 627 783 l 857 783 l 857 0 l 768 0 l 663 182 q 615 100 644 137 q 551 37 587 63 q 472 -4 515 10 q 377 -18 428 -18 q 235 8 296 -18 q 135 81 175 35 q 75 193 95 128 q 56 335 56 258 m 674 853 l 304 853 l 304 987 l 674 987 l 674 853 z "},"Ŭ":{"ha":1105,"x_min":64,"x_max":1006,"o":"m 397 977 q 365 863 378 922 q 342 746 351 804 q 329 630 334 687 q 325 522 325 573 q 325 438 325 485 q 331 344 326 392 q 347 250 336 296 q 381 168 359 204 q 440 111 404 132 q 528 89 475 89 q 609 105 575 89 q 666 148 642 121 q 703 210 689 175 q 725 284 717 245 q 735 362 732 323 q 737 438 737 402 l 737 977 l 1006 977 l 1006 480 q 972 282 1006 374 q 877 123 939 191 q 728 17 815 56 q 534 -21 640 -21 q 397 0 460 -21 q 282 57 334 20 q 188 143 229 93 q 120 252 147 193 q 78 376 92 311 q 65 509 64 441 l 65 522 q 76 634 66 576 q 103 751 86 692 q 145 866 121 809 q 199 977 170 924 l 397 977 m 723 1181 q 707 1114 720 1145 q 671 1060 693 1083 q 618 1024 648 1037 q 551 1010 587 1010 q 484 1024 514 1010 q 433 1061 454 1038 q 398 1115 411 1084 q 382 1181 385 1146 l 481 1181 q 485 1160 481 1173 q 496 1135 488 1147 q 518 1114 505 1123 q 551 1105 531 1105 q 586 1114 572 1105 q 608 1135 600 1123 q 621 1160 617 1147 q 625 1181 625 1173 l 723 1181 z "},"ŭ":{"ha":952,"x_min":56,"x_max":857,"o":"m 56 335 q 65 446 56 389 q 91 562 74 504 q 133 675 109 619 q 188 783 157 732 l 355 783 q 325 677 338 732 q 303 567 312 622 q 289 458 294 511 q 283 360 283 406 q 286 303 283 334 q 294 243 288 273 q 312 185 300 213 q 340 136 323 157 q 384 102 358 115 q 444 90 409 90 q 504 105 477 90 q 551 145 531 120 q 586 201 572 170 q 609 267 600 233 q 623 333 618 300 q 627 391 627 365 l 627 783 l 857 783 l 857 0 l 768 0 l 663 182 q 615 100 644 137 q 551 37 587 63 q 472 -4 515 10 q 377 -18 428 -18 q 235 8 296 -18 q 135 81 175 35 q 75 193 95 128 q 56 335 56 258 m 646 987 q 630 921 644 951 q 594 867 616 890 q 541 830 572 844 q 474 817 511 817 q 408 831 437 817 q 356 868 378 844 q 321 922 334 891 q 306 987 309 953 l 404 987 q 408 967 404 980 q 420 942 412 954 q 441 921 428 930 q 474 911 454 911 q 509 921 495 911 q 532 942 523 930 q 544 967 541 954 q 549 987 548 980 l 646 987 z "},"Ů":{"ha":1105,"x_min":64,"x_max":1006,"o":"m 397 977 q 365 863 378 922 q 342 746 351 804 q 329 630 334 687 q 325 522 325 573 q 325 438 325 485 q 331 344 326 392 q 347 250 336 296 q 381 168 359 204 q 440 111 404 132 q 528 89 475 89 q 609 105 575 89 q 666 148 642 121 q 703 210 689 175 q 725 284 717 245 q 735 362 732 323 q 737 438 737 402 l 737 977 l 1006 977 l 1006 480 q 972 282 1006 374 q 877 123 939 191 q 728 17 815 56 q 534 -21 640 -21 q 397 0 460 -21 q 282 57 334 20 q 188 143 229 93 q 120 252 147 193 q 78 376 92 311 q 65 509 64 441 l 65 522 q 76 634 66 576 q 103 751 86 692 q 145 866 121 809 q 199 977 170 924 l 397 977 m 706 1162 q 694 1102 706 1130 q 661 1053 682 1074 q 612 1020 640 1032 q 552 1008 584 1008 q 492 1020 520 1008 q 443 1053 464 1032 q 411 1102 422 1074 q 399 1162 399 1130 q 411 1222 399 1194 q 444 1271 422 1250 q 492 1304 465 1292 q 552 1316 520 1316 q 611 1304 583 1316 q 661 1271 640 1292 q 694 1222 682 1250 q 706 1162 706 1194 m 609 1162 q 592 1202 609 1185 q 552 1219 575 1219 q 512 1202 528 1219 q 496 1162 496 1185 q 512 1122 496 1139 q 552 1105 528 1105 q 592 1121 575 1105 q 609 1162 609 1138 z "},"ů":{"ha":952,"x_min":56,"x_max":857,"o":"m 56 335 q 65 446 56 389 q 91 562 74 504 q 133 675 109 619 q 188 783 157 732 l 355 783 q 325 677 338 732 q 303 567 312 622 q 289 458 294 511 q 283 360 283 406 q 286 303 283 334 q 294 243 288 273 q 312 185 300 213 q 340 136 323 157 q 384 102 358 115 q 444 90 409 90 q 504 105 477 90 q 551 145 531 120 q 586 201 572 170 q 609 267 600 233 q 623 333 618 300 q 627 391 627 365 l 627 783 l 857 783 l 857 0 l 768 0 l 663 182 q 615 100 644 137 q 551 37 587 63 q 472 -4 515 10 q 377 -18 428 -18 q 235 8 296 -18 q 135 81 175 35 q 75 193 95 128 q 56 335 56 258 m 629 971 q 617 911 629 939 q 584 862 605 883 q 535 829 564 842 q 475 817 507 817 q 415 829 444 817 q 367 862 387 842 q 334 911 346 883 q 322 971 322 939 q 334 1031 322 1003 q 367 1080 346 1059 q 416 1114 388 1101 q 475 1126 444 1126 q 535 1114 507 1126 q 584 1080 563 1101 q 617 1031 605 1059 q 629 971 629 1003 m 532 971 q 515 1011 532 994 q 475 1028 498 1028 q 436 1011 452 1028 q 420 971 420 994 q 436 931 420 948 q 475 914 452 914 q 515 931 498 914 q 532 971 532 947 z "},"Ű":{"ha":1105,"x_min":64,"x_max":1006,"o":"m 397 977 q 365 863 378 922 q 342 746 351 804 q 329 630 334 687 q 325 522 325 573 q 325 438 325 485 q 331 344 326 392 q 347 250 336 296 q 381 168 359 204 q 440 111 404 132 q 528 89 475 89 q 609 105 575 89 q 666 148 642 121 q 703 210 689 175 q 725 284 717 245 q 735 362 732 323 q 737 438 737 402 l 737 977 l 1006 977 l 1006 480 q 972 282 1006 374 q 877 123 939 191 q 728 17 815 56 q 534 -21 640 -21 q 397 0 460 -21 q 282 57 334 20 q 188 143 229 93 q 120 252 147 193 q 78 376 92 311 q 65 509 64 441 l 65 522 q 76 634 66 576 q 103 751 86 692 q 145 866 121 809 q 199 977 170 924 l 397 977 m 962 1284 l 748 1044 l 612 1044 l 747 1284 l 962 1284 m 712 1284 l 498 1044 l 362 1044 l 497 1284 l 712 1284 z "},"ű":{"ha":952,"x_min":56,"x_max":885,"o":"m 56 335 q 65 446 56 389 q 91 562 74 504 q 133 675 109 619 q 188 783 157 732 l 355 783 q 325 677 338 732 q 303 567 312 622 q 289 458 294 511 q 283 360 283 406 q 286 303 283 334 q 294 243 288 273 q 312 185 300 213 q 340 136 323 157 q 384 102 358 115 q 444 90 409 90 q 504 105 477 90 q 551 145 531 120 q 586 201 572 170 q 609 267 600 233 q 623 333 618 300 q 627 391 627 365 l 627 783 l 857 783 l 857 0 l 768 0 l 663 182 q 615 100 644 137 q 551 37 587 63 q 472 -4 515 10 q 377 -18 428 -18 q 235 8 296 -18 q 135 81 175 35 q 75 193 95 128 q 56 335 56 258 m 885 1092 l 671 852 l 535 852 l 670 1092 l 885 1092 m 635 1092 l 420 852 l 285 852 l 420 1092 l 635 1092 z "},"Ų":{"ha":1105,"x_min":64,"x_max":1006,"o":"m 701 -151 q 690 -202 701 -178 q 663 -244 680 -226 q 621 -272 645 -262 q 570 -283 597 -283 q 507 -272 536 -283 q 457 -242 478 -262 q 424 -194 435 -222 q 412 -130 412 -165 q 430 -69 412 -98 q 474 -17 448 -40 q 354 16 410 -9 q 253 78 299 41 q 172 164 208 115 q 112 268 136 212 q 76 385 88 323 q 65 509 64 446 l 65 522 q 76 634 66 576 q 103 751 86 692 q 145 866 121 809 q 199 977 170 924 l 397 977 q 365 863 378 922 q 342 746 351 804 q 329 630 334 687 q 325 522 325 573 q 325 438 325 485 q 331 344 326 392 q 347 250 336 296 q 381 168 359 204 q 440 111 404 132 q 528 89 475 89 q 609 105 575 89 q 666 148 642 121 q 703 210 689 175 q 725 284 717 245 q 735 362 732 323 q 737 438 737 402 l 737 977 l 1006 977 l 1006 480 q 975 290 1006 378 q 887 135 944 201 q 749 28 830 68 q 570 -20 669 -13 q 534 -73 549 -44 q 519 -130 519 -102 q 532 -174 519 -157 q 573 -191 545 -191 q 607 -181 590 -191 q 624 -151 623 -171 l 701 -151 z "},"ų":{"ha":952,"x_min":56,"x_max":968,"o":"m 56 335 q 65 446 56 389 q 91 562 74 504 q 133 675 109 619 q 188 783 157 732 l 355 783 q 325 677 338 732 q 303 567 312 622 q 289 458 294 511 q 283 360 283 406 q 286 303 283 334 q 294 243 288 273 q 312 185 300 213 q 340 136 323 157 q 384 102 358 115 q 444 90 409 90 q 504 105 477 90 q 551 145 531 120 q 586 201 572 170 q 609 267 600 233 q 623 333 618 300 q 627 391 627 365 l 627 783 l 857 783 l 857 0 q 830 -29 842 -14 q 808 -61 817 -44 q 792 -96 798 -78 q 787 -130 787 -113 q 799 -174 787 -157 q 840 -191 812 -191 q 874 -181 857 -191 q 891 -151 890 -171 l 968 -151 q 958 -202 968 -178 q 930 -244 947 -226 q 888 -272 912 -262 q 838 -283 865 -283 q 774 -272 803 -283 q 724 -242 745 -262 q 691 -194 703 -222 q 679 -130 679 -165 q 686 -92 679 -111 q 705 -56 693 -73 q 733 -24 718 -39 q 767 3 749 -9 l 663 182 q 615 100 644 137 q 551 37 587 63 q 472 -4 515 10 q 377 -18 428 -18 q 235 8 296 -18 q 135 81 175 35 q 75 193 95 128 q 56 335 56 258 z "},"Ŵ":{"ha":1395,"x_min":39,"x_max":1367,"o":"m 542 0 l 296 0 l 39 977 l 314 977 l 476 283 l 620 977 l 867 977 l 1024 266 l 1201 977 l 1367 977 l 1083 0 l 836 0 l 699 624 l 542 0 m 920 1043 l 750 1043 l 706 1137 l 661 1043 l 562 1043 l 693 1284 l 785 1284 l 920 1043 z "},"ŵ":{"ha":1173,"x_min":35,"x_max":1144,"o":"m 455 0 l 249 0 l 35 783 l 264 783 l 398 234 l 510 783 l 716 783 l 853 219 l 985 783 l 1144 783 l 907 0 l 701 0 l 585 476 l 455 0 m 793 853 l 624 853 l 580 947 l 535 853 l 436 853 l 567 1094 l 659 1094 l 793 853 z "},"Ẁ":{"ha":1395,"x_min":39,"x_max":1367,"o":"m 542 0 l 296 0 l 39 977 l 314 977 l 476 283 l 620 977 l 867 977 l 1024 266 l 1201 977 l 1367 977 l 1083 0 l 836 0 l 699 624 l 542 0 m 812 1042 l 677 1042 l 463 1282 l 677 1282 l 812 1042 z "},"ẁ":{"ha":1173,"x_min":35,"x_max":1144,"o":"m 455 0 l 249 0 l 35 783 l 264 783 l 398 234 l 510 783 l 716 783 l 853 219 l 985 783 l 1144 783 l 907 0 l 701 0 l 585 476 l 455 0 m 677 851 l 541 851 l 327 1091 l 542 1091 l 677 851 z "}}}
